M48
; DRILL file KiCad 10.0.6 date 2026-09-07T00:38:55
; FORMAT={-:-/ absolute / metric / decimal}
; #@! TF.CreationDate,2026-09-07T00:38:55-04:00
; #@! TF.GenerationSoftware,Kicad,Pcbnew,10.0.6
; #@! TF.FileFunction,Plated,1,4,PTH
FMAT,2
METRIC
; #@! TA.AperFunction,Plated,PTH,ViaDrill
T1C0.300
; #@! TA.AperFunction,Plated,PTH,ComponentDrill
T2C0.800
; #@! TA.AperFunction,Plated,PTH,ComponentDrill
T3C1.000
; #@! TA.AperFunction,Plated,PTH,ComponentDrill
T4C1.300
%
G90
G05
T1
X143.0Y-89.5
X143.0Y-94.5
X147.475Y-96.9
X149.0Y-99.5
X150.1Y-115.5
X152.4Y-96.875
X152.525Y-94.75
X152.9Y-106.5
X154.5Y-105.5
X154.85Y-112.4
X155.6Y-115.1
X156.0Y-99.5
X156.0Y-105.5
X156.25Y-107.65
X156.775Y-94.825
X156.95Y-103.55
X157.4Y-96.875
X158.75Y-101.9
X159.0Y-105.25
X159.0Y-107.25
X159.0Y-109.25
X159.5Y-97.0
X159.5Y-100.5
X159.5Y-104.5
X159.5Y-106.25
X159.5Y-108.25
X160.0Y-105.25
X160.0Y-107.25
X160.0Y-109.25
X160.3Y-101.925
X160.5Y-104.5
X160.5Y-106.25
X160.5Y-108.25
X161.0Y-97.0
X161.0Y-100.5
X161.0Y-105.25
X161.0Y-107.25
X161.0Y-109.25
X161.5Y-104.5
X161.5Y-106.25
X161.5Y-108.25
X161.775Y-95.375
X161.775Y-99.225
X161.8Y-101.925
X164.05Y-105.3
X165.2Y-118.3
X168.0Y-112.5
X168.0Y-115.25
X169.0Y-102.5
X169.5Y-115.25
X170.0Y-104.5
X171.0Y-110.75
X172.0Y-93.5
X174.0Y-102.5
X174.0Y-104.5
X178.0Y-90.5
X178.0Y-96.5
X178.0Y-104.5
T2
X171.75Y-97.5
X171.75Y-101.0
X172.5Y-109.42
X172.5Y-119.58
T3
X144.77Y-132.0
X147.31Y-132.0
X149.85Y-132.0
X152.39Y-132.0
X154.93Y-132.0
X157.47Y-132.0
X160.01Y-132.0
X162.55Y-132.0
X165.09Y-132.0
X167.63Y-132.0
X170.17Y-132.0
X172.71Y-132.0
X175.25Y-132.0
T4
X147.5Y-90.0
X152.5Y-90.0
X157.5Y-90.0
X167.0Y-90.0
X172.0Y-90.0
M30
