%TF.GenerationSoftware,KiCad,Pcbnew,10.0.6*%
%TF.CreationDate,2026-09-07T00:38:57-04:00*%
%TF.ProjectId,uwmtr-thruster-control-board-hw,75776d74-722d-4746-9872-75737465722d,rev?*%
%TF.SameCoordinates,Original*%
%TF.FileFunction,Copper,L1,Top*%
%TF.FilePolarity,Positive*%
%FSLAX46Y46*%
G04 Gerber Fmt 4.6, Leading zero omitted, Abs format (unit mm)*
G04 Created by KiCad (PCBNEW 10.0.6) date 2026-09-07 00:38:57*
%MOMM*%
%LPD*%
G01*
G04 APERTURE LIST*
G04 Aperture macros list*
%AMRoundRect*
0 Rectangle with rounded corners*
0 $1 Rounding radius*
0 $2 $3 $4 $5 $6 $7 $8 $9 X,Y pos of 4 corners*
0 Add a 4 corners polygon primitive as box body*
4,1,4,$2,$3,$4,$5,$6,$7,$8,$9,$2,$3,0*
0 Add four circle primitives for the rounded corners*
1,1,$1+$1,$2,$3*
1,1,$1+$1,$4,$5*
1,1,$1+$1,$6,$7*
1,1,$1+$1,$8,$9*
0 Add four rect primitives between the rounded corners*
20,1,$1+$1,$2,$3,$4,$5,0*
20,1,$1+$1,$4,$5,$6,$7,0*
20,1,$1+$1,$6,$7,$8,$9,0*
20,1,$1+$1,$8,$9,$2,$3,0*%
G04 Aperture macros list end*
%TA.AperFunction,SMDPad,CuDef*%
%ADD10RoundRect,0.250000X-0.625000X0.312500X-0.625000X-0.312500X0.625000X-0.312500X0.625000X0.312500X0*%
%TD*%
%TA.AperFunction,SMDPad,CuDef*%
%ADD11RoundRect,0.250000X-0.325000X-0.650000X0.325000X-0.650000X0.325000X0.650000X-0.325000X0.650000X0*%
%TD*%
%TA.AperFunction,ComponentPad*%
%ADD12C,1.950000*%
%TD*%
%TA.AperFunction,ComponentPad*%
%ADD13C,1.600000*%
%TD*%
%TA.AperFunction,SMDPad,CuDef*%
%ADD14RoundRect,0.250000X-0.312500X-0.625000X0.312500X-0.625000X0.312500X0.625000X-0.312500X0.625000X0*%
%TD*%
%TA.AperFunction,SMDPad,CuDef*%
%ADD15RoundRect,0.250000X0.312500X0.625000X-0.312500X0.625000X-0.312500X-0.625000X0.312500X-0.625000X0*%
%TD*%
%TA.AperFunction,SMDPad,CuDef*%
%ADD16RoundRect,0.250000X-0.650000X0.325000X-0.650000X-0.325000X0.650000X-0.325000X0.650000X0.325000X0*%
%TD*%
%TA.AperFunction,ComponentPad*%
%ADD17R,1.700000X1.700000*%
%TD*%
%TA.AperFunction,ComponentPad*%
%ADD18C,1.700000*%
%TD*%
%TA.AperFunction,SMDPad,CuDef*%
%ADD19RoundRect,0.250000X0.325000X0.650000X-0.325000X0.650000X-0.325000X-0.650000X0.325000X-0.650000X0*%
%TD*%
%TA.AperFunction,SMDPad,CuDef*%
%ADD20R,0.906066X0.242473*%
%TD*%
%TA.AperFunction,SMDPad,CuDef*%
%ADD21R,0.242473X0.906066*%
%TD*%
%TA.AperFunction,SMDPad,CuDef*%
%ADD22R,3.800000X5.800001*%
%TD*%
%TA.AperFunction,ViaPad*%
%ADD23C,0.600000*%
%TD*%
%TA.AperFunction,Conductor*%
%ADD24C,0.200000*%
%TD*%
G04 APERTURE END LIST*
D10*
%TO.P,1206W4F5101T5E3,1*%
%TO.N,/I2C_SCL*%
X151750000Y-113537500D03*
%TO.P,1206W4F5101T5E3,2*%
%TO.N,/AVDD*%
X151750000Y-116462500D03*
%TD*%
D11*
%TO.P,1206B473K500NT1,1*%
%TO.N,/CPH*%
X165525000Y-107250000D03*
%TO.P,1206B473K500NT1,2*%
%TO.N,/CPL*%
X168475000Y-107250000D03*
%TD*%
D12*
%TO.P,J3,1*%
%TO.N,+24V*%
X172000000Y-90000000D03*
%TO.P,J3,2*%
%TO.N,PGND*%
X167000000Y-90000000D03*
%TD*%
D13*
%TO.P,KM107M050F12RR0VH2FP1,1*%
%TO.N,+24V*%
X171750000Y-101000000D03*
%TO.P,KM107M050F12RR0VH2FP1,2*%
%TO.N,PGND*%
X171750000Y-97500000D03*
%TD*%
D14*
%TO.P,1206W4F5101T5E2,1*%
%TO.N,/FAULT_N*%
X162037500Y-116250000D03*
%TO.P,1206W4F5101T5E2,2*%
%TO.N,/AVDD*%
X164962500Y-116250000D03*
%TD*%
D15*
%TO.P,1206W4F5101T5E1,1*%
%TO.N,/AVDD*%
X152212500Y-104250000D03*
%TO.P,1206W4F5101T5E1,2*%
%TO.N,/FG*%
X149287500Y-104250000D03*
%TD*%
D16*
%TO.P,CS3216X5R226K160NRI1,1*%
%TO.N,+3.3V*%
X168500000Y-111025000D03*
%TO.P,CS3216X5R226K160NRI1,2*%
%TO.N,AGND*%
X168500000Y-113975000D03*
%TD*%
D17*
%TO.P,J1,1,Pin_13_1*%
%TO.N,+3.3V*%
X175250000Y-132000000D03*
D18*
%TO.P,J1,2,Pin_12_2*%
%TO.N,/FAULT_N*%
X172710000Y-132000000D03*
%TO.P,J1,3,Pin_11_3*%
%TO.N,/SOX*%
X170170000Y-132000000D03*
%TO.P,J1,4,Pin_10_4*%
%TO.N,/BRAKE*%
X167630000Y-132000000D03*
%TO.P,J1,5,Pin_9_5*%
%TO.N,/DIR*%
X165090000Y-132000000D03*
%TO.P,J1,6,Pin_8_6*%
%TO.N,/EXT_CLK*%
X162550000Y-132000000D03*
%TO.P,J1,7,Pin_7_7*%
%TO.N,/EXT_WD*%
X160010000Y-132000000D03*
%TO.P,J1,8,Pin_6_8*%
%TO.N,/I2C_SCL*%
X157470000Y-132000000D03*
%TO.P,J1,9,Pin_5_9*%
%TO.N,/I2C_SDA*%
X154930000Y-132000000D03*
%TO.P,J1,10,Pin_4_10*%
%TO.N,/FG*%
X152390000Y-132000000D03*
%TO.P,J1,11,Pin_3_11*%
%TO.N,/SPEED_WAKE*%
X149850000Y-132000000D03*
%TO.P,J1,12,Pin_2_12*%
%TO.N,/DRVOFF*%
X147310000Y-132000000D03*
%TO.P,J1,13,Pin_1_13*%
%TO.N,AGND*%
X144770000Y-132000000D03*
%TD*%
D10*
%TO.P,1206W4F5101T5E4,1*%
%TO.N,/I2C_SDA*%
X148250000Y-113537500D03*
%TO.P,1206W4F5101T5E4,2*%
%TO.N,/AVDD*%
X148250000Y-116462500D03*
%TD*%
D16*
%TO.P,CL31B104KCFNNNE1,1*%
%TO.N,PGND*%
X165750000Y-99025000D03*
%TO.P,CL31B104KCFNNNE1,2*%
%TO.N,+24V*%
X165750000Y-101975000D03*
%TD*%
%TO.P,CL31B105KAHNNNE3,1*%
%TO.N,AGND*%
X166000000Y-111025000D03*
%TO.P,CL31B105KAHNNNE3,2*%
%TO.N,/DVDD*%
X166000000Y-113975000D03*
%TD*%
D19*
%TO.P,CL31B105KAHNNNE1,1*%
%TO.N,+24V*%
X168475000Y-104500000D03*
%TO.P,CL31B105KAHNNNE1,2*%
%TO.N,/CP*%
X165525000Y-104500000D03*
%TD*%
D16*
%TO.P,CL31B105KAHNNNE2,1*%
%TO.N,AGND*%
X154500000Y-104275000D03*
%TO.P,CL31B105KAHNNNE2,2*%
%TO.N,/AVDD*%
X154500000Y-107225000D03*
%TD*%
D20*
%TO.P,U1,1,DVDD_1*%
%TO.N,/DVDD*%
X162753033Y-109750000D03*
%TO.P,U1,2,DGND_2*%
%TO.N,AGND*%
X162753033Y-109250001D03*
%TO.P,U1,3,FB_BK_3*%
%TO.N,+3.3V*%
X162753033Y-108749999D03*
%TO.P,U1,4,GND_BK_4*%
%TO.N,AGND*%
X162753033Y-108250000D03*
%TO.P,U1,5,SW_BK_5*%
%TO.N,/SW_BK*%
X162753033Y-107750001D03*
%TO.P,U1,6,CPL_6*%
%TO.N,/CPL*%
X162753033Y-107250000D03*
%TO.P,U1,7,CPH_7*%
%TO.N,/CPH*%
X162753033Y-106750000D03*
%TO.P,U1,8,CP_8*%
%TO.N,/CP*%
X162753033Y-106249999D03*
%TO.P,U1,9,VM_9*%
%TO.N,+24V*%
X162753033Y-105750000D03*
%TO.P,U1,10,VM_10*%
X162753033Y-105250001D03*
%TO.P,U1,11,VM_11*%
X162753033Y-104749999D03*
%TO.P,U1,12,PGND_12*%
%TO.N,PGND*%
X162753033Y-104250000D03*
D21*
%TO.P,U1,13,OUT_A_13*%
%TO.N,/OUT_A*%
X161999999Y-103496967D03*
%TO.P,U1,14,OUT_A_14*%
X161500000Y-103496967D03*
%TO.P,U1,15,PGND_15*%
%TO.N,PGND*%
X161000001Y-103496967D03*
%TO.P,U1,16,OUT_B_16*%
%TO.N,/OUT_B*%
X160500000Y-103496967D03*
%TO.P,U1,17,OUT_B_17*%
X160000000Y-103496967D03*
%TO.P,U1,18,PGND_18*%
%TO.N,PGND*%
X159499999Y-103496967D03*
%TO.P,U1,19,OUT_C_19*%
%TO.N,/OUT_C*%
X159000000Y-103496967D03*
%TO.P,U1,20,OUT_C_20*%
X158500001Y-103496967D03*
D20*
%TO.P,U1,21,DRVOFF_21*%
%TO.N,/DRVOFF*%
X157746967Y-104250000D03*
%TO.P,U1,22,NC_22*%
%TO.N,unconnected-(U1-NC-Pad22)*%
X157746967Y-104749999D03*
%TO.P,U1,23,NC_23*%
%TO.N,unconnected-(U1-NC-Pad23)*%
X157746967Y-105250001D03*
%TO.P,U1,24,NC_24*%
%TO.N,unconnected-(U1-NC-Pad24)*%
X157746967Y-105750000D03*
%TO.P,U1,25,NC_25*%
%TO.N,unconnected-(U1-NC-Pad25)*%
X157746967Y-106249999D03*
%TO.P,U1,26,AGND_26*%
%TO.N,AGND*%
X157746967Y-106750000D03*
%TO.P,U1,27,AVDD_27*%
%TO.N,/AVDD*%
X157746967Y-107250000D03*
%TO.P,U1,28,SPEED_WAKE_28*%
%TO.N,/SPEED_WAKE*%
X157746967Y-107750001D03*
%TO.P,U1,29,FG_29*%
%TO.N,/FG*%
X157746967Y-108250000D03*
%TO.P,U1,30,SDA_30*%
%TO.N,/I2C_SDA*%
X157746967Y-108749999D03*
%TO.P,U1,31,SCL_31*%
%TO.N,/I2C_SCL*%
X157746967Y-109250001D03*
%TO.P,U1,32,EXT_WD_32*%
%TO.N,/EXT_WD*%
X157746967Y-109750000D03*
D21*
%TO.P,U1,33,EXT_CLK_33*%
%TO.N,/EXT_CLK*%
X158500001Y-110503033D03*
%TO.P,U1,34,DIR_34*%
%TO.N,/DIR*%
X159000000Y-110503033D03*
%TO.P,U1,35,BRAKE_35*%
%TO.N,/BRAKE*%
X159499999Y-110503033D03*
%TO.P,U1,36,NC_36*%
%TO.N,unconnected-(U1-NC-Pad36)*%
X160000000Y-110503033D03*
%TO.P,U1,37,NC_37*%
%TO.N,unconnected-(U1-NC-Pad37)*%
X160500000Y-110503033D03*
%TO.P,U1,38,SOX_38*%
%TO.N,/SOX*%
X161000001Y-110503033D03*
%TO.P,U1,39,NC_39*%
%TO.N,unconnected-(U1-NC-Pad39)*%
X161500000Y-110503033D03*
%TO.P,U1,40,FAULT_N_40*%
%TO.N,/FAULT_N*%
X161999999Y-110503033D03*
D22*
%TO.P,U1,41,Thermal_Pad_41*%
%TO.N,AGND*%
X160250000Y-107000000D03*
%TD*%
D12*
%TO.P,J2,1*%
%TO.N,/OUT_A*%
X157500000Y-90000000D03*
%TO.P,J2,2*%
%TO.N,/OUT_B*%
X152500000Y-90000000D03*
%TO.P,J2,3*%
%TO.N,/OUT_C*%
X147500000Y-90000000D03*
%TD*%
D13*
%TO.P,R1,1*%
%TO.N,/SW_BK*%
X172500000Y-109420000D03*
%TO.P,R1,2*%
%TO.N,+3.3V*%
X172500000Y-119580000D03*
%TD*%
D23*
%TO.N,/AVDD*%
X152900000Y-106500000D03*
X155600000Y-115100000D03*
X165200000Y-118300000D03*
X154850000Y-112400000D03*
X150100000Y-115500000D03*
%TO.N,+24V*%
X178000000Y-104500000D03*
X174000000Y-102500000D03*
X172000000Y-93500000D03*
X169000000Y-102500000D03*
X178000000Y-90500000D03*
X178000000Y-96500000D03*
X174000000Y-104500000D03*
X170000000Y-104500000D03*
X164050000Y-105300000D03*
%TO.N,PGND*%
X143000000Y-89500000D03*
X149000000Y-99500000D03*
X143000000Y-94500000D03*
X159500000Y-97000000D03*
X156000000Y-99500000D03*
X161000000Y-100500000D03*
X161000000Y-97000000D03*
X159500000Y-100500000D03*
%TO.N,AGND*%
X168000000Y-115250000D03*
X159500000Y-104500000D03*
X160500000Y-106250000D03*
X161000000Y-109250000D03*
X159500000Y-106250000D03*
X160000000Y-109250000D03*
X160500000Y-108250000D03*
X156000000Y-105500000D03*
X161000000Y-107250000D03*
X159000000Y-105250000D03*
X160000000Y-107250000D03*
X171000000Y-110750000D03*
X161500000Y-104500000D03*
X161500000Y-108250000D03*
X169500000Y-115250000D03*
X160000000Y-105250000D03*
X159000000Y-109250000D03*
X168000000Y-112500000D03*
X154500000Y-105500000D03*
X159000000Y-107250000D03*
X159500000Y-108250000D03*
X161000000Y-105250000D03*
X160500000Y-104500000D03*
X161500000Y-106250000D03*
%TO.N,/SPEED_WAKE*%
X156250000Y-107650000D03*
%TO.N,/DRVOFF*%
X156950000Y-103550000D03*
%TO.N,/OUT_A*%
X161775000Y-99225000D03*
X161775000Y-95375000D03*
X161800000Y-101925000D03*
%TO.N,/OUT_B*%
X156775000Y-94825000D03*
X152525000Y-94750000D03*
X160300000Y-101925000D03*
%TO.N,/OUT_C*%
X157400000Y-96875000D03*
X158750000Y-101900000D03*
X147475000Y-96900000D03*
X152400000Y-96875000D03*
%TD*%
%TO.N,/I2C_SCL*%
D24*
X157746967Y-109250001D02*
X154499999Y-109250001D01*
X151750000Y-112000000D02*
X151750000Y-113537500D01*
X153250000Y-115000000D02*
X153250000Y-118000000D01*
X151750000Y-113537500D02*
X151787500Y-113537500D01*
X157470000Y-129720000D02*
X157470000Y-132000000D01*
X151500000Y-123750000D02*
X157470000Y-129720000D01*
X151787500Y-113537500D02*
X153250000Y-115000000D01*
X151500000Y-119750000D02*
X151500000Y-123750000D01*
X154499999Y-109250001D02*
X151750000Y-112000000D01*
X153250000Y-118000000D02*
X151500000Y-119750000D01*
%TO.N,/AVDD*%
X153775000Y-106500000D02*
X152900000Y-106500000D01*
X164962500Y-118062500D02*
X165200000Y-118300000D01*
X154500000Y-107225000D02*
X152212500Y-104937500D01*
X164962500Y-116250000D02*
X164962500Y-118062500D01*
X150100000Y-115500000D02*
X150787500Y-115500000D01*
X157746967Y-107250000D02*
X156698529Y-107250000D01*
X156698529Y-107250000D02*
X156448529Y-107000000D01*
X155600000Y-115100000D02*
X155600000Y-113150000D01*
X154725000Y-107000000D02*
X154500000Y-107225000D01*
X152212500Y-104937500D02*
X152212500Y-104250000D01*
X156448529Y-107000000D02*
X154725000Y-107000000D01*
X150787500Y-115500000D02*
X151750000Y-116462500D01*
X150100000Y-115500000D02*
X149137500Y-116462500D01*
X155600000Y-113150000D02*
X154850000Y-112400000D01*
X149137500Y-116462500D02*
X148250000Y-116462500D01*
X154500000Y-107225000D02*
X153775000Y-106500000D01*
%TO.N,/CPH*%
X162753033Y-106750000D02*
X165025000Y-106750000D01*
X165025000Y-106750000D02*
X165525000Y-107250000D01*
%TO.N,/CPL*%
X163765256Y-107250000D02*
X164965256Y-108450000D01*
X164965256Y-108450000D02*
X167275000Y-108450000D01*
X162753033Y-107250000D02*
X163765256Y-107250000D01*
X167275000Y-108450000D02*
X168475000Y-107250000D01*
%TO.N,/FAULT_N*%
X161999999Y-111250001D02*
X162037500Y-111287502D01*
X172710000Y-132000000D02*
X172710000Y-126922500D01*
X161999999Y-110503033D02*
X161999999Y-111250001D01*
X162037500Y-111287502D02*
X162037500Y-116250000D01*
X172710000Y-126922500D02*
X162037500Y-116250000D01*
%TO.N,/FG*%
X145500000Y-125110000D02*
X152390000Y-132000000D01*
X153287500Y-108250000D02*
X147500000Y-108250000D01*
X147500000Y-108250000D02*
X145500000Y-110250000D01*
X157746967Y-108250000D02*
X153287500Y-108250000D01*
X153287500Y-108250000D02*
X149287500Y-104250000D01*
X145500000Y-110250000D02*
X145500000Y-125110000D01*
%TO.N,+3.3V*%
X167625000Y-110150000D02*
X168500000Y-111025000D01*
X163861615Y-108749999D02*
X165111616Y-110000000D01*
X167500000Y-110000000D02*
X167625000Y-110125000D01*
X162753033Y-108749999D02*
X163861615Y-108749999D01*
X165111616Y-110000000D02*
X167500000Y-110000000D01*
X167625000Y-110125000D02*
X167625000Y-110150000D01*
%TO.N,/SOX*%
X170170000Y-127420000D02*
X170170000Y-132000000D01*
X161000001Y-110503033D02*
X161000000Y-118250000D01*
X161000000Y-118250000D02*
X170170000Y-127420000D01*
%TO.N,/BRAKE*%
X159499999Y-110503033D02*
X159499999Y-119249999D01*
X159499999Y-119249999D02*
X167630000Y-127380000D01*
X167630000Y-127380000D02*
X167630000Y-132000000D01*
%TO.N,/DIR*%
X159000000Y-111250000D02*
X157750000Y-112500000D01*
X157750000Y-112500000D02*
X157750000Y-120750000D01*
X157750000Y-120750000D02*
X165090000Y-128090000D01*
X159000000Y-110503033D02*
X159000000Y-111250000D01*
X165090000Y-128090000D02*
X165090000Y-132000000D01*
%TO.N,/EXT_CLK*%
X156250000Y-112000000D02*
X156250000Y-122000000D01*
X162250000Y-131700000D02*
X162550000Y-132000000D01*
X162250000Y-128000000D02*
X162250000Y-131700000D01*
X158500001Y-110503033D02*
X157746967Y-110503033D01*
X156250000Y-122000000D02*
X162250000Y-128000000D01*
X157746967Y-110503033D02*
X156250000Y-112000000D01*
%TO.N,/EXT_WD*%
X154250000Y-111750000D02*
X154250000Y-123000000D01*
X157746967Y-109750000D02*
X156250000Y-109750000D01*
X154250000Y-123000000D02*
X160010000Y-128760000D01*
X156250000Y-109750000D02*
X154250000Y-111750000D01*
X160010000Y-128760000D02*
X160010000Y-132000000D01*
%TO.N,/I2C_SDA*%
X146700000Y-115550000D02*
X146700000Y-122700000D01*
X148250000Y-113537500D02*
X148250000Y-114000000D01*
X146700000Y-122700000D02*
X154930000Y-130930000D01*
X154930000Y-130930000D02*
X154930000Y-132000000D01*
X157746967Y-108749999D02*
X150750001Y-108749999D01*
X150750001Y-108749999D02*
X148250000Y-111250000D01*
X148250000Y-114000000D02*
X146700000Y-115550000D01*
X148250000Y-111250000D02*
X148250000Y-113537500D01*
%TO.N,/SPEED_WAKE*%
X156350001Y-107750001D02*
X156250000Y-107650000D01*
X157746967Y-107750001D02*
X156350001Y-107750001D01*
%TO.N,/DRVOFF*%
X157746967Y-104246967D02*
X157746967Y-104250000D01*
X157050000Y-103550000D02*
X157746967Y-104246967D01*
X156950000Y-103550000D02*
X157050000Y-103550000D01*
%TO.N,/CP*%
X162753033Y-106249999D02*
X164700001Y-106249999D01*
X164700001Y-106249999D02*
X165525000Y-105425000D01*
X165525000Y-105425000D02*
X165525000Y-104500000D01*
%TO.N,/SW_BK*%
X165400000Y-109500000D02*
X165500000Y-109500000D01*
X162753033Y-107750001D02*
X163650001Y-107750001D01*
X163650001Y-107750001D02*
X165400000Y-109500000D01*
%TD*%
%TA.AperFunction,Conductor*%
%TO.N,AGND*%
G36*
X155515677Y-103019685D02*
G01*
X155536319Y-103036319D01*
X157000000Y-104500000D01*
X157069434Y-104500000D01*
X157136473Y-104519685D01*
X157182228Y-104572489D01*
X157193434Y-104624000D01*
X157193434Y-104881130D01*
X157193435Y-104881138D01*
X157199264Y-104910448D01*
X157199265Y-104910450D01*
X157213071Y-104931114D01*
X157233946Y-104997792D01*
X157215459Y-105065171D01*
X157213072Y-105068885D01*
X157199266Y-105089548D01*
X157199263Y-105089555D01*
X157193434Y-105118862D01*
X157193434Y-105381132D01*
X157193435Y-105381140D01*
X157199264Y-105410449D01*
X157213070Y-105431113D01*
X157233945Y-105497791D01*
X157215458Y-105565171D01*
X157213071Y-105568885D01*
X157199266Y-105589547D01*
X157199263Y-105589554D01*
X157193434Y-105618861D01*
X157193434Y-105881131D01*
X157193435Y-105881139D01*
X157199264Y-105910448D01*
X157213070Y-105931112D01*
X157233945Y-105997790D01*
X157215458Y-106065170D01*
X157213071Y-106068884D01*
X157199266Y-106089546D01*
X157199263Y-106089553D01*
X157193434Y-106118860D01*
X157193434Y-106381130D01*
X157193435Y-106381138D01*
X157199264Y-106410448D01*
X157221476Y-106443693D01*
X157238153Y-106454835D01*
X157254721Y-106465905D01*
X157254724Y-106465905D01*
X157254725Y-106465906D01*
X157264581Y-106467866D01*
X157284035Y-106471736D01*
X158209898Y-106471735D01*
X158239213Y-106465905D01*
X158272457Y-106443693D01*
X158272895Y-106443038D01*
X158274222Y-106441928D01*
X158281094Y-106435057D01*
X158281708Y-106435671D01*
X158326505Y-106398230D01*
X158395830Y-106389520D01*
X158458858Y-106419672D01*
X158495580Y-106479113D01*
X158500000Y-106511924D01*
X158500000Y-106876000D01*
X158480315Y-106943039D01*
X158427511Y-106988794D01*
X158376000Y-107000000D01*
X157948180Y-107000000D01*
X157886179Y-106983387D01*
X157862957Y-106969979D01*
X157837480Y-106963152D01*
X157786529Y-106949500D01*
X157786527Y-106949500D01*
X157000862Y-106949500D01*
X156933823Y-106929815D01*
X156913181Y-106913181D01*
X156500000Y-106500000D01*
X155391933Y-106500000D01*
X155350978Y-106493041D01*
X155234701Y-106452354D01*
X155234699Y-106452353D01*
X155204270Y-106449500D01*
X155204266Y-106449500D01*
X154500862Y-106449500D01*
X154433823Y-106429815D01*
X154413181Y-106413181D01*
X153036319Y-105036319D01*
X153002834Y-104974996D01*
X153000000Y-104948638D01*
X153000000Y-103124000D01*
X153019685Y-103056961D01*
X153072489Y-103011206D01*
X153124000Y-103000000D01*
X155448638Y-103000000D01*
X155515677Y-103019685D01*
G37*
%TD.AperFunction*%
%TD*%
%TA.AperFunction,Conductor*%
%TO.N,/DVDD*%
G36*
X163015740Y-109555021D02*
G01*
X163040984Y-109562434D01*
X163093730Y-109593730D01*
X163951073Y-110451073D01*
X163972223Y-110479325D01*
X163984831Y-110502414D01*
X164000000Y-110561843D01*
X164000000Y-111500000D01*
X164650000Y-112150000D01*
X167108170Y-112150000D01*
X167143106Y-112155023D01*
X167158104Y-112159427D01*
X167216855Y-112197172D01*
X167218042Y-112198541D01*
X167245518Y-112253402D01*
X167247163Y-112260960D01*
X167250000Y-112287331D01*
X167250000Y-114858170D01*
X167244975Y-114893114D01*
X167240570Y-114908112D01*
X167202827Y-114966855D01*
X167201458Y-114968042D01*
X167146597Y-114995518D01*
X167139039Y-114997163D01*
X167112668Y-115000000D01*
X164641830Y-115000000D01*
X164606889Y-114994975D01*
X164591890Y-114990570D01*
X164533144Y-114952827D01*
X164531957Y-114951458D01*
X164504477Y-114896583D01*
X164502832Y-114889021D01*
X164500000Y-114862668D01*
X164500000Y-113274997D01*
X162555761Y-111573788D01*
X162532777Y-111547002D01*
X162519361Y-111525902D01*
X162500000Y-111459369D01*
X162500000Y-110070710D01*
X162399426Y-109970136D01*
X162378274Y-109941880D01*
X162365667Y-109918791D01*
X162350500Y-109859366D01*
X162350500Y-109691829D01*
X162355523Y-109656893D01*
X162359927Y-109641895D01*
X162397672Y-109583144D01*
X162399041Y-109581957D01*
X162453920Y-109554477D01*
X162461479Y-109552833D01*
X162487832Y-109550000D01*
X162980808Y-109550000D01*
X163015740Y-109555021D01*
G37*
%TD.AperFunction*%
%TD*%
%TA.AperFunction,Conductor*%
%TO.N,+3.3V*%
G36*
X170019100Y-110019685D02*
G01*
X170035472Y-110032247D01*
X170493134Y-110448304D01*
X170529498Y-110507966D01*
X170529498Y-110572149D01*
X170499500Y-110684106D01*
X170499500Y-110815891D01*
X170533608Y-110943187D01*
X170566554Y-111000250D01*
X170599500Y-111057314D01*
X170692686Y-111150500D01*
X170806814Y-111216392D01*
X170934108Y-111250500D01*
X170934110Y-111250500D01*
X171065890Y-111250500D01*
X171065892Y-111250500D01*
X171193186Y-111216392D01*
X171203354Y-111210521D01*
X171271250Y-111194045D01*
X171337278Y-111216893D01*
X171348760Y-111226146D01*
X172199450Y-111999500D01*
X173849998Y-113499999D01*
X173849999Y-113499999D01*
X173850000Y-113500000D01*
X179375500Y-113500000D01*
X179442539Y-113519685D01*
X179488294Y-113572489D01*
X179499500Y-113624000D01*
X179499500Y-121250000D01*
X174000000Y-121250000D01*
X174000000Y-121500000D01*
X170374000Y-121500000D01*
X170306961Y-121480315D01*
X170261206Y-121427511D01*
X170250000Y-121376000D01*
X170250000Y-119477682D01*
X171200000Y-119477682D01*
X171200000Y-119682317D01*
X171232009Y-119884417D01*
X171295244Y-120079031D01*
X171388141Y-120261350D01*
X171388147Y-120261359D01*
X171420523Y-120305921D01*
X171420524Y-120305922D01*
X172100000Y-119626446D01*
X172100000Y-119632661D01*
X172127259Y-119734394D01*
X172179920Y-119825606D01*
X172254394Y-119900080D01*
X172345606Y-119952741D01*
X172447339Y-119980000D01*
X172453553Y-119980000D01*
X171774076Y-120659474D01*
X171818650Y-120691859D01*
X172000968Y-120784755D01*
X172195582Y-120847990D01*
X172397683Y-120880000D01*
X172602317Y-120880000D01*
X172804417Y-120847990D01*
X172999031Y-120784755D01*
X173181349Y-120691859D01*
X173225921Y-120659474D01*
X172546447Y-119980000D01*
X172552661Y-119980000D01*
X172654394Y-119952741D01*
X172745606Y-119900080D01*
X172820080Y-119825606D01*
X172872741Y-119734394D01*
X172900000Y-119632661D01*
X172900000Y-119626448D01*
X173579474Y-120305922D01*
X173579474Y-120305921D01*
X173611859Y-120261349D01*
X173704755Y-120079031D01*
X173767990Y-119884417D01*
X173800000Y-119682317D01*
X173800000Y-119477682D01*
X173767990Y-119275582D01*
X173704755Y-119080968D01*
X173611859Y-118898650D01*
X173579474Y-118854077D01*
X173579474Y-118854076D01*
X172900000Y-119533551D01*
X172900000Y-119527339D01*
X172872741Y-119425606D01*
X172820080Y-119334394D01*
X172745606Y-119259920D01*
X172654394Y-119207259D01*
X172552661Y-119180000D01*
X172546446Y-119180000D01*
X173225922Y-118500524D01*
X173225921Y-118500523D01*
X173181359Y-118468147D01*
X173181350Y-118468141D01*
X172999031Y-118375244D01*
X172804417Y-118312009D01*
X172602317Y-118280000D01*
X172397683Y-118280000D01*
X172195582Y-118312009D01*
X172000968Y-118375244D01*
X171818644Y-118468143D01*
X171774077Y-118500523D01*
X171774077Y-118500524D01*
X172453554Y-119180000D01*
X172447339Y-119180000D01*
X172345606Y-119207259D01*
X172254394Y-119259920D01*
X172179920Y-119334394D01*
X172127259Y-119425606D01*
X172100000Y-119527339D01*
X172100000Y-119533553D01*
X171420524Y-118854077D01*
X171420523Y-118854077D01*
X171388143Y-118898644D01*
X171295244Y-119080968D01*
X171232009Y-119275582D01*
X171200000Y-119477682D01*
X170250000Y-119477682D01*
X170250000Y-114000000D01*
X168250000Y-112000000D01*
X168077816Y-112000000D01*
X168070187Y-111999500D01*
X168065892Y-111999500D01*
X167934108Y-111999500D01*
X167929813Y-111999500D01*
X167922184Y-112000000D01*
X167624000Y-112000000D01*
X167556961Y-111980315D01*
X167511206Y-111927511D01*
X167500000Y-111876000D01*
X167500000Y-110124000D01*
X167519685Y-110056961D01*
X167572489Y-110011206D01*
X167624000Y-110000000D01*
X169952061Y-110000000D01*
X170019100Y-110019685D01*
G37*
%TD.AperFunction*%
%TD*%
%TA.AperFunction,Conductor*%
%TO.N,AGND*%
G36*
X162567585Y-109004223D02*
G01*
X162598053Y-109012387D01*
X162627958Y-109024775D01*
X162637038Y-109030017D01*
X162637041Y-109030019D01*
X162637043Y-109030019D01*
X162637044Y-109030020D01*
X162713471Y-109050499D01*
X163667952Y-109050499D01*
X163702884Y-109055520D01*
X163728128Y-109062933D01*
X163780874Y-109094229D01*
X164927157Y-110240512D01*
X164927672Y-110240890D01*
X164930282Y-110242295D01*
X164995620Y-110280017D01*
X164995627Y-110280021D01*
X164995633Y-110280022D01*
X165003020Y-110283064D01*
X165002967Y-110283190D01*
X165024646Y-110292167D01*
X165026180Y-110293053D01*
X165026180Y-110293052D01*
X165038215Y-110300000D01*
X165050000Y-110300000D01*
X165056069Y-110300000D01*
X165064171Y-110300265D01*
X165066695Y-110300430D01*
X165067759Y-110300500D01*
X165072054Y-110300500D01*
X167108170Y-110300500D01*
X167143106Y-110305523D01*
X167158104Y-110309927D01*
X167216855Y-110347672D01*
X167218042Y-110349041D01*
X167245518Y-110403902D01*
X167247163Y-110411460D01*
X167250000Y-110437831D01*
X167250000Y-111821458D01*
X167230315Y-111888497D01*
X167177511Y-111934252D01*
X167117158Y-111945142D01*
X167108182Y-111944500D01*
X167108170Y-111944500D01*
X164786482Y-111944500D01*
X164719443Y-111924815D01*
X164698801Y-111908181D01*
X164286319Y-111495699D01*
X164252834Y-111434376D01*
X164250000Y-111408018D01*
X164250000Y-110250000D01*
X163500000Y-109500000D01*
X163341983Y-109500000D01*
X163274944Y-109480315D01*
X163254302Y-109463681D01*
X163239046Y-109448425D01*
X163239040Y-109448420D01*
X163198595Y-109417001D01*
X163198585Y-109416994D01*
X163145846Y-109385702D01*
X163145835Y-109385697D01*
X163098893Y-109365263D01*
X163098868Y-109365254D01*
X163073664Y-109357853D01*
X163073627Y-109357843D01*
X163044999Y-109351615D01*
X163044973Y-109351610D01*
X163010054Y-109346590D01*
X162994566Y-109345483D01*
X162980808Y-109344500D01*
X162980800Y-109344500D01*
X162487843Y-109344500D01*
X162487832Y-109344500D01*
X162476687Y-109345097D01*
X162465875Y-109345676D01*
X162459401Y-109346372D01*
X162439514Y-109348510D01*
X162422730Y-109351229D01*
X162417811Y-109352026D01*
X162417807Y-109352026D01*
X162417806Y-109352027D01*
X162410247Y-109353671D01*
X162410242Y-109353672D01*
X162410233Y-109353675D01*
X162361921Y-109370720D01*
X162361905Y-109370727D01*
X162307038Y-109398201D01*
X162307025Y-109398209D01*
X162264423Y-109426689D01*
X162264415Y-109426695D01*
X162263046Y-109427882D01*
X162237670Y-109457182D01*
X162218569Y-109469462D01*
X162202369Y-109485370D01*
X162188382Y-109488871D01*
X162178900Y-109494969D01*
X162164018Y-109494972D01*
X162143939Y-109500000D01*
X162141830Y-109500000D01*
X162106889Y-109494975D01*
X162091890Y-109490570D01*
X162033144Y-109452827D01*
X162031957Y-109451458D01*
X162004477Y-109396583D01*
X162002832Y-109389021D01*
X162000000Y-109362668D01*
X162000000Y-109141829D01*
X162005023Y-109106893D01*
X162009427Y-109091895D01*
X162017013Y-109080086D01*
X162020119Y-109066413D01*
X162035502Y-109051308D01*
X162047172Y-109033144D01*
X162048541Y-109031957D01*
X162062151Y-109025141D01*
X162069974Y-109017461D01*
X162082830Y-109014786D01*
X162103420Y-109004477D01*
X162110979Y-109002833D01*
X162137332Y-109000000D01*
X162535497Y-109000000D01*
X162567585Y-109004223D01*
G37*
%TD.AperFunction*%
%TD*%
%TA.AperFunction,Conductor*%
%TO.N,AGND*%
G36*
X168064542Y-112205065D02*
G01*
X168077816Y-112205500D01*
X168113518Y-112205500D01*
X168180557Y-112225185D01*
X168201199Y-112241819D01*
X170008181Y-114048801D01*
X170041666Y-114110124D01*
X170044500Y-114136482D01*
X170044500Y-115626000D01*
X170024815Y-115693039D01*
X169972011Y-115738794D01*
X169920500Y-115750000D01*
X167641830Y-115750000D01*
X167606889Y-115744975D01*
X167591890Y-115740570D01*
X167533144Y-115702827D01*
X167531957Y-115701458D01*
X167504477Y-115646583D01*
X167502832Y-115639021D01*
X167500000Y-115612668D01*
X167500000Y-112329500D01*
X167519685Y-112262461D01*
X167572489Y-112216706D01*
X167624000Y-112205500D01*
X167922171Y-112205500D01*
X167922184Y-112205500D01*
X167935457Y-112205065D01*
X167939482Y-112205000D01*
X168060518Y-112205000D01*
X168064542Y-112205065D01*
G37*
%TD.AperFunction*%
%TD*%
%TA.AperFunction,Conductor*%
%TO.N,/OUT_C*%
G36*
X159134832Y-103077416D02*
G01*
X159150000Y-103136842D01*
X159150000Y-103707669D01*
X159144975Y-103742613D01*
X159140570Y-103757611D01*
X159125000Y-103781844D01*
X159125000Y-103059410D01*
X159134832Y-103077416D01*
G37*
%TD.AperFunction*%
%TD*%
%TA.AperFunction,Conductor*%
%TO.N,+3.3V*%
G36*
X179499500Y-130496948D02*
G01*
X179499351Y-130503033D01*
X179482947Y-130836928D01*
X179481754Y-130849037D01*
X179433151Y-131176694D01*
X179430777Y-131188630D01*
X179350292Y-131509944D01*
X179346759Y-131521588D01*
X179235170Y-131833459D01*
X179230514Y-131844702D01*
X179088885Y-132144151D01*
X179083148Y-132154883D01*
X178912862Y-132438988D01*
X178906102Y-132449106D01*
X178708775Y-132715170D01*
X178701055Y-132724576D01*
X178478611Y-132970006D01*
X178470006Y-132978611D01*
X178224576Y-133201055D01*
X178215170Y-133208775D01*
X177949106Y-133406102D01*
X177938988Y-133412862D01*
X177654883Y-133583148D01*
X177644151Y-133588885D01*
X177344702Y-133730514D01*
X177333459Y-133735170D01*
X177021588Y-133846759D01*
X177009944Y-133850292D01*
X176688630Y-133930777D01*
X176676694Y-133933151D01*
X176349037Y-133981754D01*
X176336928Y-133982947D01*
X176021989Y-133998419D01*
X176003031Y-133999351D01*
X175996949Y-133999500D01*
X174124000Y-133999500D01*
X174056961Y-133979815D01*
X174011206Y-133927011D01*
X174000000Y-133875500D01*
X174000000Y-133413049D01*
X174019685Y-133346010D01*
X174072489Y-133300255D01*
X174141647Y-133290311D01*
X174167334Y-133296867D01*
X174292623Y-133343597D01*
X174292627Y-133343598D01*
X174352155Y-133349999D01*
X174352172Y-133350000D01*
X175000000Y-133350000D01*
X175000000Y-132433012D01*
X175057007Y-132465925D01*
X175184174Y-132500000D01*
X175315826Y-132500000D01*
X175442993Y-132465925D01*
X175500000Y-132433012D01*
X175500000Y-133350000D01*
X176147828Y-133350000D01*
X176147844Y-133349999D01*
X176207372Y-133343598D01*
X176207379Y-133343596D01*
X176342086Y-133293354D01*
X176342093Y-133293350D01*
X176457187Y-133207190D01*
X176457190Y-133207187D01*
X176543350Y-133092093D01*
X176543354Y-133092086D01*
X176593596Y-132957379D01*
X176593598Y-132957372D01*
X176599999Y-132897844D01*
X176600000Y-132897827D01*
X176600000Y-132250000D01*
X175683012Y-132250000D01*
X175715925Y-132192993D01*
X175750000Y-132065826D01*
X175750000Y-131934174D01*
X175715925Y-131807007D01*
X175683012Y-131750000D01*
X176600000Y-131750000D01*
X176600000Y-131102172D01*
X176599999Y-131102155D01*
X176593598Y-131042627D01*
X176593596Y-131042620D01*
X176543354Y-130907913D01*
X176543350Y-130907906D01*
X176457190Y-130792812D01*
X176457187Y-130792809D01*
X176342093Y-130706649D01*
X176342086Y-130706645D01*
X176207379Y-130656403D01*
X176207372Y-130656401D01*
X176147844Y-130650000D01*
X175500000Y-130650000D01*
X175500000Y-131566988D01*
X175442993Y-131534075D01*
X175315826Y-131500000D01*
X175184174Y-131500000D01*
X175057007Y-131534075D01*
X175000000Y-131566988D01*
X175000000Y-130650000D01*
X174352155Y-130650000D01*
X174292627Y-130656401D01*
X174292619Y-130656403D01*
X174167333Y-130703132D01*
X174097641Y-130708116D01*
X174036318Y-130674631D01*
X174002834Y-130613307D01*
X174000000Y-130586950D01*
X174000000Y-121500000D01*
X174000000Y-121250000D01*
X179499500Y-121250000D01*
X179499500Y-130496948D01*
G37*
%TD.AperFunction*%
%TD*%
%TA.AperFunction,Conductor*%
%TO.N,/SW_BK*%
G36*
X179392606Y-106005023D02*
G01*
X179407604Y-106009427D01*
X179466355Y-106047172D01*
X179467542Y-106048541D01*
X179495018Y-106103402D01*
X179496663Y-106110960D01*
X179499500Y-106137331D01*
X179499500Y-113170500D01*
X179479815Y-113237539D01*
X179427011Y-113283294D01*
X179375500Y-113294500D01*
X173977386Y-113294500D01*
X173910347Y-113274815D01*
X173893975Y-113262253D01*
X172337684Y-111847442D01*
X171497153Y-111083323D01*
X171460790Y-111023664D01*
X171462454Y-110953814D01*
X171466010Y-110944105D01*
X171466386Y-110943195D01*
X171466392Y-110943186D01*
X171500500Y-110815892D01*
X171500500Y-110684108D01*
X171466392Y-110556814D01*
X171466390Y-110556810D01*
X171441799Y-110514217D01*
X171437741Y-110507188D01*
X171437733Y-110507176D01*
X171400500Y-110442686D01*
X171307314Y-110349500D01*
X171255860Y-110319792D01*
X171255855Y-110319789D01*
X171248195Y-110315367D01*
X171248195Y-110315366D01*
X171248188Y-110315363D01*
X171230575Y-110305194D01*
X171193189Y-110283609D01*
X171193187Y-110283608D01*
X171193185Y-110283607D01*
X171099999Y-110258638D01*
X171065892Y-110249500D01*
X171065891Y-110249500D01*
X170934108Y-110249500D01*
X170806809Y-110283608D01*
X170769423Y-110305194D01*
X170701523Y-110321666D01*
X170635496Y-110298813D01*
X170624013Y-110289559D01*
X170173707Y-109880190D01*
X170160562Y-109869205D01*
X170144197Y-109856648D01*
X170144191Y-109856644D01*
X170077002Y-109822512D01*
X170076993Y-109822508D01*
X170009966Y-109802826D01*
X170009317Y-109802732D01*
X169952061Y-109794500D01*
X169952057Y-109794500D01*
X167770833Y-109794500D01*
X167703794Y-109774815D01*
X167687612Y-109761775D01*
X167687032Y-109761357D01*
X167685788Y-109760412D01*
X167683882Y-109759074D01*
X167681307Y-109757689D01*
X167616873Y-109720489D01*
X167616048Y-109720003D01*
X167615995Y-109719981D01*
X167615991Y-109719980D01*
X167615990Y-109719979D01*
X167590513Y-109713152D01*
X167590509Y-109713150D01*
X167539563Y-109699500D01*
X167539562Y-109699500D01*
X167539560Y-109699500D01*
X165305279Y-109699500D01*
X165270343Y-109694477D01*
X165245101Y-109687065D01*
X165192356Y-109655769D01*
X164854263Y-109317676D01*
X171200000Y-109317676D01*
X171200000Y-109522322D01*
X171230225Y-109713151D01*
X171232009Y-109724417D01*
X171295244Y-109919031D01*
X171314335Y-109956498D01*
X171388143Y-110101354D01*
X171396839Y-110113324D01*
X171401143Y-110119247D01*
X171428780Y-110137666D01*
X171963503Y-109602942D01*
X172024824Y-109569459D01*
X172094515Y-109574443D01*
X172150449Y-109616314D01*
X172158567Y-109628622D01*
X172179920Y-109665606D01*
X172254394Y-109740080D01*
X172254395Y-109740081D01*
X172254397Y-109740082D01*
X172291373Y-109761430D01*
X172339588Y-109811996D01*
X172352812Y-109880603D01*
X172326844Y-109945468D01*
X172317054Y-109956498D01*
X171774075Y-110499473D01*
X171774076Y-110499473D01*
X171774076Y-110499474D01*
X171818650Y-110531859D01*
X171867584Y-110556792D01*
X172000963Y-110624753D01*
X172000965Y-110624753D01*
X172000968Y-110624755D01*
X172195582Y-110687990D01*
X172397683Y-110720000D01*
X172602316Y-110720000D01*
X172602317Y-110720000D01*
X172804417Y-110687990D01*
X172999031Y-110624755D01*
X173181349Y-110531859D01*
X173225921Y-110499474D01*
X172682945Y-109956498D01*
X172649460Y-109895175D01*
X172654444Y-109825483D01*
X172696316Y-109769550D01*
X172708618Y-109761434D01*
X172745606Y-109740080D01*
X172820080Y-109665606D01*
X172841429Y-109628627D01*
X172891994Y-109580413D01*
X172960600Y-109567188D01*
X173025466Y-109593155D01*
X173036497Y-109602946D01*
X173579473Y-110145922D01*
X173579473Y-110145921D01*
X173579474Y-110145922D01*
X173579474Y-110145921D01*
X173592943Y-110140342D01*
X173599159Y-110119174D01*
X173603159Y-110113324D01*
X173611857Y-110101352D01*
X173685665Y-109956498D01*
X173704755Y-109919031D01*
X173767990Y-109724417D01*
X173800000Y-109522317D01*
X173800000Y-109317682D01*
X173767990Y-109115582D01*
X173704755Y-108920968D01*
X173704753Y-108920965D01*
X173704753Y-108920963D01*
X173611859Y-108738650D01*
X173603156Y-108726672D01*
X173593615Y-108699933D01*
X173579473Y-108694075D01*
X173036497Y-109237053D01*
X172975174Y-109270538D01*
X172905483Y-109265554D01*
X172849549Y-109223683D01*
X172841430Y-109211374D01*
X172820080Y-109174394D01*
X172745606Y-109099920D01*
X172708625Y-109078569D01*
X172660410Y-109028003D01*
X172647186Y-108959396D01*
X172673154Y-108894531D01*
X172682936Y-108883509D01*
X173225922Y-108340524D01*
X173225921Y-108340523D01*
X173225920Y-108340522D01*
X173225919Y-108340521D01*
X173225914Y-108340517D01*
X173181360Y-108308147D01*
X173181357Y-108308144D01*
X173116198Y-108274944D01*
X172999031Y-108215244D01*
X172804417Y-108152009D01*
X172804411Y-108152008D01*
X172602322Y-108120000D01*
X172602317Y-108120000D01*
X172397683Y-108120000D01*
X172397678Y-108120000D01*
X172195587Y-108152008D01*
X172195585Y-108152008D01*
X172195582Y-108152009D01*
X172098275Y-108183626D01*
X172000963Y-108215245D01*
X171818640Y-108308145D01*
X171774077Y-108340522D01*
X171774077Y-108340524D01*
X172317055Y-108883501D01*
X172350540Y-108944824D01*
X172345556Y-109014515D01*
X172303685Y-109070449D01*
X172291374Y-109078569D01*
X172254397Y-109099917D01*
X172254392Y-109099921D01*
X172179921Y-109174392D01*
X172179915Y-109174400D01*
X172158568Y-109211374D01*
X172108001Y-109259589D01*
X172039393Y-109272811D01*
X171974529Y-109246843D01*
X171963501Y-109237054D01*
X171420524Y-108694077D01*
X171420523Y-108694077D01*
X171420522Y-108694077D01*
X171388145Y-108738640D01*
X171295245Y-108920963D01*
X171266156Y-109010491D01*
X171232009Y-109115582D01*
X171232008Y-109115585D01*
X171232008Y-109115587D01*
X171200000Y-109317676D01*
X164854263Y-109317676D01*
X164760875Y-109224288D01*
X164739726Y-109196038D01*
X164734304Y-109186108D01*
X164719451Y-109117838D01*
X164743865Y-109052373D01*
X164799795Y-109010501D01*
X164803674Y-109009054D01*
X164807010Y-109007811D01*
X164850324Y-109000000D01*
X169500000Y-109000000D01*
X169500000Y-106141829D01*
X169505023Y-106106893D01*
X169509427Y-106091895D01*
X169547172Y-106033144D01*
X169548541Y-106031957D01*
X169603420Y-106004477D01*
X169610979Y-106002833D01*
X169637332Y-106000000D01*
X179357670Y-106000000D01*
X179392606Y-106005023D01*
G37*
%TD.AperFunction*%
%TD*%
%TA.AperFunction,Conductor*%
%TO.N,AGND*%
G36*
X162709181Y-108050501D02*
G01*
X162713471Y-108050501D01*
X163276000Y-108050501D01*
X163343039Y-108070186D01*
X163388794Y-108122990D01*
X163400000Y-108174501D01*
X163400000Y-108325499D01*
X163380315Y-108392538D01*
X163327511Y-108438293D01*
X163276000Y-108449499D01*
X162713471Y-108449499D01*
X162662519Y-108463151D01*
X162637043Y-108469978D01*
X162564865Y-108511650D01*
X162502867Y-108528262D01*
X162290105Y-108528262D01*
X162290097Y-108528263D01*
X162260787Y-108534092D01*
X162242888Y-108546052D01*
X162176210Y-108566928D01*
X162108830Y-108548442D01*
X162062142Y-108496462D01*
X162050000Y-108442948D01*
X162050000Y-108174000D01*
X162069685Y-108106961D01*
X162122489Y-108061206D01*
X162174000Y-108050000D01*
X162701539Y-108050000D01*
X162709181Y-108050501D01*
G37*
%TD.AperFunction*%
%TD*%
%TA.AperFunction,Conductor*%
%TO.N,/OUT_B*%
G36*
X160634832Y-103077416D02*
G01*
X160650000Y-103136842D01*
X160650000Y-103707669D01*
X160644975Y-103742613D01*
X160640570Y-103757611D01*
X160625000Y-103781844D01*
X160625000Y-103059410D01*
X160634832Y-103077416D01*
G37*
%TD.AperFunction*%
%TD*%
%TA.AperFunction,Conductor*%
%TO.N,PGND*%
G36*
X169237539Y-85869685D02*
G01*
X169283294Y-85922489D01*
X169294500Y-85974000D01*
X169294500Y-94862668D01*
X169295676Y-94884625D01*
X169295678Y-94884650D01*
X169298505Y-94910963D01*
X169302027Y-94932698D01*
X169303673Y-94940265D01*
X169320728Y-94988597D01*
X169348206Y-95043468D01*
X169348211Y-95043477D01*
X169376689Y-95086076D01*
X169377885Y-95087456D01*
X169422060Y-95125716D01*
X169422065Y-95125719D01*
X169480811Y-95163462D01*
X169499995Y-95172222D01*
X169499999Y-95172224D01*
X169500000Y-95172224D01*
X169500000Y-95375000D01*
X162500000Y-95375000D01*
X162500000Y-89883909D01*
X165525000Y-89883909D01*
X165525000Y-90116089D01*
X165545811Y-90247489D01*
X165561318Y-90345393D01*
X165633065Y-90566205D01*
X165738465Y-90773064D01*
X165795238Y-90851207D01*
X166282924Y-90363520D01*
X166344245Y-90330037D01*
X166413936Y-90335021D01*
X166469870Y-90376892D01*
X166473691Y-90382292D01*
X166495112Y-90414351D01*
X166495116Y-90414355D01*
X166495116Y-90414356D01*
X166585646Y-90504886D01*
X166617684Y-90526293D01*
X166662489Y-90579906D01*
X166671196Y-90649231D01*
X166641041Y-90712258D01*
X166636474Y-90717076D01*
X166148791Y-91204758D01*
X166148791Y-91204759D01*
X166148791Y-91204760D01*
X166226935Y-91261534D01*
X166433794Y-91366934D01*
X166654606Y-91438681D01*
X166883910Y-91475000D01*
X167116089Y-91475000D01*
X167116090Y-91475000D01*
X167345393Y-91438681D01*
X167566205Y-91366934D01*
X167773071Y-91261530D01*
X167851207Y-91204762D01*
X167851208Y-91204760D01*
X167851207Y-91204758D01*
X167363524Y-90717076D01*
X167330039Y-90655753D01*
X167335023Y-90586062D01*
X167376894Y-90530128D01*
X167382270Y-90526323D01*
X167414351Y-90504888D01*
X167504888Y-90414351D01*
X167526295Y-90382312D01*
X167579903Y-90337510D01*
X167649227Y-90328801D01*
X167712256Y-90358955D01*
X167717076Y-90363524D01*
X168204758Y-90851207D01*
X168204760Y-90851208D01*
X168204762Y-90851207D01*
X168261530Y-90773071D01*
X168366934Y-90566205D01*
X168438681Y-90345393D01*
X168475000Y-90116090D01*
X168475000Y-89883909D01*
X168438681Y-89654606D01*
X168366934Y-89433794D01*
X168261534Y-89226935D01*
X168204760Y-89148791D01*
X168204759Y-89148791D01*
X168204758Y-89148791D01*
X167717076Y-89636474D01*
X167655753Y-89669959D01*
X167586061Y-89664975D01*
X167530128Y-89623103D01*
X167526293Y-89617684D01*
X167504886Y-89585646D01*
X167414356Y-89495116D01*
X167414352Y-89495113D01*
X167414351Y-89495112D01*
X167382310Y-89473703D01*
X167337507Y-89420091D01*
X167328800Y-89350766D01*
X167358955Y-89287739D01*
X167363500Y-89282943D01*
X167851207Y-88795238D01*
X167773064Y-88738465D01*
X167566205Y-88633065D01*
X167345393Y-88561318D01*
X167345391Y-88561317D01*
X167345390Y-88561317D01*
X167169244Y-88533418D01*
X167116090Y-88525000D01*
X167116089Y-88525000D01*
X166883905Y-88525000D01*
X166654609Y-88561317D01*
X166433791Y-88633066D01*
X166226926Y-88738469D01*
X166226922Y-88738471D01*
X166148790Y-88795237D01*
X166636475Y-89282922D01*
X166669960Y-89344245D01*
X166664976Y-89413937D01*
X166623104Y-89469870D01*
X166617688Y-89473703D01*
X166585648Y-89495112D01*
X166585643Y-89495116D01*
X166495116Y-89585643D01*
X166495112Y-89585648D01*
X166473703Y-89617688D01*
X166420090Y-89662491D01*
X166350764Y-89671197D01*
X166287738Y-89641040D01*
X166282922Y-89636475D01*
X165795238Y-89148791D01*
X165795237Y-89148791D01*
X165738471Y-89226922D01*
X165738469Y-89226926D01*
X165633066Y-89433791D01*
X165561317Y-89654609D01*
X165525000Y-89883909D01*
X162500000Y-89883909D01*
X162500000Y-85991829D01*
X162505023Y-85956893D01*
X162509427Y-85941895D01*
X162547172Y-85883144D01*
X162548541Y-85881957D01*
X162603420Y-85854477D01*
X162610979Y-85852833D01*
X162637332Y-85850000D01*
X169170500Y-85850000D01*
X169237539Y-85869685D01*
G37*
%TD.AperFunction*%
%TD*%
%TA.AperFunction,Conductor*%
%TO.N,+24V*%
G36*
X167000000Y-100897676D02*
G01*
X167000000Y-103350000D01*
X165912491Y-103350000D01*
X165905849Y-103349822D01*
X165871833Y-103347997D01*
X165853526Y-103349500D01*
X165196125Y-103349500D01*
X165189026Y-103347415D01*
X165144156Y-103349822D01*
X165137515Y-103350000D01*
X164700000Y-103350000D01*
X164700000Y-103787493D01*
X164699822Y-103794141D01*
X164698024Y-103827621D01*
X164699500Y-103846122D01*
X164699500Y-105153509D01*
X164697396Y-105160671D01*
X164699822Y-105205841D01*
X164700000Y-105212489D01*
X164700000Y-105685124D01*
X164694976Y-105720061D01*
X164687564Y-105745302D01*
X164656270Y-105798045D01*
X164603743Y-105850573D01*
X164575490Y-105871724D01*
X164552405Y-105884330D01*
X164492976Y-105899499D01*
X162702599Y-105899499D01*
X162699012Y-105899734D01*
X162690901Y-105900000D01*
X162542330Y-105900000D01*
X162507389Y-105894975D01*
X162492390Y-105890570D01*
X162433644Y-105852827D01*
X162432457Y-105851458D01*
X162404977Y-105796583D01*
X162403332Y-105789021D01*
X162400500Y-105762668D01*
X162400500Y-104791829D01*
X162405523Y-104756893D01*
X162409927Y-104741895D01*
X162447672Y-104683144D01*
X162449041Y-104681957D01*
X162503920Y-104654477D01*
X162511479Y-104652833D01*
X162537832Y-104650000D01*
X163550000Y-104650000D01*
X163550000Y-100691829D01*
X163555023Y-100656893D01*
X163559427Y-100641895D01*
X163597172Y-100583144D01*
X163598541Y-100581957D01*
X163653420Y-100554477D01*
X163660979Y-100552833D01*
X163687332Y-100550000D01*
X167000000Y-100550000D01*
X167000000Y-100897676D01*
G37*
%TD.AperFunction*%
%TD*%
%TA.AperFunction,Conductor*%
%TO.N,/OUT_A*%
G36*
X162068106Y-85830023D02*
G01*
X162083104Y-85834427D01*
X162141855Y-85872172D01*
X162143042Y-85873541D01*
X162170518Y-85928402D01*
X162172163Y-85935960D01*
X162175000Y-85962331D01*
X162175000Y-103757669D01*
X162169975Y-103792613D01*
X162165570Y-103807611D01*
X162127827Y-103866354D01*
X162126458Y-103867541D01*
X162071597Y-103895017D01*
X162064039Y-103896662D01*
X162037668Y-103899499D01*
X161516830Y-103899499D01*
X161481889Y-103894474D01*
X161466890Y-103890069D01*
X161408144Y-103852326D01*
X161406957Y-103850957D01*
X161379477Y-103796082D01*
X161377832Y-103788520D01*
X161375000Y-103762167D01*
X161375000Y-100900467D01*
X161380023Y-100865531D01*
X161389441Y-100833457D01*
X161401027Y-100806400D01*
X161466392Y-100693186D01*
X161500500Y-100565892D01*
X161500500Y-100434108D01*
X161466392Y-100306814D01*
X161405483Y-100201317D01*
X161397217Y-100184038D01*
X161383338Y-100148133D01*
X161375000Y-100103429D01*
X161375000Y-97400467D01*
X161380023Y-97365531D01*
X161389441Y-97333457D01*
X161401027Y-97306400D01*
X161466392Y-97193186D01*
X161500500Y-97065892D01*
X161500500Y-96934108D01*
X161466392Y-96806814D01*
X161405483Y-96701317D01*
X161397217Y-96684038D01*
X161383338Y-96648133D01*
X161375000Y-96603429D01*
X161375000Y-93475000D01*
X155766830Y-93475000D01*
X155731889Y-93469975D01*
X155716890Y-93465570D01*
X155658144Y-93427827D01*
X155656957Y-93426458D01*
X155629477Y-93371583D01*
X155627832Y-93364021D01*
X155625000Y-93337668D01*
X155625000Y-89883909D01*
X156025000Y-89883909D01*
X156025000Y-90116090D01*
X156061318Y-90345393D01*
X156133065Y-90566205D01*
X156238465Y-90773064D01*
X156295238Y-90851207D01*
X156782924Y-90363520D01*
X156844245Y-90330037D01*
X156913936Y-90335021D01*
X156969870Y-90376892D01*
X156973691Y-90382292D01*
X156995112Y-90414351D01*
X156995116Y-90414355D01*
X156995116Y-90414356D01*
X157085646Y-90504886D01*
X157117684Y-90526293D01*
X157162489Y-90579906D01*
X157171196Y-90649231D01*
X157141041Y-90712258D01*
X157136474Y-90717076D01*
X156648791Y-91204758D01*
X156648791Y-91204759D01*
X156648791Y-91204760D01*
X156726935Y-91261534D01*
X156933794Y-91366934D01*
X157154606Y-91438681D01*
X157383910Y-91475000D01*
X157616089Y-91475000D01*
X157616090Y-91475000D01*
X157845393Y-91438681D01*
X158066205Y-91366934D01*
X158273071Y-91261530D01*
X158351207Y-91204762D01*
X158351208Y-91204760D01*
X158351207Y-91204758D01*
X157863524Y-90717076D01*
X157830039Y-90655753D01*
X157835023Y-90586062D01*
X157876894Y-90530128D01*
X157882270Y-90526323D01*
X157914351Y-90504888D01*
X158004888Y-90414351D01*
X158026295Y-90382312D01*
X158079903Y-90337510D01*
X158149227Y-90328801D01*
X158212256Y-90358955D01*
X158217076Y-90363524D01*
X158704758Y-90851207D01*
X158704760Y-90851208D01*
X158704762Y-90851207D01*
X158761530Y-90773071D01*
X158866934Y-90566205D01*
X158938681Y-90345393D01*
X158975000Y-90116090D01*
X158975000Y-89883909D01*
X158938681Y-89654606D01*
X158866934Y-89433794D01*
X158761534Y-89226935D01*
X158704760Y-89148791D01*
X158704759Y-89148791D01*
X158704758Y-89148791D01*
X158217076Y-89636474D01*
X158155753Y-89669959D01*
X158086061Y-89664975D01*
X158030128Y-89623103D01*
X158026293Y-89617684D01*
X158004886Y-89585646D01*
X157914356Y-89495116D01*
X157914352Y-89495113D01*
X157914351Y-89495112D01*
X157882310Y-89473703D01*
X157837507Y-89420091D01*
X157828800Y-89350766D01*
X157858955Y-89287739D01*
X157863500Y-89282943D01*
X158351207Y-88795238D01*
X158273064Y-88738465D01*
X158066205Y-88633065D01*
X157845393Y-88561318D01*
X157845391Y-88561317D01*
X157845390Y-88561317D01*
X157669244Y-88533418D01*
X157616090Y-88525000D01*
X157616089Y-88525000D01*
X157383905Y-88525000D01*
X157154609Y-88561317D01*
X156933791Y-88633066D01*
X156726926Y-88738469D01*
X156726922Y-88738471D01*
X156648790Y-88795237D01*
X157136475Y-89282922D01*
X157169960Y-89344245D01*
X157164976Y-89413937D01*
X157123104Y-89469870D01*
X157117688Y-89473703D01*
X157085648Y-89495112D01*
X157085643Y-89495116D01*
X156995116Y-89585643D01*
X156995112Y-89585648D01*
X156973703Y-89617688D01*
X156920090Y-89662491D01*
X156850764Y-89671197D01*
X156787738Y-89641040D01*
X156782922Y-89636475D01*
X156295238Y-89148791D01*
X156295237Y-89148791D01*
X156238471Y-89226922D01*
X156238469Y-89226926D01*
X156133066Y-89433791D01*
X156061317Y-89654609D01*
X156045811Y-89752511D01*
X156025000Y-89883909D01*
X155625000Y-89883909D01*
X155625000Y-85966829D01*
X155630023Y-85931893D01*
X155634427Y-85916895D01*
X155672172Y-85858144D01*
X155673541Y-85856957D01*
X155728420Y-85829477D01*
X155735979Y-85827833D01*
X155762332Y-85825000D01*
X162033170Y-85825000D01*
X162068106Y-85830023D01*
G37*
%TD.AperFunction*%
%TD*%
%TA.AperFunction,Conductor*%
%TO.N,PGND*%
G36*
X155363497Y-85844685D02*
G01*
X155409252Y-85897489D01*
X155420142Y-85957842D01*
X155419500Y-85966816D01*
X155419500Y-85966829D01*
X155419500Y-93337668D01*
X155420676Y-93359625D01*
X155420678Y-93359650D01*
X155423505Y-93385963D01*
X155427027Y-93407698D01*
X155428673Y-93415265D01*
X155445728Y-93463597D01*
X155473206Y-93518468D01*
X155473211Y-93518477D01*
X155501689Y-93561076D01*
X155502885Y-93562456D01*
X155547060Y-93600716D01*
X155547065Y-93600719D01*
X155605811Y-93638462D01*
X155658983Y-93662743D01*
X155673982Y-93667148D01*
X155702636Y-93673382D01*
X155737577Y-93678407D01*
X155766830Y-93680500D01*
X161045500Y-93680500D01*
X161112539Y-93700185D01*
X161158294Y-93752989D01*
X161169500Y-93804500D01*
X161169500Y-96603440D01*
X161172983Y-96641099D01*
X161172985Y-96641118D01*
X161181320Y-96685804D01*
X161181321Y-96685809D01*
X161191660Y-96722227D01*
X161191661Y-96722230D01*
X161205542Y-96758139D01*
X161211835Y-96772718D01*
X161220099Y-96789993D01*
X161227518Y-96804073D01*
X161266733Y-96871995D01*
X161279119Y-96901898D01*
X161290774Y-96945392D01*
X161295000Y-96977485D01*
X161295000Y-97022510D01*
X161290774Y-97054606D01*
X161279119Y-97098099D01*
X161266733Y-97128002D01*
X161223052Y-97203661D01*
X161212120Y-97225503D01*
X161200532Y-97252564D01*
X161200525Y-97252581D01*
X161192271Y-97275542D01*
X161192267Y-97275556D01*
X161182848Y-97307629D01*
X161182845Y-97307640D01*
X161176615Y-97336279D01*
X161171592Y-97371220D01*
X161169500Y-97400467D01*
X161169500Y-100103440D01*
X161172983Y-100141099D01*
X161172985Y-100141118D01*
X161181320Y-100185804D01*
X161181321Y-100185809D01*
X161191660Y-100222227D01*
X161191661Y-100222230D01*
X161205542Y-100258139D01*
X161211835Y-100272718D01*
X161220099Y-100289993D01*
X161227518Y-100304073D01*
X161266733Y-100371995D01*
X161279119Y-100401898D01*
X161290774Y-100445392D01*
X161295000Y-100477485D01*
X161295000Y-100522510D01*
X161290774Y-100554606D01*
X161279119Y-100598099D01*
X161266733Y-100628002D01*
X161223052Y-100703661D01*
X161212120Y-100725503D01*
X161200532Y-100752564D01*
X161200525Y-100752581D01*
X161192271Y-100775542D01*
X161192267Y-100775556D01*
X161182848Y-100807629D01*
X161182845Y-100807640D01*
X161176615Y-100836279D01*
X161171592Y-100871220D01*
X161169500Y-100900467D01*
X161169500Y-103762164D01*
X161169859Y-103768876D01*
X161153783Y-103836871D01*
X161103498Y-103885381D01*
X161046036Y-103899499D01*
X161023650Y-103899499D01*
X160956611Y-103879814D01*
X160910856Y-103827010D01*
X160900912Y-103757852D01*
X160900913Y-103757846D01*
X160902897Y-103744051D01*
X160902897Y-103744048D01*
X160902899Y-103744036D01*
X160905500Y-103707669D01*
X160905500Y-103136842D01*
X160897563Y-103073654D01*
X160882395Y-103014228D01*
X160859079Y-102954968D01*
X160849247Y-102936962D01*
X160849246Y-102936961D01*
X160847125Y-102933076D01*
X160848404Y-102932377D01*
X160830500Y-102871381D01*
X160830500Y-100896569D01*
X160828155Y-100871222D01*
X160827012Y-100858862D01*
X160818666Y-100814143D01*
X160808326Y-100777735D01*
X160794443Y-100741829D01*
X160788143Y-100727239D01*
X160788138Y-100727227D01*
X160779885Y-100709979D01*
X160779344Y-100708953D01*
X160772472Y-100695912D01*
X160745927Y-100649935D01*
X160745926Y-100649932D01*
X160733263Y-100627999D01*
X160720878Y-100598098D01*
X160715052Y-100576354D01*
X160715052Y-100576353D01*
X160709225Y-100554605D01*
X160705000Y-100522513D01*
X160705000Y-100477485D01*
X160709225Y-100445393D01*
X160720880Y-100401894D01*
X160733266Y-100371990D01*
X160776935Y-100296356D01*
X160787874Y-100274505D01*
X160799463Y-100247444D01*
X160807731Y-100224447D01*
X160811725Y-100210844D01*
X160817143Y-100192399D01*
X160817149Y-100192376D01*
X160818579Y-100185804D01*
X160823384Y-100163719D01*
X160828408Y-100128780D01*
X160830500Y-100099531D01*
X160830500Y-97396564D01*
X160827012Y-97358862D01*
X160818666Y-97314143D01*
X160808326Y-97277735D01*
X160794443Y-97241829D01*
X160788143Y-97227239D01*
X160788138Y-97227227D01*
X160779885Y-97209979D01*
X160779344Y-97208953D01*
X160772472Y-97195912D01*
X160745927Y-97149935D01*
X160745926Y-97149932D01*
X160733263Y-97127999D01*
X160720878Y-97098098D01*
X160715052Y-97076354D01*
X160715052Y-97076353D01*
X160709225Y-97054605D01*
X160705000Y-97022513D01*
X160705000Y-96977485D01*
X160709225Y-96945393D01*
X160720880Y-96901894D01*
X160733266Y-96871990D01*
X160776935Y-96796356D01*
X160787874Y-96774505D01*
X160799463Y-96747444D01*
X160807731Y-96724447D01*
X160811725Y-96710844D01*
X160817143Y-96692399D01*
X160817149Y-96692376D01*
X160818579Y-96685804D01*
X160823384Y-96663719D01*
X160828408Y-96628780D01*
X160830500Y-96599531D01*
X160830500Y-94362331D01*
X160829321Y-94340350D01*
X160826484Y-94313979D01*
X160822962Y-94292256D01*
X160821317Y-94284698D01*
X160816769Y-94271812D01*
X160804263Y-94236379D01*
X160790685Y-94209269D01*
X160776786Y-94181517D01*
X160748306Y-94138918D01*
X160748302Y-94138912D01*
X160747120Y-94137550D01*
X160702931Y-94099277D01*
X160702927Y-94099274D01*
X160644187Y-94061536D01*
X160644175Y-94061530D01*
X160591003Y-94037251D01*
X160590999Y-94037250D01*
X160576025Y-94032853D01*
X160575994Y-94032845D01*
X160547357Y-94026615D01*
X160512415Y-94021592D01*
X160512417Y-94021592D01*
X160483170Y-94019500D01*
X154904500Y-94019500D01*
X154837461Y-93999815D01*
X154791706Y-93947011D01*
X154780500Y-93895500D01*
X154780500Y-85961809D01*
X154780500Y-85961791D01*
X154780170Y-85955578D01*
X154796270Y-85887588D01*
X154846573Y-85839097D01*
X154903995Y-85825000D01*
X155296458Y-85825000D01*
X155363497Y-85844685D01*
G37*
%TD.AperFunction*%
%TD*%
%TA.AperFunction,Conductor*%
%TO.N,PGND*%
G36*
X169519892Y-95235715D02*
G01*
X169519893Y-95235715D01*
X169519894Y-95235716D01*
X169534893Y-95240121D01*
X169534900Y-95240122D01*
X169534902Y-95240123D01*
X169570504Y-95247870D01*
X169570519Y-95247873D01*
X169605460Y-95252898D01*
X169641830Y-95255500D01*
X175120500Y-95255500D01*
X175187539Y-95275185D01*
X175233294Y-95327989D01*
X175244500Y-95379500D01*
X175244500Y-99070500D01*
X175224815Y-99137539D01*
X175172011Y-99183294D01*
X175120500Y-99194500D01*
X169715569Y-99194500D01*
X169655417Y-99201683D01*
X169655412Y-99201683D01*
X169598657Y-99215434D01*
X169541881Y-99236581D01*
X169541879Y-99236582D01*
X169517991Y-99248880D01*
X169517984Y-99248884D01*
X169486855Y-99267832D01*
X169458104Y-99288279D01*
X169458079Y-99288299D01*
X169429972Y-99311477D01*
X169429966Y-99311483D01*
X169029404Y-99692973D01*
X168433717Y-100260293D01*
X168371596Y-100292273D01*
X168348200Y-100294500D01*
X163687331Y-100294500D01*
X163660028Y-100295963D01*
X163649333Y-100297113D01*
X163633670Y-100298797D01*
X163606680Y-100303170D01*
X163599121Y-100304814D01*
X163599116Y-100304815D01*
X163599106Y-100304818D01*
X163539029Y-100326015D01*
X163539012Y-100326022D01*
X163484152Y-100353493D01*
X163484138Y-100353501D01*
X163431168Y-100388912D01*
X163431160Y-100388918D01*
X163429792Y-100390105D01*
X163382211Y-100445041D01*
X163382208Y-100445045D01*
X163344472Y-100503783D01*
X163344461Y-100503802D01*
X163314277Y-100569908D01*
X163309873Y-100584903D01*
X163309873Y-100584907D01*
X163302123Y-100620533D01*
X163297101Y-100655466D01*
X163294500Y-100691829D01*
X163294500Y-104226000D01*
X163274815Y-104293039D01*
X163222011Y-104338794D01*
X163170500Y-104350000D01*
X162641830Y-104350000D01*
X162606889Y-104344975D01*
X162591890Y-104340570D01*
X162533144Y-104302827D01*
X162531957Y-104301458D01*
X162504477Y-104246583D01*
X162502832Y-104239021D01*
X162500000Y-104212668D01*
X162500000Y-97397676D01*
X170450000Y-97397676D01*
X170450000Y-97602322D01*
X170482008Y-97804411D01*
X170482009Y-97804417D01*
X170545244Y-97999031D01*
X170564335Y-98036498D01*
X170638144Y-98181357D01*
X170638147Y-98181360D01*
X170670517Y-98225914D01*
X170670521Y-98225919D01*
X170670523Y-98225921D01*
X170670524Y-98225922D01*
X171213503Y-97682942D01*
X171274824Y-97649459D01*
X171344515Y-97654443D01*
X171400449Y-97696314D01*
X171408567Y-97708622D01*
X171429920Y-97745606D01*
X171504394Y-97820080D01*
X171504395Y-97820081D01*
X171504397Y-97820082D01*
X171541373Y-97841430D01*
X171589588Y-97891996D01*
X171602812Y-97960603D01*
X171576844Y-98025468D01*
X171567054Y-98036498D01*
X171024075Y-98579473D01*
X171024076Y-98579473D01*
X171024076Y-98579474D01*
X171068650Y-98611859D01*
X171154786Y-98655747D01*
X171250963Y-98704753D01*
X171250965Y-98704753D01*
X171250968Y-98704755D01*
X171445582Y-98767990D01*
X171647683Y-98800000D01*
X171852316Y-98800000D01*
X171852317Y-98800000D01*
X172054417Y-98767990D01*
X172249031Y-98704755D01*
X172431349Y-98611859D01*
X172475921Y-98579474D01*
X171932945Y-98036498D01*
X171899460Y-97975175D01*
X171904444Y-97905483D01*
X171946316Y-97849550D01*
X171958618Y-97841434D01*
X171995606Y-97820080D01*
X172070080Y-97745606D01*
X172091430Y-97708625D01*
X172141995Y-97660411D01*
X172210602Y-97647187D01*
X172275467Y-97673154D01*
X172286498Y-97682945D01*
X172829473Y-98225920D01*
X172829474Y-98225921D01*
X172861859Y-98181349D01*
X172954755Y-97999031D01*
X173017990Y-97804417D01*
X173050000Y-97602317D01*
X173050000Y-97397682D01*
X173017990Y-97195582D01*
X172954755Y-97000968D01*
X172954753Y-97000965D01*
X172954753Y-97000963D01*
X172861859Y-96818650D01*
X172853156Y-96806672D01*
X172843615Y-96779933D01*
X172829473Y-96774075D01*
X172286497Y-97317053D01*
X172225174Y-97350538D01*
X172155483Y-97345554D01*
X172099549Y-97303683D01*
X172091430Y-97291374D01*
X172070080Y-97254394D01*
X171995606Y-97179920D01*
X171958625Y-97158569D01*
X171910410Y-97108003D01*
X171897186Y-97039396D01*
X171923154Y-96974531D01*
X171932936Y-96963509D01*
X172475922Y-96420524D01*
X172475921Y-96420523D01*
X172475920Y-96420522D01*
X172475919Y-96420521D01*
X172475914Y-96420517D01*
X172431360Y-96388147D01*
X172431357Y-96388144D01*
X172366198Y-96354944D01*
X172249031Y-96295244D01*
X172054417Y-96232009D01*
X172054411Y-96232008D01*
X171852322Y-96200000D01*
X171852317Y-96200000D01*
X171647683Y-96200000D01*
X171647678Y-96200000D01*
X171445587Y-96232008D01*
X171445585Y-96232008D01*
X171445582Y-96232009D01*
X171348275Y-96263626D01*
X171250963Y-96295245D01*
X171068640Y-96388145D01*
X171024077Y-96420522D01*
X171024077Y-96420524D01*
X171567055Y-96963501D01*
X171600540Y-97024824D01*
X171595556Y-97094515D01*
X171553685Y-97150449D01*
X171541374Y-97158569D01*
X171504397Y-97179917D01*
X171504392Y-97179921D01*
X171429921Y-97254392D01*
X171429915Y-97254400D01*
X171408568Y-97291374D01*
X171358001Y-97339589D01*
X171289393Y-97352811D01*
X171224529Y-97326843D01*
X171213501Y-97317054D01*
X170670524Y-96774077D01*
X170670523Y-96774077D01*
X170670522Y-96774077D01*
X170638145Y-96818640D01*
X170545245Y-97000963D01*
X170514848Y-97094515D01*
X170482009Y-97195582D01*
X170482008Y-97195585D01*
X170482008Y-97195587D01*
X170450000Y-97397676D01*
X162500000Y-97397676D01*
X162500000Y-95375000D01*
X169500000Y-95375000D01*
X169500000Y-95226631D01*
X169519892Y-95235715D01*
G37*
%TD.AperFunction*%
%TD*%
%TA.AperFunction,Conductor*%
%TO.N,/OUT_C*%
G36*
X149568106Y-85755523D02*
G01*
X149583104Y-85759927D01*
X149641855Y-85797672D01*
X149643042Y-85799041D01*
X149670518Y-85853902D01*
X149672163Y-85861460D01*
X149675000Y-85887831D01*
X149675000Y-96275000D01*
X158983170Y-96275000D01*
X159018106Y-96280023D01*
X159033104Y-96284427D01*
X159091855Y-96322172D01*
X159093042Y-96323541D01*
X159120518Y-96378402D01*
X159122163Y-96385960D01*
X159125000Y-96412331D01*
X159125000Y-96599531D01*
X159119976Y-96634470D01*
X159110557Y-96666544D01*
X159098968Y-96693605D01*
X159033609Y-96806808D01*
X158999500Y-96934108D01*
X158999500Y-97065890D01*
X159033608Y-97193188D01*
X159067959Y-97252684D01*
X159067959Y-97252685D01*
X159094504Y-97298662D01*
X159102771Y-97315939D01*
X159116654Y-97351845D01*
X159125000Y-97396564D01*
X159125000Y-100099531D01*
X159119976Y-100134470D01*
X159110557Y-100166544D01*
X159098968Y-100193605D01*
X159033609Y-100306808D01*
X158999500Y-100434108D01*
X158999500Y-100565890D01*
X159033608Y-100693188D01*
X159067959Y-100752684D01*
X159067959Y-100752685D01*
X159094504Y-100798662D01*
X159102771Y-100815939D01*
X159116654Y-100851845D01*
X159125000Y-100896564D01*
X159125000Y-103842024D01*
X159107195Y-103862570D01*
X159102289Y-103866822D01*
X159101418Y-103867577D01*
X159046597Y-103895017D01*
X159039039Y-103896662D01*
X159012668Y-103899499D01*
X158541830Y-103899499D01*
X158506889Y-103894474D01*
X158491890Y-103890069D01*
X158433144Y-103852326D01*
X158431957Y-103850957D01*
X158404477Y-103796082D01*
X158402832Y-103788520D01*
X158400000Y-103762167D01*
X158400000Y-97500000D01*
X145166830Y-97500000D01*
X145131889Y-97494975D01*
X145116890Y-97490570D01*
X145058144Y-97452827D01*
X145056957Y-97451458D01*
X145029477Y-97396583D01*
X145027832Y-97389021D01*
X145025000Y-97362668D01*
X145025000Y-89883909D01*
X146025000Y-89883909D01*
X146025000Y-90116090D01*
X146061318Y-90345393D01*
X146133065Y-90566205D01*
X146238465Y-90773064D01*
X146295238Y-90851207D01*
X146782924Y-90363520D01*
X146844245Y-90330037D01*
X146913936Y-90335021D01*
X146969870Y-90376892D01*
X146973691Y-90382292D01*
X146995112Y-90414351D01*
X146995116Y-90414355D01*
X146995116Y-90414356D01*
X147085646Y-90504886D01*
X147117684Y-90526293D01*
X147162489Y-90579906D01*
X147171196Y-90649231D01*
X147141041Y-90712258D01*
X147136474Y-90717076D01*
X146648791Y-91204758D01*
X146648791Y-91204759D01*
X146648791Y-91204760D01*
X146726935Y-91261534D01*
X146933794Y-91366934D01*
X147154606Y-91438681D01*
X147383910Y-91475000D01*
X147616089Y-91475000D01*
X147616090Y-91475000D01*
X147845393Y-91438681D01*
X148066205Y-91366934D01*
X148273071Y-91261530D01*
X148351207Y-91204762D01*
X148351208Y-91204760D01*
X148351207Y-91204758D01*
X147863524Y-90717076D01*
X147830039Y-90655753D01*
X147835023Y-90586062D01*
X147876894Y-90530128D01*
X147882270Y-90526323D01*
X147914351Y-90504888D01*
X148004888Y-90414351D01*
X148026295Y-90382312D01*
X148079903Y-90337510D01*
X148149227Y-90328801D01*
X148212256Y-90358955D01*
X148217076Y-90363524D01*
X148704758Y-90851207D01*
X148704760Y-90851208D01*
X148704762Y-90851207D01*
X148761530Y-90773071D01*
X148866934Y-90566205D01*
X148938681Y-90345393D01*
X148975000Y-90116090D01*
X148975000Y-89883909D01*
X148938681Y-89654606D01*
X148866934Y-89433794D01*
X148761534Y-89226935D01*
X148704760Y-89148791D01*
X148704759Y-89148791D01*
X148704758Y-89148791D01*
X148217076Y-89636474D01*
X148155753Y-89669959D01*
X148086061Y-89664975D01*
X148030128Y-89623103D01*
X148026293Y-89617684D01*
X148004886Y-89585646D01*
X147914356Y-89495116D01*
X147914352Y-89495113D01*
X147914351Y-89495112D01*
X147882310Y-89473703D01*
X147837507Y-89420091D01*
X147828800Y-89350766D01*
X147858955Y-89287739D01*
X147863500Y-89282943D01*
X148351207Y-88795238D01*
X148273064Y-88738465D01*
X148066205Y-88633065D01*
X147845393Y-88561318D01*
X147845391Y-88561317D01*
X147845390Y-88561317D01*
X147669244Y-88533418D01*
X147616090Y-88525000D01*
X147616089Y-88525000D01*
X147383905Y-88525000D01*
X147154609Y-88561317D01*
X146933791Y-88633066D01*
X146726926Y-88738469D01*
X146726922Y-88738471D01*
X146648790Y-88795237D01*
X147136475Y-89282922D01*
X147169960Y-89344245D01*
X147164976Y-89413937D01*
X147123104Y-89469870D01*
X147117688Y-89473703D01*
X147085648Y-89495112D01*
X147085643Y-89495116D01*
X146995116Y-89585643D01*
X146995112Y-89585648D01*
X146973703Y-89617688D01*
X146920090Y-89662491D01*
X146850764Y-89671197D01*
X146787738Y-89641040D01*
X146782922Y-89636475D01*
X146295238Y-89148791D01*
X146295237Y-89148791D01*
X146238471Y-89226922D01*
X146238469Y-89226926D01*
X146133066Y-89433791D01*
X146061317Y-89654609D01*
X146045811Y-89752511D01*
X146025000Y-89883909D01*
X145025000Y-89883909D01*
X145025000Y-85892329D01*
X145030023Y-85857393D01*
X145034427Y-85842395D01*
X145072172Y-85783644D01*
X145073541Y-85782457D01*
X145128420Y-85754977D01*
X145135979Y-85753333D01*
X145162332Y-85750500D01*
X149533170Y-85750500D01*
X149568106Y-85755523D01*
G37*
%TD.AperFunction*%
%TD*%
%TA.AperFunction,Conductor*%
%TO.N,/OUT_B*%
G36*
X154433603Y-85824508D02*
G01*
X154468514Y-85829649D01*
X154483499Y-85834106D01*
X154542143Y-85872079D01*
X154543412Y-85873554D01*
X154570621Y-85928269D01*
X154572211Y-85935638D01*
X154575000Y-85961791D01*
X154575000Y-94225000D01*
X160483170Y-94225000D01*
X160518106Y-94230023D01*
X160533104Y-94234427D01*
X160591855Y-94272172D01*
X160593042Y-94273541D01*
X160620518Y-94328402D01*
X160622163Y-94335960D01*
X160625000Y-94362331D01*
X160625000Y-96599531D01*
X160619976Y-96634470D01*
X160610557Y-96666544D01*
X160598968Y-96693605D01*
X160533609Y-96806808D01*
X160533608Y-96806812D01*
X160499500Y-96934108D01*
X160499500Y-97065891D01*
X160516554Y-97129539D01*
X160533608Y-97193188D01*
X160567959Y-97252684D01*
X160567959Y-97252685D01*
X160594504Y-97298662D01*
X160602771Y-97315939D01*
X160616654Y-97351845D01*
X160625000Y-97396564D01*
X160625000Y-100099531D01*
X160619976Y-100134470D01*
X160610557Y-100166544D01*
X160598968Y-100193605D01*
X160533609Y-100306808D01*
X160533608Y-100306812D01*
X160499500Y-100434108D01*
X160499500Y-100565891D01*
X160516554Y-100629539D01*
X160533608Y-100693188D01*
X160567959Y-100752684D01*
X160567959Y-100752685D01*
X160594504Y-100798662D01*
X160602771Y-100815939D01*
X160616654Y-100851845D01*
X160625000Y-100896564D01*
X160625000Y-103842024D01*
X160607195Y-103862570D01*
X160602289Y-103866822D01*
X160601418Y-103867577D01*
X160546597Y-103895017D01*
X160539039Y-103896662D01*
X160512668Y-103899499D01*
X160041830Y-103899499D01*
X160006889Y-103894474D01*
X159991890Y-103890069D01*
X159933144Y-103852326D01*
X159931957Y-103850957D01*
X159904477Y-103796082D01*
X159902832Y-103788520D01*
X159900000Y-103762167D01*
X159900000Y-100857729D01*
X159904223Y-100825642D01*
X159912387Y-100795170D01*
X159924775Y-100765268D01*
X159966389Y-100693191D01*
X159966388Y-100693191D01*
X159966392Y-100693186D01*
X160000500Y-100565892D01*
X160000500Y-100434108D01*
X159966392Y-100306814D01*
X159924775Y-100234732D01*
X159912388Y-100204825D01*
X159904225Y-100174359D01*
X159900000Y-100142267D01*
X159900000Y-97357729D01*
X159904223Y-97325642D01*
X159912387Y-97295170D01*
X159924775Y-97265268D01*
X159966389Y-97193191D01*
X159966388Y-97193191D01*
X159966392Y-97193186D01*
X160000500Y-97065892D01*
X160000500Y-96934108D01*
X159966392Y-96806814D01*
X159924775Y-96734732D01*
X159912388Y-96704825D01*
X159904225Y-96674359D01*
X159900000Y-96642267D01*
X159900000Y-95500000D01*
X150691830Y-95500000D01*
X150656889Y-95494975D01*
X150641890Y-95490570D01*
X150583144Y-95452827D01*
X150581957Y-95451458D01*
X150554477Y-95396583D01*
X150552832Y-95389021D01*
X150550000Y-95362668D01*
X150550000Y-89883909D01*
X151025000Y-89883909D01*
X151025000Y-90116089D01*
X151045811Y-90247489D01*
X151061318Y-90345393D01*
X151133065Y-90566205D01*
X151238465Y-90773064D01*
X151295238Y-90851207D01*
X151782924Y-90363520D01*
X151844245Y-90330037D01*
X151913936Y-90335021D01*
X151969870Y-90376892D01*
X151973691Y-90382292D01*
X151995112Y-90414351D01*
X151995116Y-90414355D01*
X151995116Y-90414356D01*
X152085646Y-90504886D01*
X152117684Y-90526293D01*
X152162489Y-90579906D01*
X152171196Y-90649231D01*
X152141041Y-90712258D01*
X152136474Y-90717076D01*
X151648791Y-91204758D01*
X151648791Y-91204759D01*
X151648791Y-91204760D01*
X151726935Y-91261534D01*
X151933794Y-91366934D01*
X152154606Y-91438681D01*
X152383910Y-91475000D01*
X152616089Y-91475000D01*
X152616090Y-91475000D01*
X152845393Y-91438681D01*
X153066205Y-91366934D01*
X153273071Y-91261530D01*
X153351207Y-91204762D01*
X153351208Y-91204760D01*
X153351207Y-91204758D01*
X152863524Y-90717076D01*
X152830039Y-90655753D01*
X152835023Y-90586062D01*
X152876894Y-90530128D01*
X152882270Y-90526323D01*
X152914351Y-90504888D01*
X153004888Y-90414351D01*
X153026295Y-90382312D01*
X153079903Y-90337510D01*
X153149227Y-90328801D01*
X153212256Y-90358955D01*
X153217076Y-90363524D01*
X153704758Y-90851207D01*
X153704760Y-90851208D01*
X153704762Y-90851207D01*
X153761530Y-90773071D01*
X153866934Y-90566205D01*
X153938681Y-90345393D01*
X153975000Y-90116090D01*
X153975000Y-89883909D01*
X153938681Y-89654606D01*
X153866934Y-89433794D01*
X153761534Y-89226935D01*
X153704760Y-89148791D01*
X153704759Y-89148791D01*
X153704758Y-89148791D01*
X153217076Y-89636474D01*
X153155753Y-89669959D01*
X153086061Y-89664975D01*
X153030128Y-89623103D01*
X153026293Y-89617684D01*
X153004886Y-89585646D01*
X152914356Y-89495116D01*
X152914352Y-89495113D01*
X152914351Y-89495112D01*
X152882310Y-89473703D01*
X152837507Y-89420091D01*
X152828800Y-89350766D01*
X152858955Y-89287739D01*
X152863500Y-89282943D01*
X153351207Y-88795238D01*
X153273064Y-88738465D01*
X153066205Y-88633065D01*
X152845393Y-88561318D01*
X152845391Y-88561317D01*
X152845390Y-88561317D01*
X152669244Y-88533418D01*
X152616090Y-88525000D01*
X152616089Y-88525000D01*
X152383905Y-88525000D01*
X152154609Y-88561317D01*
X151933791Y-88633066D01*
X151726926Y-88738469D01*
X151726922Y-88738471D01*
X151648790Y-88795237D01*
X152136475Y-89282922D01*
X152169960Y-89344245D01*
X152164976Y-89413937D01*
X152123104Y-89469870D01*
X152117688Y-89473703D01*
X152085648Y-89495112D01*
X152085643Y-89495116D01*
X151995116Y-89585643D01*
X151995112Y-89585648D01*
X151973703Y-89617688D01*
X151920090Y-89662491D01*
X151850764Y-89671197D01*
X151787738Y-89641040D01*
X151782922Y-89636475D01*
X151295238Y-89148791D01*
X151295237Y-89148791D01*
X151238471Y-89226922D01*
X151238469Y-89226926D01*
X151133066Y-89433791D01*
X151061317Y-89654609D01*
X151025000Y-89883909D01*
X150550000Y-89883909D01*
X150550000Y-85953283D01*
X150555023Y-85918347D01*
X150559427Y-85903349D01*
X150597154Y-85844613D01*
X150597299Y-85844487D01*
X150598438Y-85843499D01*
X150653538Y-85815961D01*
X150661299Y-85814287D01*
X150687866Y-85811501D01*
X154433603Y-85824508D01*
G37*
%TD.AperFunction*%
%TD*%
%TA.AperFunction,Conductor*%
%TO.N,+24V*%
G36*
X175500000Y-105744500D02*
G01*
X169637331Y-105744500D01*
X169610028Y-105745963D01*
X169599333Y-105747113D01*
X169583670Y-105748797D01*
X169556680Y-105753170D01*
X169549121Y-105754814D01*
X169549116Y-105754815D01*
X169549106Y-105754818D01*
X169489029Y-105776015D01*
X169489012Y-105776022D01*
X169434152Y-105803493D01*
X169434134Y-105803503D01*
X169382168Y-105838243D01*
X169315496Y-105859136D01*
X169315443Y-105859137D01*
X167144013Y-105897458D01*
X167108992Y-105893051D01*
X167093918Y-105888912D01*
X167034498Y-105852196D01*
X167033675Y-105851279D01*
X167005001Y-105795844D01*
X167003067Y-105787317D01*
X167000000Y-105759907D01*
X167000000Y-103350000D01*
X167000000Y-100897676D01*
X170450000Y-100897676D01*
X170450000Y-101102322D01*
X170482008Y-101304411D01*
X170482009Y-101304417D01*
X170545244Y-101499031D01*
X170564335Y-101536498D01*
X170638144Y-101681357D01*
X170638147Y-101681360D01*
X170670517Y-101725914D01*
X170670521Y-101725919D01*
X170670523Y-101725921D01*
X170670524Y-101725922D01*
X171213503Y-101182942D01*
X171274824Y-101149459D01*
X171344515Y-101154443D01*
X171400449Y-101196314D01*
X171408567Y-101208622D01*
X171429920Y-101245606D01*
X171504394Y-101320080D01*
X171504395Y-101320081D01*
X171504397Y-101320082D01*
X171541373Y-101341430D01*
X171589588Y-101391996D01*
X171602812Y-101460603D01*
X171576844Y-101525468D01*
X171567054Y-101536498D01*
X171024075Y-102079473D01*
X171024076Y-102079473D01*
X171024076Y-102079474D01*
X171068650Y-102111859D01*
X171154786Y-102155747D01*
X171250963Y-102204753D01*
X171250965Y-102204753D01*
X171250968Y-102204755D01*
X171445582Y-102267990D01*
X171647683Y-102300000D01*
X171852316Y-102300000D01*
X171852317Y-102300000D01*
X172054417Y-102267990D01*
X172249031Y-102204755D01*
X172431349Y-102111859D01*
X172475921Y-102079474D01*
X171932945Y-101536498D01*
X171899460Y-101475175D01*
X171904444Y-101405483D01*
X171946316Y-101349550D01*
X171958618Y-101341434D01*
X171995606Y-101320080D01*
X172070080Y-101245606D01*
X172091430Y-101208625D01*
X172141995Y-101160411D01*
X172210602Y-101147187D01*
X172275467Y-101173154D01*
X172286498Y-101182945D01*
X172829473Y-101725920D01*
X172829474Y-101725921D01*
X172861859Y-101681349D01*
X172954755Y-101499031D01*
X173017990Y-101304417D01*
X173050000Y-101102317D01*
X173050000Y-100897682D01*
X173017990Y-100695582D01*
X172954755Y-100500968D01*
X172954753Y-100500965D01*
X172954753Y-100500963D01*
X172861859Y-100318650D01*
X172853156Y-100306672D01*
X172843615Y-100279933D01*
X172829473Y-100274075D01*
X172286497Y-100817053D01*
X172225174Y-100850538D01*
X172155483Y-100845554D01*
X172099549Y-100803683D01*
X172091430Y-100791374D01*
X172070080Y-100754394D01*
X171995606Y-100679920D01*
X171958625Y-100658569D01*
X171910410Y-100608003D01*
X171897186Y-100539396D01*
X171923154Y-100474531D01*
X171932936Y-100463509D01*
X172475922Y-99920524D01*
X172475921Y-99920523D01*
X172475920Y-99920522D01*
X172475919Y-99920521D01*
X172475914Y-99920517D01*
X172431360Y-99888147D01*
X172431357Y-99888144D01*
X172366198Y-99854944D01*
X172249031Y-99795244D01*
X172054417Y-99732009D01*
X172054411Y-99732008D01*
X171852322Y-99700000D01*
X171852317Y-99700000D01*
X171647683Y-99700000D01*
X171647678Y-99700000D01*
X171445587Y-99732008D01*
X171445585Y-99732008D01*
X171445582Y-99732009D01*
X171348275Y-99763626D01*
X171250963Y-99795245D01*
X171068640Y-99888145D01*
X171024077Y-99920522D01*
X171024077Y-99920524D01*
X171567055Y-100463501D01*
X171600540Y-100524824D01*
X171595556Y-100594515D01*
X171553685Y-100650449D01*
X171541374Y-100658569D01*
X171504397Y-100679917D01*
X171504392Y-100679921D01*
X171429921Y-100754392D01*
X171429915Y-100754400D01*
X171408568Y-100791374D01*
X171358001Y-100839589D01*
X171289393Y-100852811D01*
X171224529Y-100826843D01*
X171213501Y-100817054D01*
X170670524Y-100274077D01*
X170670523Y-100274077D01*
X170670522Y-100274077D01*
X170638145Y-100318640D01*
X170545245Y-100500963D01*
X170529312Y-100550000D01*
X170482009Y-100695582D01*
X170482008Y-100695585D01*
X170482008Y-100695587D01*
X170450000Y-100897676D01*
X167000000Y-100897676D01*
X167000000Y-100550000D01*
X168500000Y-100550000D01*
X169205611Y-99877990D01*
X169606175Y-99496499D01*
X169634931Y-99476048D01*
X169658823Y-99463749D01*
X169715575Y-99450000D01*
X175500000Y-99450000D01*
X175500000Y-105744500D01*
G37*
%TD.AperFunction*%
%TD*%
%TA.AperFunction,Conductor*%
%TO.N,PGND*%
G36*
X150238597Y-85829754D02*
G01*
X150284352Y-85882558D01*
X150295241Y-85942917D01*
X150294500Y-85953283D01*
X150294500Y-85953288D01*
X150294500Y-95362674D01*
X150295960Y-95389938D01*
X150295962Y-95389966D01*
X150298794Y-95416324D01*
X150298795Y-95416329D01*
X150303165Y-95443296D01*
X150303173Y-95443342D01*
X150304814Y-95450886D01*
X150326023Y-95510990D01*
X150353499Y-95565857D01*
X150353504Y-95565866D01*
X150388912Y-95618831D01*
X150388914Y-95618834D01*
X150388916Y-95618836D01*
X150390103Y-95620205D01*
X150445038Y-95667785D01*
X150503784Y-95705528D01*
X150569892Y-95735715D01*
X150569893Y-95735715D01*
X150569894Y-95735716D01*
X150584893Y-95740121D01*
X150584900Y-95740122D01*
X150584902Y-95740123D01*
X150620504Y-95747870D01*
X150620519Y-95747873D01*
X150655460Y-95752898D01*
X150691830Y-95755500D01*
X159520500Y-95755500D01*
X159587539Y-95775185D01*
X159633294Y-95827989D01*
X159644500Y-95879500D01*
X159644500Y-96642267D01*
X159646013Y-96665355D01*
X159646686Y-96675621D01*
X159650911Y-96707709D01*
X159657427Y-96740475D01*
X159657430Y-96740487D01*
X159665586Y-96770929D01*
X159665596Y-96770959D01*
X159676332Y-96802590D01*
X159676340Y-96802611D01*
X159688722Y-96832504D01*
X159703506Y-96862484D01*
X159720140Y-96891295D01*
X159721572Y-96897197D01*
X159725549Y-96901788D01*
X159732527Y-96921198D01*
X159740774Y-96951973D01*
X159745000Y-96984070D01*
X159745000Y-97015928D01*
X159740775Y-97048021D01*
X159732529Y-97078796D01*
X159725452Y-97090405D01*
X159720141Y-97108703D01*
X159703512Y-97137505D01*
X159688727Y-97167483D01*
X159676340Y-97197383D01*
X159665593Y-97229042D01*
X159657428Y-97259518D01*
X159650907Y-97292301D01*
X159646684Y-97324383D01*
X159646684Y-97324390D01*
X159644500Y-97357729D01*
X159644500Y-100142267D01*
X159646013Y-100165355D01*
X159646686Y-100175621D01*
X159650911Y-100207709D01*
X159657427Y-100240475D01*
X159657430Y-100240487D01*
X159665586Y-100270929D01*
X159665596Y-100270959D01*
X159676332Y-100302590D01*
X159676340Y-100302611D01*
X159688722Y-100332504D01*
X159703506Y-100362484D01*
X159720140Y-100391295D01*
X159721572Y-100397197D01*
X159725549Y-100401788D01*
X159732527Y-100421198D01*
X159740774Y-100451973D01*
X159745000Y-100484070D01*
X159745000Y-100515928D01*
X159740775Y-100548021D01*
X159732529Y-100578796D01*
X159725452Y-100590405D01*
X159720141Y-100608703D01*
X159703512Y-100637505D01*
X159688727Y-100667483D01*
X159676340Y-100697383D01*
X159665593Y-100729042D01*
X159657428Y-100759518D01*
X159650907Y-100792301D01*
X159646684Y-100824383D01*
X159646684Y-100824390D01*
X159645028Y-100849680D01*
X159644500Y-100857736D01*
X159644500Y-103057435D01*
X159624815Y-103124474D01*
X159572011Y-103170229D01*
X159502853Y-103180173D01*
X159439297Y-103151148D01*
X159401523Y-103092370D01*
X159398413Y-103077438D01*
X159398285Y-103077463D01*
X159397564Y-103073667D01*
X159397563Y-103073654D01*
X159384352Y-103021894D01*
X159380500Y-102991228D01*
X159380500Y-100896569D01*
X159380500Y-100896564D01*
X159376163Y-100849689D01*
X159367817Y-100804970D01*
X159354961Y-100759704D01*
X159341078Y-100723798D01*
X159333245Y-100705658D01*
X159329285Y-100697383D01*
X159324987Y-100688400D01*
X159324978Y-100688381D01*
X159315773Y-100670911D01*
X159292359Y-100630357D01*
X159292351Y-100630341D01*
X159279861Y-100608710D01*
X159267470Y-100578794D01*
X159259224Y-100548014D01*
X159255000Y-100515926D01*
X159255000Y-100484069D01*
X159259224Y-100451980D01*
X159259226Y-100451973D01*
X159267473Y-100421190D01*
X159279858Y-100391290D01*
X159320236Y-100321357D01*
X159333836Y-100294189D01*
X159345425Y-100267128D01*
X159350821Y-100252118D01*
X159355695Y-100238564D01*
X159355699Y-100238551D01*
X159355705Y-100238535D01*
X159365124Y-100206461D01*
X159372875Y-100170835D01*
X159377899Y-100135896D01*
X159380500Y-100099531D01*
X159380500Y-97396564D01*
X159376163Y-97349689D01*
X159367817Y-97304970D01*
X159354961Y-97259704D01*
X159341078Y-97223798D01*
X159333245Y-97205658D01*
X159329285Y-97197383D01*
X159324987Y-97188400D01*
X159324978Y-97188381D01*
X159315773Y-97170911D01*
X159292359Y-97130357D01*
X159292351Y-97130341D01*
X159279861Y-97108710D01*
X159267470Y-97078794D01*
X159259224Y-97048014D01*
X159255000Y-97015926D01*
X159255000Y-96984069D01*
X159259224Y-96951980D01*
X159259226Y-96951973D01*
X159267473Y-96921190D01*
X159279858Y-96891290D01*
X159320236Y-96821357D01*
X159333836Y-96794189D01*
X159345425Y-96767128D01*
X159350821Y-96752118D01*
X159355695Y-96738564D01*
X159355699Y-96738551D01*
X159355705Y-96738535D01*
X159365124Y-96706461D01*
X159372875Y-96670835D01*
X159377899Y-96635896D01*
X159380500Y-96599531D01*
X159380500Y-96412331D01*
X159379034Y-96385002D01*
X159376197Y-96358631D01*
X159371818Y-96331623D01*
X159370173Y-96324065D01*
X159364518Y-96308044D01*
X159348969Y-96263988D01*
X159335391Y-96236878D01*
X159321492Y-96209126D01*
X159286083Y-96156163D01*
X159286079Y-96156157D01*
X159284898Y-96154796D01*
X159229957Y-96107211D01*
X159229953Y-96107208D01*
X159171215Y-96069472D01*
X159171212Y-96069470D01*
X159171207Y-96069467D01*
X159171203Y-96069465D01*
X159171196Y-96069461D01*
X159105090Y-96039277D01*
X159090093Y-96034873D01*
X159054465Y-96027123D01*
X159019532Y-96022101D01*
X158983170Y-96019500D01*
X150054500Y-96019500D01*
X149987461Y-95999815D01*
X149941706Y-95947011D01*
X149930500Y-95895500D01*
X149930500Y-85934069D01*
X149950185Y-85867030D01*
X150002989Y-85821275D01*
X150054500Y-85810069D01*
X150171558Y-85810069D01*
X150238597Y-85829754D01*
G37*
%TD.AperFunction*%
%TD*%
%TA.AperFunction,Conductor*%
%TO.N,+24V*%
G36*
X175998426Y-85750535D02*
G01*
X176001512Y-85750611D01*
X176004463Y-85750718D01*
X176333916Y-85766904D01*
X176339916Y-85767346D01*
X176346061Y-85767951D01*
X176352002Y-85768684D01*
X176452146Y-85783539D01*
X176673695Y-85816403D01*
X176679669Y-85817439D01*
X176685639Y-85818626D01*
X176691568Y-85819958D01*
X177006997Y-85898969D01*
X177012864Y-85900592D01*
X177018679Y-85902357D01*
X177024442Y-85904262D01*
X177092787Y-85928716D01*
X177092795Y-85928718D01*
X177092806Y-85928722D01*
X177330649Y-86013824D01*
X177336244Y-86015982D01*
X177341885Y-86018318D01*
X177347404Y-86020763D01*
X177641419Y-86159822D01*
X177646823Y-86162541D01*
X177652223Y-86165428D01*
X177657456Y-86168393D01*
X177936382Y-86335575D01*
X177941500Y-86338815D01*
X177946578Y-86342208D01*
X177951541Y-86345703D01*
X178212726Y-86539412D01*
X178217524Y-86543157D01*
X178222225Y-86547015D01*
X178226833Y-86550990D01*
X178467760Y-86769353D01*
X178472168Y-86773550D01*
X178476449Y-86777831D01*
X178480646Y-86782239D01*
X178665755Y-86986475D01*
X178699008Y-87023164D01*
X178702974Y-87027761D01*
X178705754Y-87031148D01*
X178706850Y-87032484D01*
X178710586Y-87037272D01*
X178904295Y-87298457D01*
X178907802Y-87303437D01*
X178911170Y-87308478D01*
X178914423Y-87313616D01*
X179041776Y-87526092D01*
X179081579Y-87592499D01*
X179084569Y-87597776D01*
X179087440Y-87603145D01*
X179090187Y-87608600D01*
X179229211Y-87902542D01*
X179231683Y-87908121D01*
X179234015Y-87913753D01*
X179236191Y-87919395D01*
X179345733Y-88225543D01*
X179347634Y-88231297D01*
X179349399Y-88237111D01*
X179351030Y-88243001D01*
X179430037Y-88558415D01*
X179431370Y-88564352D01*
X179432557Y-88570319D01*
X179433598Y-88576318D01*
X179481306Y-88897944D01*
X179482051Y-88903983D01*
X179482648Y-88910044D01*
X179483096Y-88916114D01*
X179499276Y-89245451D01*
X179499387Y-89248476D01*
X179499462Y-89251514D01*
X179499500Y-89254574D01*
X179499500Y-105608170D01*
X179494475Y-105643114D01*
X179490070Y-105658112D01*
X179452327Y-105716855D01*
X179450958Y-105718042D01*
X179396097Y-105745518D01*
X179388539Y-105747163D01*
X179362168Y-105750000D01*
X175500000Y-105750000D01*
X175500000Y-95000000D01*
X169641830Y-95000000D01*
X169606889Y-94994975D01*
X169591890Y-94990570D01*
X169533144Y-94952827D01*
X169531957Y-94951458D01*
X169504477Y-94896583D01*
X169502832Y-94889021D01*
X169500000Y-94862668D01*
X169500000Y-89883909D01*
X170525000Y-89883909D01*
X170525000Y-90116089D01*
X170545811Y-90247489D01*
X170561318Y-90345393D01*
X170633065Y-90566205D01*
X170738465Y-90773064D01*
X170795238Y-90851207D01*
X171282924Y-90363520D01*
X171344245Y-90330037D01*
X171413936Y-90335021D01*
X171469870Y-90376892D01*
X171473691Y-90382292D01*
X171495112Y-90414351D01*
X171495116Y-90414355D01*
X171495116Y-90414356D01*
X171585646Y-90504886D01*
X171617684Y-90526293D01*
X171662489Y-90579906D01*
X171671196Y-90649231D01*
X171641041Y-90712258D01*
X171636474Y-90717076D01*
X171148791Y-91204758D01*
X171148791Y-91204759D01*
X171148791Y-91204760D01*
X171226935Y-91261534D01*
X171433794Y-91366934D01*
X171654606Y-91438681D01*
X171883910Y-91475000D01*
X172116089Y-91475000D01*
X172116090Y-91475000D01*
X172345393Y-91438681D01*
X172566205Y-91366934D01*
X172773071Y-91261530D01*
X172851207Y-91204762D01*
X172851208Y-91204760D01*
X172851207Y-91204758D01*
X172363524Y-90717076D01*
X172330039Y-90655753D01*
X172335023Y-90586062D01*
X172376894Y-90530128D01*
X172382270Y-90526323D01*
X172414351Y-90504888D01*
X172504888Y-90414351D01*
X172526295Y-90382312D01*
X172579903Y-90337510D01*
X172649227Y-90328801D01*
X172712256Y-90358955D01*
X172717076Y-90363524D01*
X173204758Y-90851207D01*
X173204760Y-90851208D01*
X173204762Y-90851207D01*
X173261530Y-90773071D01*
X173366934Y-90566205D01*
X173438681Y-90345393D01*
X173475000Y-90116090D01*
X173475000Y-89883909D01*
X173438681Y-89654606D01*
X173366934Y-89433794D01*
X173261534Y-89226935D01*
X173204760Y-89148791D01*
X173204759Y-89148791D01*
X173204758Y-89148791D01*
X172717076Y-89636474D01*
X172655753Y-89669959D01*
X172586061Y-89664975D01*
X172530128Y-89623103D01*
X172526293Y-89617684D01*
X172504886Y-89585646D01*
X172414356Y-89495116D01*
X172414352Y-89495113D01*
X172414351Y-89495112D01*
X172382310Y-89473703D01*
X172337507Y-89420091D01*
X172328800Y-89350766D01*
X172358955Y-89287739D01*
X172363500Y-89282943D01*
X172851207Y-88795238D01*
X172773064Y-88738465D01*
X172566205Y-88633065D01*
X172345393Y-88561318D01*
X172345391Y-88561317D01*
X172345390Y-88561317D01*
X172169244Y-88533418D01*
X172116090Y-88525000D01*
X172116089Y-88525000D01*
X171883905Y-88525000D01*
X171654609Y-88561317D01*
X171433791Y-88633066D01*
X171226926Y-88738469D01*
X171226922Y-88738471D01*
X171148790Y-88795237D01*
X171636475Y-89282922D01*
X171669960Y-89344245D01*
X171664976Y-89413937D01*
X171623104Y-89469870D01*
X171617688Y-89473703D01*
X171585648Y-89495112D01*
X171585643Y-89495116D01*
X171495116Y-89585643D01*
X171495112Y-89585648D01*
X171473703Y-89617688D01*
X171420090Y-89662491D01*
X171350764Y-89671197D01*
X171287738Y-89641040D01*
X171282922Y-89636475D01*
X170795238Y-89148791D01*
X170795237Y-89148791D01*
X170738471Y-89226922D01*
X170738469Y-89226926D01*
X170633066Y-89433791D01*
X170561317Y-89654609D01*
X170525000Y-89883909D01*
X169500000Y-89883909D01*
X169500000Y-85892329D01*
X169505023Y-85857393D01*
X169509427Y-85842395D01*
X169547172Y-85783644D01*
X169548541Y-85782457D01*
X169603420Y-85754977D01*
X169610979Y-85753333D01*
X169637332Y-85750500D01*
X175995454Y-85750500D01*
X175998426Y-85750535D01*
G37*
%TD.AperFunction*%
%TD*%
M02*
