%TF.GenerationSoftware,KiCad,Pcbnew,10.0.6*%
%TF.CreationDate,2026-09-07T00:38:57-04:00*%
%TF.ProjectId,uwmtr-thruster-control-board-hw,75776d74-722d-4746-9872-75737465722d,rev?*%
%TF.SameCoordinates,Original*%
%TF.FileFunction,Soldermask,Top*%
%TF.FilePolarity,Negative*%
%FSLAX46Y46*%
G04 Gerber Fmt 4.6, Leading zero omitted, Abs format (unit mm)*
G04 Created by KiCad (PCBNEW 10.0.6) date 2026-09-07 00:38:57*
%MOMM*%
%LPD*%
G01*
G04 APERTURE LIST*
G04 Aperture macros list*
%AMRoundRect*
0 Rectangle with rounded corners*
0 $1 Rounding radius*
0 $2 $3 $4 $5 $6 $7 $8 $9 X,Y pos of 4 corners*
0 Add a 4 corners polygon primitive as box body*
4,1,4,$2,$3,$4,$5,$6,$7,$8,$9,$2,$3,0*
0 Add four circle primitives for the rounded corners*
1,1,$1+$1,$2,$3*
1,1,$1+$1,$4,$5*
1,1,$1+$1,$6,$7*
1,1,$1+$1,$8,$9*
0 Add four rect primitives between the rounded corners*
20,1,$1+$1,$2,$3,$4,$5,0*
20,1,$1+$1,$4,$5,$6,$7,0*
20,1,$1+$1,$6,$7,$8,$9,0*
20,1,$1+$1,$8,$9,$2,$3,0*%
G04 Aperture macros list end*
%ADD10RoundRect,0.250000X-0.625000X0.312500X-0.625000X-0.312500X0.625000X-0.312500X0.625000X0.312500X0*%
%ADD11RoundRect,0.250000X-0.325000X-0.650000X0.325000X-0.650000X0.325000X0.650000X-0.325000X0.650000X0*%
%ADD12C,2.154000*%
%ADD13C,1.600000*%
%ADD14RoundRect,0.250000X-0.312500X-0.625000X0.312500X-0.625000X0.312500X0.625000X-0.312500X0.625000X0*%
%ADD15RoundRect,0.250000X0.312500X0.625000X-0.312500X0.625000X-0.312500X-0.625000X0.312500X-0.625000X0*%
%ADD16RoundRect,0.250000X-0.650000X0.325000X-0.650000X-0.325000X0.650000X-0.325000X0.650000X0.325000X0*%
%ADD17R,1.700000X1.700000*%
%ADD18C,1.700000*%
%ADD19RoundRect,0.250000X0.325000X0.650000X-0.325000X0.650000X-0.325000X-0.650000X0.325000X-0.650000X0*%
%ADD20R,0.906066X0.242473*%
%ADD21R,0.242473X0.906066*%
%ADD22R,3.800000X5.800001*%
G04 APERTURE END LIST*
D10*
%TO.C,1206W4F5101T5E3*%
X151750000Y-113537500D03*
X151750000Y-116462500D03*
%TD*%
D11*
%TO.C,1206B473K500NT1*%
X165525000Y-107250000D03*
X168475000Y-107250000D03*
%TD*%
D12*
%TO.C,J3*%
X172000000Y-90000000D03*
X167000000Y-90000000D03*
%TD*%
D13*
%TO.C,KM107M050F12RR0VH2FP1*%
X171750000Y-101000000D03*
X171750000Y-97500000D03*
%TD*%
D14*
%TO.C,1206W4F5101T5E2*%
X162037500Y-116250000D03*
X164962500Y-116250000D03*
%TD*%
D15*
%TO.C,1206W4F5101T5E1*%
X152212500Y-104250000D03*
X149287500Y-104250000D03*
%TD*%
D16*
%TO.C,CS3216X5R226K160NRI1*%
X168500000Y-111025000D03*
X168500000Y-113975000D03*
%TD*%
D17*
%TO.C,J1*%
X175250000Y-132000000D03*
D18*
X172710000Y-132000000D03*
X170170000Y-132000000D03*
X167630000Y-132000000D03*
X165090000Y-132000000D03*
X162550000Y-132000000D03*
X160010000Y-132000000D03*
X157470000Y-132000000D03*
X154930000Y-132000000D03*
X152390000Y-132000000D03*
X149850000Y-132000000D03*
X147310000Y-132000000D03*
X144770000Y-132000000D03*
%TD*%
D10*
%TO.C,1206W4F5101T5E4*%
X148250000Y-113537500D03*
X148250000Y-116462500D03*
%TD*%
D16*
%TO.C,CL31B104KCFNNNE1*%
X165750000Y-99025000D03*
X165750000Y-101975000D03*
%TD*%
%TO.C,CL31B105KAHNNNE3*%
X166000000Y-111025000D03*
X166000000Y-113975000D03*
%TD*%
D19*
%TO.C,CL31B105KAHNNNE1*%
X168475000Y-104500000D03*
X165525000Y-104500000D03*
%TD*%
D16*
%TO.C,CL31B105KAHNNNE2*%
X154500000Y-104275000D03*
X154500000Y-107225000D03*
%TD*%
D20*
%TO.C,U1*%
X162753033Y-109750000D03*
X162753033Y-109250001D03*
X162753033Y-108749999D03*
X162753033Y-108250000D03*
X162753033Y-107750001D03*
X162753033Y-107250000D03*
X162753033Y-106750000D03*
X162753033Y-106249999D03*
X162753033Y-105750000D03*
X162753033Y-105250001D03*
X162753033Y-104749999D03*
X162753033Y-104250000D03*
D21*
X161999999Y-103496967D03*
X161500000Y-103496967D03*
X161000001Y-103496967D03*
X160500000Y-103496967D03*
X160000000Y-103496967D03*
X159499999Y-103496967D03*
X159000000Y-103496967D03*
X158500001Y-103496967D03*
D20*
X157746967Y-104250000D03*
X157746967Y-104749999D03*
X157746967Y-105250001D03*
X157746967Y-105750000D03*
X157746967Y-106249999D03*
X157746967Y-106750000D03*
X157746967Y-107250000D03*
X157746967Y-107750001D03*
X157746967Y-108250000D03*
X157746967Y-108749999D03*
X157746967Y-109250001D03*
X157746967Y-109750000D03*
D21*
X158500001Y-110503033D03*
X159000000Y-110503033D03*
X159499999Y-110503033D03*
X160000000Y-110503033D03*
X160500000Y-110503033D03*
X161000001Y-110503033D03*
X161500000Y-110503033D03*
X161999999Y-110503033D03*
D22*
X160250000Y-107000000D03*
%TD*%
D12*
%TO.C,J2*%
X157500000Y-90000000D03*
X152500000Y-90000000D03*
X147500000Y-90000000D03*
%TD*%
D13*
%TO.C,R1*%
X172500000Y-109420000D03*
X172500000Y-119580000D03*
%TD*%
M02*
