%TF.GenerationSoftware,KiCad,Pcbnew,10.0.6*%
%TF.CreationDate,2026-09-07T00:38:57-04:00*%
%TF.ProjectId,uwmtr-thruster-control-board-hw,75776d74-722d-4746-9872-75737465722d,rev?*%
%TF.SameCoordinates,Original*%
%TF.FileFunction,Copper,L2,Inr*%
%TF.FilePolarity,Positive*%
%FSLAX46Y46*%
G04 Gerber Fmt 4.6, Leading zero omitted, Abs format (unit mm)*
G04 Created by KiCad (PCBNEW 10.0.6) date 2026-09-07 00:38:57*
%MOMM*%
%LPD*%
G01*
G04 APERTURE LIST*
%TA.AperFunction,ComponentPad*%
%ADD10C,1.950000*%
%TD*%
%TA.AperFunction,ComponentPad*%
%ADD11C,1.600000*%
%TD*%
%TA.AperFunction,ComponentPad*%
%ADD12R,1.700000X1.700000*%
%TD*%
%TA.AperFunction,ComponentPad*%
%ADD13C,1.700000*%
%TD*%
%TA.AperFunction,ViaPad*%
%ADD14C,0.600000*%
%TD*%
G04 APERTURE END LIST*
D10*
%TO.N,+24V*%
%TO.C,J3*%
X172000000Y-90000000D03*
%TO.N,PGND*%
X167000000Y-90000000D03*
%TD*%
D11*
%TO.N,+24V*%
%TO.C,KM107M050F12RR0VH2FP1*%
X171750000Y-101000000D03*
%TO.N,PGND*%
X171750000Y-97500000D03*
%TD*%
D12*
%TO.N,+3.3V*%
%TO.C,J1*%
X175250000Y-132000000D03*
D13*
%TO.N,/FAULT_N*%
X172710000Y-132000000D03*
%TO.N,/SOX*%
X170170000Y-132000000D03*
%TO.N,/BRAKE*%
X167630000Y-132000000D03*
%TO.N,/DIR*%
X165090000Y-132000000D03*
%TO.N,/EXT_CLK*%
X162550000Y-132000000D03*
%TO.N,/EXT_WD*%
X160010000Y-132000000D03*
%TO.N,/I2C_SCL*%
X157470000Y-132000000D03*
%TO.N,/I2C_SDA*%
X154930000Y-132000000D03*
%TO.N,/FG*%
X152390000Y-132000000D03*
%TO.N,/SPEED_WAKE*%
X149850000Y-132000000D03*
%TO.N,/DRVOFF*%
X147310000Y-132000000D03*
%TO.N,AGND*%
X144770000Y-132000000D03*
%TD*%
D10*
%TO.N,/OUT_A*%
%TO.C,J2*%
X157500000Y-90000000D03*
%TO.N,/OUT_B*%
X152500000Y-90000000D03*
%TO.N,/OUT_C*%
X147500000Y-90000000D03*
%TD*%
D11*
%TO.N,/SW_BK*%
%TO.C,R1*%
X172500000Y-109420000D03*
%TO.N,+3.3V*%
X172500000Y-119580000D03*
%TD*%
D14*
%TO.N,/AVDD*%
X152900000Y-106500000D03*
X155600000Y-115100000D03*
X165200000Y-118300000D03*
X154850000Y-112400000D03*
X150100000Y-115500000D03*
%TO.N,+24V*%
X178000000Y-104500000D03*
X174000000Y-102500000D03*
X172000000Y-93500000D03*
X169000000Y-102500000D03*
X178000000Y-90500000D03*
X178000000Y-96500000D03*
X174000000Y-104500000D03*
X170000000Y-104500000D03*
X164050000Y-105300000D03*
%TO.N,PGND*%
X143000000Y-89500000D03*
X149000000Y-99500000D03*
X143000000Y-94500000D03*
X159500000Y-97000000D03*
X156000000Y-99500000D03*
X161000000Y-100500000D03*
X161000000Y-97000000D03*
X159500000Y-100500000D03*
%TO.N,AGND*%
X168000000Y-115250000D03*
X159500000Y-104500000D03*
X160500000Y-106250000D03*
X161000000Y-109250000D03*
X159500000Y-106250000D03*
X160000000Y-109250000D03*
X160500000Y-108250000D03*
X156000000Y-105500000D03*
X161000000Y-107250000D03*
X159000000Y-105250000D03*
X160000000Y-107250000D03*
X171000000Y-110750000D03*
X161500000Y-104500000D03*
X161500000Y-108250000D03*
X169500000Y-115250000D03*
X160000000Y-105250000D03*
X159000000Y-109250000D03*
X168000000Y-112500000D03*
X154500000Y-105500000D03*
X159000000Y-107250000D03*
X159500000Y-108250000D03*
X161000000Y-105250000D03*
X160500000Y-104500000D03*
X161500000Y-106250000D03*
%TO.N,/SPEED_WAKE*%
X156250000Y-107650000D03*
%TO.N,/DRVOFF*%
X156950000Y-103550000D03*
%TO.N,/OUT_A*%
X161775000Y-99225000D03*
X161775000Y-95375000D03*
X161800000Y-101925000D03*
%TO.N,/OUT_B*%
X156775000Y-94825000D03*
X152525000Y-94750000D03*
X160300000Y-101925000D03*
%TO.N,/OUT_C*%
X157400000Y-96875000D03*
X158750000Y-101900000D03*
X147475000Y-96900000D03*
X152400000Y-96875000D03*
%TD*%
%TA.AperFunction,Conductor*%
%TO.N,PGND*%
G36*
X175998426Y-85750535D02*
G01*
X176001512Y-85750611D01*
X176004463Y-85750718D01*
X176333916Y-85766904D01*
X176339916Y-85767346D01*
X176346061Y-85767951D01*
X176352002Y-85768684D01*
X176452146Y-85783539D01*
X176673695Y-85816403D01*
X176679669Y-85817439D01*
X176685639Y-85818626D01*
X176691563Y-85819957D01*
X177006997Y-85898969D01*
X177012864Y-85900592D01*
X177018679Y-85902357D01*
X177024442Y-85904262D01*
X177092787Y-85928716D01*
X177092795Y-85928718D01*
X177092806Y-85928722D01*
X177330649Y-86013824D01*
X177336244Y-86015982D01*
X177341885Y-86018318D01*
X177347404Y-86020763D01*
X177641419Y-86159822D01*
X177646823Y-86162541D01*
X177652223Y-86165428D01*
X177657456Y-86168393D01*
X177936382Y-86335575D01*
X177941500Y-86338815D01*
X177946578Y-86342208D01*
X177951541Y-86345703D01*
X178212726Y-86539412D01*
X178217524Y-86543157D01*
X178222225Y-86547015D01*
X178226833Y-86550990D01*
X178467760Y-86769353D01*
X178472168Y-86773550D01*
X178476449Y-86777831D01*
X178480646Y-86782239D01*
X178665755Y-86986475D01*
X178699008Y-87023164D01*
X178702974Y-87027761D01*
X178702999Y-87027791D01*
X178706850Y-87032484D01*
X178710586Y-87037272D01*
X178904295Y-87298457D01*
X178907795Y-87303428D01*
X178907812Y-87303453D01*
X178911170Y-87308478D01*
X178914423Y-87313616D01*
X179041776Y-87526092D01*
X179081579Y-87592499D01*
X179084569Y-87597776D01*
X179087440Y-87603145D01*
X179090187Y-87608600D01*
X179229211Y-87902542D01*
X179231683Y-87908121D01*
X179234015Y-87913753D01*
X179236191Y-87919395D01*
X179345733Y-88225543D01*
X179347634Y-88231297D01*
X179349399Y-88237111D01*
X179351030Y-88243001D01*
X179430037Y-88558415D01*
X179431370Y-88564352D01*
X179432557Y-88570319D01*
X179433598Y-88576318D01*
X179481306Y-88897944D01*
X179482051Y-88903983D01*
X179482648Y-88910044D01*
X179483096Y-88916114D01*
X179499276Y-89245451D01*
X179499387Y-89248476D01*
X179499462Y-89251514D01*
X179499500Y-89254574D01*
X179499500Y-105670500D01*
X179479815Y-105737539D01*
X179427011Y-105783294D01*
X179375500Y-105794500D01*
X169623992Y-105794500D01*
X169580313Y-105799197D01*
X169528825Y-105810397D01*
X169518627Y-105812890D01*
X169518624Y-105812891D01*
X169437916Y-105855899D01*
X169437913Y-105855901D01*
X169385104Y-105901660D01*
X169367160Y-105919242D01*
X169367154Y-105919249D01*
X169322511Y-105999059D01*
X169322509Y-105999064D01*
X169302826Y-106066096D01*
X169294500Y-106124003D01*
X169294500Y-108670500D01*
X169274815Y-108737539D01*
X169222011Y-108783294D01*
X169170500Y-108794500D01*
X165136482Y-108794500D01*
X165069443Y-108774815D01*
X165048801Y-108758181D01*
X163681634Y-107391013D01*
X163681633Y-107391012D01*
X163665283Y-107376325D01*
X163665269Y-107376313D01*
X163644620Y-107359672D01*
X163573575Y-107322509D01*
X163506543Y-107302826D01*
X163505894Y-107302732D01*
X163448638Y-107294500D01*
X163448634Y-107294500D01*
X162829500Y-107294500D01*
X162762461Y-107274815D01*
X162716706Y-107222011D01*
X162705500Y-107170500D01*
X162705500Y-105234108D01*
X163549500Y-105234108D01*
X163549500Y-105365891D01*
X163566554Y-105429539D01*
X163583608Y-105493188D01*
X163616554Y-105550250D01*
X163649500Y-105607314D01*
X163742686Y-105700500D01*
X163856814Y-105766392D01*
X163984108Y-105800500D01*
X163984110Y-105800500D01*
X164115890Y-105800500D01*
X164115892Y-105800500D01*
X164243186Y-105766392D01*
X164357314Y-105700500D01*
X164450500Y-105607314D01*
X164516392Y-105493186D01*
X164550500Y-105365892D01*
X164550500Y-105234108D01*
X164516392Y-105106814D01*
X164516387Y-105106806D01*
X164455011Y-105000500D01*
X164450500Y-104992686D01*
X164357314Y-104899500D01*
X164270712Y-104849500D01*
X164270712Y-104849499D01*
X164270710Y-104849499D01*
X164243187Y-104833608D01*
X164179539Y-104816554D01*
X164115892Y-104799500D01*
X164115891Y-104799500D01*
X163984108Y-104799500D01*
X163856808Y-104833609D01*
X163856806Y-104833610D01*
X163742696Y-104899493D01*
X163742682Y-104899502D01*
X163742677Y-104899506D01*
X163649506Y-104992677D01*
X163649502Y-104992682D01*
X163649493Y-104992696D01*
X163583610Y-105106806D01*
X163583609Y-105106808D01*
X163583608Y-105106812D01*
X163549500Y-105234108D01*
X162705500Y-105234108D01*
X162705500Y-104434108D01*
X169499500Y-104434108D01*
X169499500Y-104565891D01*
X169516554Y-104629539D01*
X169533608Y-104693188D01*
X169566121Y-104749500D01*
X169599500Y-104807314D01*
X169692686Y-104900500D01*
X169806814Y-104966392D01*
X169934108Y-105000500D01*
X169934110Y-105000500D01*
X170065890Y-105000500D01*
X170065892Y-105000500D01*
X170193186Y-104966392D01*
X170307314Y-104900500D01*
X170400500Y-104807314D01*
X170466392Y-104693186D01*
X170500500Y-104565892D01*
X170500500Y-104434108D01*
X173499500Y-104434108D01*
X173499500Y-104565891D01*
X173516554Y-104629539D01*
X173533608Y-104693188D01*
X173566121Y-104749500D01*
X173599500Y-104807314D01*
X173692686Y-104900500D01*
X173806814Y-104966392D01*
X173934108Y-105000500D01*
X173934110Y-105000500D01*
X174065890Y-105000500D01*
X174065892Y-105000500D01*
X174193186Y-104966392D01*
X174307314Y-104900500D01*
X174400500Y-104807314D01*
X174466392Y-104693186D01*
X174500500Y-104565892D01*
X174500500Y-104434108D01*
X177499500Y-104434108D01*
X177499500Y-104565891D01*
X177516554Y-104629539D01*
X177533608Y-104693188D01*
X177566121Y-104749500D01*
X177599500Y-104807314D01*
X177692686Y-104900500D01*
X177806814Y-104966392D01*
X177934108Y-105000500D01*
X177934110Y-105000500D01*
X178065890Y-105000500D01*
X178065892Y-105000500D01*
X178193186Y-104966392D01*
X178307314Y-104900500D01*
X178400500Y-104807314D01*
X178466392Y-104693186D01*
X178500500Y-104565892D01*
X178500500Y-104434108D01*
X178466392Y-104306814D01*
X178466387Y-104306806D01*
X178457563Y-104291521D01*
X178400500Y-104192686D01*
X178307314Y-104099500D01*
X178222444Y-104050500D01*
X178222444Y-104050499D01*
X178222442Y-104050499D01*
X178193187Y-104033608D01*
X178128934Y-104016392D01*
X178065892Y-103999500D01*
X178065891Y-103999500D01*
X177934108Y-103999500D01*
X177806808Y-104033609D01*
X177806806Y-104033610D01*
X177692696Y-104099493D01*
X177692682Y-104099502D01*
X177692677Y-104099506D01*
X177599506Y-104192677D01*
X177599502Y-104192682D01*
X177599493Y-104192696D01*
X177533610Y-104306806D01*
X177533609Y-104306808D01*
X177533608Y-104306812D01*
X177499500Y-104434108D01*
X174500500Y-104434108D01*
X174466392Y-104306814D01*
X174466387Y-104306806D01*
X174457563Y-104291521D01*
X174400500Y-104192686D01*
X174307314Y-104099500D01*
X174222444Y-104050500D01*
X174222444Y-104050499D01*
X174222442Y-104050499D01*
X174193187Y-104033608D01*
X174128934Y-104016392D01*
X174065892Y-103999500D01*
X174065891Y-103999500D01*
X173934108Y-103999500D01*
X173806808Y-104033609D01*
X173806806Y-104033610D01*
X173692696Y-104099493D01*
X173692682Y-104099502D01*
X173692677Y-104099506D01*
X173599506Y-104192677D01*
X173599502Y-104192682D01*
X173599493Y-104192696D01*
X173533610Y-104306806D01*
X173533609Y-104306808D01*
X173533608Y-104306812D01*
X173499500Y-104434108D01*
X170500500Y-104434108D01*
X170466392Y-104306814D01*
X170466387Y-104306806D01*
X170457563Y-104291521D01*
X170400500Y-104192686D01*
X170307314Y-104099500D01*
X170222444Y-104050500D01*
X170222444Y-104050499D01*
X170222442Y-104050499D01*
X170193187Y-104033608D01*
X170128934Y-104016392D01*
X170065892Y-103999500D01*
X170065891Y-103999500D01*
X169934108Y-103999500D01*
X169806808Y-104033609D01*
X169806806Y-104033610D01*
X169692696Y-104099493D01*
X169692682Y-104099502D01*
X169692677Y-104099506D01*
X169599506Y-104192677D01*
X169599502Y-104192682D01*
X169599493Y-104192696D01*
X169533610Y-104306806D01*
X169533609Y-104306808D01*
X169533608Y-104306812D01*
X169499500Y-104434108D01*
X162705500Y-104434108D01*
X162705500Y-104124008D01*
X162705499Y-104123992D01*
X162702866Y-104099506D01*
X162700803Y-104080316D01*
X162694317Y-104050500D01*
X162689602Y-104028825D01*
X162689348Y-104027789D01*
X162687110Y-104018627D01*
X162677184Y-104000000D01*
X163500000Y-104000000D01*
X163500000Y-102434108D01*
X168499500Y-102434108D01*
X168499500Y-102565891D01*
X168516554Y-102629539D01*
X168533608Y-102693188D01*
X168566554Y-102750250D01*
X168599500Y-102807314D01*
X168692686Y-102900500D01*
X168806814Y-102966392D01*
X168934108Y-103000500D01*
X168934110Y-103000500D01*
X169065890Y-103000500D01*
X169065892Y-103000500D01*
X169193186Y-102966392D01*
X169307314Y-102900500D01*
X169400500Y-102807314D01*
X169466392Y-102693186D01*
X169500500Y-102565892D01*
X169500500Y-102434108D01*
X173499500Y-102434108D01*
X173499500Y-102565891D01*
X173516554Y-102629539D01*
X173533608Y-102693188D01*
X173566554Y-102750250D01*
X173599500Y-102807314D01*
X173692686Y-102900500D01*
X173806814Y-102966392D01*
X173934108Y-103000500D01*
X173934110Y-103000500D01*
X174065890Y-103000500D01*
X174065892Y-103000500D01*
X174193186Y-102966392D01*
X174307314Y-102900500D01*
X174400500Y-102807314D01*
X174466392Y-102693186D01*
X174500500Y-102565892D01*
X174500500Y-102434108D01*
X174466392Y-102306814D01*
X174466387Y-102306806D01*
X174423379Y-102232314D01*
X174400500Y-102192686D01*
X174307314Y-102099500D01*
X174250250Y-102066554D01*
X174193187Y-102033608D01*
X174129539Y-102016554D01*
X174065892Y-101999500D01*
X174065891Y-101999500D01*
X173934108Y-101999500D01*
X173806807Y-102033609D01*
X173692696Y-102099493D01*
X173692682Y-102099502D01*
X173692677Y-102099506D01*
X173599506Y-102192677D01*
X173599502Y-102192682D01*
X173599493Y-102192696D01*
X173533610Y-102306806D01*
X173533609Y-102306808D01*
X173533608Y-102306812D01*
X173499500Y-102434108D01*
X169500500Y-102434108D01*
X169466392Y-102306814D01*
X169466387Y-102306806D01*
X169423379Y-102232314D01*
X169400500Y-102192686D01*
X169307314Y-102099500D01*
X169250250Y-102066554D01*
X169193187Y-102033608D01*
X169129539Y-102016554D01*
X169065892Y-101999500D01*
X169065891Y-101999500D01*
X168934108Y-101999500D01*
X168806807Y-102033609D01*
X168692696Y-102099493D01*
X168692682Y-102099502D01*
X168692677Y-102099506D01*
X168599506Y-102192677D01*
X168599502Y-102192682D01*
X168599493Y-102192696D01*
X168533610Y-102306806D01*
X168533609Y-102306808D01*
X168533608Y-102306812D01*
X168499500Y-102434108D01*
X163500000Y-102434108D01*
X163500000Y-101500000D01*
X162064879Y-101500000D01*
X162030784Y-101480315D01*
X162019708Y-101473920D01*
X161993188Y-101458608D01*
X161929539Y-101441554D01*
X161899891Y-101433610D01*
X161865892Y-101424500D01*
X161865891Y-101424500D01*
X161734108Y-101424500D01*
X161606808Y-101458609D01*
X161606806Y-101458610D01*
X161535118Y-101500000D01*
X160564879Y-101500000D01*
X160530784Y-101480315D01*
X160519708Y-101473920D01*
X160493188Y-101458608D01*
X160429539Y-101441554D01*
X160399891Y-101433610D01*
X160365892Y-101424500D01*
X160365891Y-101424500D01*
X160234108Y-101424500D01*
X160106808Y-101458609D01*
X160106806Y-101458610D01*
X160035118Y-101500000D01*
X159057814Y-101500000D01*
X159057314Y-101499500D01*
X158986487Y-101458608D01*
X158986487Y-101458607D01*
X158986485Y-101458607D01*
X158943187Y-101433608D01*
X158879539Y-101416554D01*
X158815892Y-101399500D01*
X158815891Y-101399500D01*
X158684108Y-101399500D01*
X158556808Y-101433609D01*
X158556806Y-101433610D01*
X158442696Y-101499493D01*
X158442682Y-101499502D01*
X158442677Y-101499506D01*
X158442183Y-101500000D01*
X155790620Y-101500000D01*
X155681634Y-101391013D01*
X155681633Y-101391012D01*
X155665283Y-101376325D01*
X155665269Y-101376313D01*
X155644620Y-101359672D01*
X155573575Y-101322509D01*
X155506543Y-101302826D01*
X155505894Y-101302732D01*
X155448638Y-101294500D01*
X155448634Y-101294500D01*
X140624500Y-101294500D01*
X140615814Y-101291949D01*
X140606853Y-101293238D01*
X140582812Y-101282259D01*
X140557461Y-101274815D01*
X140551533Y-101267974D01*
X140543297Y-101264213D01*
X140529007Y-101241978D01*
X140511706Y-101222011D01*
X140509418Y-101211496D01*
X140505523Y-101205435D01*
X140500500Y-101170500D01*
X140500500Y-101072094D01*
X170744237Y-101072094D01*
X170787945Y-101291822D01*
X170787946Y-101291826D01*
X170787947Y-101291829D01*
X170787950Y-101291839D01*
X170787953Y-101291847D01*
X170787958Y-101291861D01*
X170863360Y-101473900D01*
X170863365Y-101473909D01*
X170863375Y-101473926D01*
X170972861Y-101637783D01*
X170972862Y-101637784D01*
X170972867Y-101637790D01*
X171112208Y-101777131D01*
X171112213Y-101777135D01*
X171112214Y-101777136D01*
X171112218Y-101777139D01*
X171276079Y-101886628D01*
X171276092Y-101886635D01*
X171452573Y-101959735D01*
X171456992Y-101961825D01*
X171457728Y-101961967D01*
X171458469Y-101962112D01*
X171651453Y-102000500D01*
X171848543Y-102000500D01*
X171848545Y-102000500D01*
X172022535Y-101965890D01*
X172041835Y-101962051D01*
X172223914Y-101886632D01*
X172387782Y-101777139D01*
X172387785Y-101777136D01*
X172387787Y-101777135D01*
X172527136Y-101637785D01*
X172527138Y-101637783D01*
X172527139Y-101637782D01*
X172636632Y-101473914D01*
X172642972Y-101458609D01*
X172683952Y-101359672D01*
X172712051Y-101291835D01*
X172750500Y-101098541D01*
X172750500Y-100901459D01*
X172750500Y-100901456D01*
X172750500Y-100901453D01*
X172712112Y-100708469D01*
X172711967Y-100707728D01*
X172711825Y-100706992D01*
X172709735Y-100702573D01*
X172636635Y-100526092D01*
X172636628Y-100526079D01*
X172527139Y-100362218D01*
X172527136Y-100362214D01*
X172527131Y-100362208D01*
X172387790Y-100222867D01*
X172387784Y-100222862D01*
X172387783Y-100222861D01*
X172223926Y-100113375D01*
X172223925Y-100113374D01*
X172223920Y-100113371D01*
X172223907Y-100113364D01*
X172223900Y-100113360D01*
X172041861Y-100037958D01*
X172041847Y-100037953D01*
X172041839Y-100037950D01*
X172041829Y-100037947D01*
X172041826Y-100037946D01*
X172041822Y-100037945D01*
X171848546Y-99999500D01*
X171848543Y-99999500D01*
X171848541Y-99999500D01*
X171651459Y-99999500D01*
X171651457Y-99999500D01*
X171651453Y-99999500D01*
X171458176Y-100037945D01*
X171458170Y-100037947D01*
X171458160Y-100037950D01*
X171458155Y-100037951D01*
X171458137Y-100037958D01*
X171276098Y-100113360D01*
X171276089Y-100113365D01*
X171276072Y-100113375D01*
X171112215Y-100222861D01*
X171112214Y-100222862D01*
X171112208Y-100222867D01*
X170972867Y-100362208D01*
X170972862Y-100362214D01*
X170972861Y-100362215D01*
X170863375Y-100526072D01*
X170863365Y-100526089D01*
X170863360Y-100526098D01*
X170787958Y-100708137D01*
X170787945Y-100708176D01*
X170749500Y-100901451D01*
X170749500Y-101054174D01*
X170744237Y-101072094D01*
X140500500Y-101072094D01*
X140500500Y-99159108D01*
X161274500Y-99159108D01*
X161274500Y-99290891D01*
X161291554Y-99354539D01*
X161308608Y-99418188D01*
X161341554Y-99475250D01*
X161374500Y-99532314D01*
X161467686Y-99625500D01*
X161581814Y-99691392D01*
X161709108Y-99725500D01*
X161709110Y-99725500D01*
X161840890Y-99725500D01*
X161840892Y-99725500D01*
X161968186Y-99691392D01*
X162082314Y-99625500D01*
X162175500Y-99532314D01*
X162241392Y-99418186D01*
X162275500Y-99290892D01*
X162275500Y-99159108D01*
X162241392Y-99031814D01*
X162241387Y-99031806D01*
X162232563Y-99016521D01*
X162175500Y-98917686D01*
X162082314Y-98824500D01*
X162025250Y-98791554D01*
X161968187Y-98758608D01*
X161904539Y-98741554D01*
X161840892Y-98724500D01*
X161840891Y-98724500D01*
X161709108Y-98724500D01*
X161581808Y-98758609D01*
X161581806Y-98758610D01*
X161467696Y-98824493D01*
X161467682Y-98824502D01*
X161467677Y-98824506D01*
X161374506Y-98917677D01*
X161374502Y-98917682D01*
X161374493Y-98917696D01*
X161308610Y-99031806D01*
X161308609Y-99031808D01*
X161308608Y-99031812D01*
X161274500Y-99159108D01*
X140500500Y-99159108D01*
X140500500Y-96834108D01*
X146974500Y-96834108D01*
X146974500Y-96965892D01*
X146991554Y-97029539D01*
X147008608Y-97093187D01*
X147012542Y-97100000D01*
X147074500Y-97207314D01*
X147167686Y-97300500D01*
X147281814Y-97366392D01*
X147409108Y-97400500D01*
X147409110Y-97400500D01*
X147540890Y-97400500D01*
X147540892Y-97400500D01*
X147551431Y-97397676D01*
X170450000Y-97397676D01*
X170450000Y-97602322D01*
X170482008Y-97804411D01*
X170482009Y-97804417D01*
X170545244Y-97999031D01*
X170564335Y-98036498D01*
X170638144Y-98181357D01*
X170638147Y-98181360D01*
X170670517Y-98225914D01*
X170670521Y-98225919D01*
X170670523Y-98225921D01*
X170670524Y-98225922D01*
X171213503Y-97682942D01*
X171274824Y-97649459D01*
X171344515Y-97654443D01*
X171400449Y-97696314D01*
X171408567Y-97708622D01*
X171429920Y-97745606D01*
X171504394Y-97820080D01*
X171504395Y-97820081D01*
X171504397Y-97820082D01*
X171541373Y-97841430D01*
X171589588Y-97891996D01*
X171602812Y-97960603D01*
X171576844Y-98025468D01*
X171567054Y-98036498D01*
X171024075Y-98579473D01*
X171024076Y-98579473D01*
X171024076Y-98579474D01*
X171068650Y-98611859D01*
X171154786Y-98655747D01*
X171250963Y-98704753D01*
X171250965Y-98704753D01*
X171250968Y-98704755D01*
X171445582Y-98767990D01*
X171647683Y-98800000D01*
X171852316Y-98800000D01*
X171852317Y-98800000D01*
X172054417Y-98767990D01*
X172249031Y-98704755D01*
X172431349Y-98611859D01*
X172475921Y-98579474D01*
X171932945Y-98036498D01*
X171899460Y-97975175D01*
X171904444Y-97905483D01*
X171946316Y-97849550D01*
X171958618Y-97841434D01*
X171995606Y-97820080D01*
X172070080Y-97745606D01*
X172091430Y-97708625D01*
X172141995Y-97660411D01*
X172210602Y-97647187D01*
X172275467Y-97673154D01*
X172286498Y-97682945D01*
X172829473Y-98225920D01*
X172829474Y-98225921D01*
X172861859Y-98181349D01*
X172954755Y-97999031D01*
X173017990Y-97804417D01*
X173050000Y-97602317D01*
X173050000Y-97397682D01*
X173017990Y-97195582D01*
X172954755Y-97000968D01*
X172954753Y-97000965D01*
X172954753Y-97000963D01*
X172869735Y-96834108D01*
X172861859Y-96818650D01*
X172853155Y-96806671D01*
X172843615Y-96779933D01*
X172829473Y-96774075D01*
X172286497Y-97317053D01*
X172225174Y-97350538D01*
X172155483Y-97345554D01*
X172099549Y-97303683D01*
X172091430Y-97291374D01*
X172070080Y-97254394D01*
X171995606Y-97179920D01*
X171958625Y-97158569D01*
X171910410Y-97108003D01*
X171897186Y-97039396D01*
X171923154Y-96974531D01*
X171932936Y-96963509D01*
X172462338Y-96434108D01*
X177499500Y-96434108D01*
X177499500Y-96565892D01*
X177506682Y-96592696D01*
X177516554Y-96629539D01*
X177533608Y-96693188D01*
X177540904Y-96705823D01*
X177541475Y-96706812D01*
X177599500Y-96807314D01*
X177692686Y-96900500D01*
X177762647Y-96940892D01*
X177805944Y-96965890D01*
X177805958Y-96965898D01*
X177805957Y-96965898D01*
X177806810Y-96966390D01*
X177806811Y-96966390D01*
X177806814Y-96966392D01*
X177934108Y-97000500D01*
X177934110Y-97000500D01*
X178065890Y-97000500D01*
X178065892Y-97000500D01*
X178193186Y-96966392D01*
X178307314Y-96900500D01*
X178400500Y-96807314D01*
X178466392Y-96693186D01*
X178500500Y-96565892D01*
X178500500Y-96434108D01*
X178466392Y-96306814D01*
X178400500Y-96192686D01*
X178307314Y-96099500D01*
X178250250Y-96066554D01*
X178193187Y-96033608D01*
X178129539Y-96016554D01*
X178065892Y-95999500D01*
X178065891Y-95999500D01*
X177934108Y-95999500D01*
X177806808Y-96033609D01*
X177806806Y-96033610D01*
X177692696Y-96099493D01*
X177692682Y-96099502D01*
X177692677Y-96099506D01*
X177599506Y-96192677D01*
X177599502Y-96192682D01*
X177599493Y-96192696D01*
X177533607Y-96306810D01*
X177515866Y-96373024D01*
X177515852Y-96373080D01*
X177515472Y-96374500D01*
X177499500Y-96434108D01*
X172462338Y-96434108D01*
X172475922Y-96420524D01*
X172475921Y-96420523D01*
X172475920Y-96420522D01*
X172475919Y-96420521D01*
X172475914Y-96420517D01*
X172431360Y-96388147D01*
X172431357Y-96388144D01*
X172366198Y-96354944D01*
X172249031Y-96295244D01*
X172054417Y-96232009D01*
X172054411Y-96232008D01*
X171852322Y-96200000D01*
X171852317Y-96200000D01*
X171647683Y-96200000D01*
X171647678Y-96200000D01*
X171445587Y-96232008D01*
X171445585Y-96232008D01*
X171445582Y-96232009D01*
X171348275Y-96263626D01*
X171250963Y-96295245D01*
X171068640Y-96388145D01*
X171024077Y-96420522D01*
X171024077Y-96420523D01*
X171024077Y-96420524D01*
X171310369Y-96706816D01*
X171567055Y-96963501D01*
X171600540Y-97024824D01*
X171595556Y-97094515D01*
X171553685Y-97150449D01*
X171541374Y-97158569D01*
X171504397Y-97179917D01*
X171504392Y-97179921D01*
X171429921Y-97254392D01*
X171429915Y-97254400D01*
X171408568Y-97291374D01*
X171358001Y-97339589D01*
X171289393Y-97352811D01*
X171224529Y-97326843D01*
X171213501Y-97317054D01*
X170670524Y-96774077D01*
X170670523Y-96774077D01*
X170670522Y-96774077D01*
X170638145Y-96818640D01*
X170545245Y-97000963D01*
X170523403Y-97068186D01*
X170482009Y-97195582D01*
X170482008Y-97195585D01*
X170482008Y-97195587D01*
X170450000Y-97397676D01*
X147551431Y-97397676D01*
X147668186Y-97366392D01*
X147782314Y-97300500D01*
X147875500Y-97207314D01*
X147941392Y-97093186D01*
X147975500Y-96965892D01*
X147975500Y-96834108D01*
X147968801Y-96809108D01*
X151899500Y-96809108D01*
X151899500Y-96940892D01*
X151906333Y-96966392D01*
X151915472Y-97000500D01*
X151915472Y-97000501D01*
X151933606Y-97068185D01*
X151948042Y-97093187D01*
X151999497Y-97182310D01*
X151999499Y-97182312D01*
X151999500Y-97182314D01*
X152092686Y-97275500D01*
X152092687Y-97275501D01*
X152092689Y-97275502D01*
X152135985Y-97300499D01*
X152191521Y-97332563D01*
X152206810Y-97341390D01*
X152206814Y-97341392D01*
X152334108Y-97375500D01*
X152334110Y-97375500D01*
X152465890Y-97375500D01*
X152465892Y-97375500D01*
X152593186Y-97341392D01*
X152707314Y-97275500D01*
X152800500Y-97182314D01*
X152866392Y-97068186D01*
X152900500Y-96940892D01*
X152900500Y-96809108D01*
X156899500Y-96809108D01*
X156899500Y-96940892D01*
X156906333Y-96966392D01*
X156915472Y-97000500D01*
X156915472Y-97000501D01*
X156933606Y-97068185D01*
X156948042Y-97093187D01*
X156999497Y-97182310D01*
X156999499Y-97182312D01*
X156999500Y-97182314D01*
X157092686Y-97275500D01*
X157092687Y-97275501D01*
X157092689Y-97275502D01*
X157135985Y-97300499D01*
X157191521Y-97332563D01*
X157206810Y-97341390D01*
X157206814Y-97341392D01*
X157334108Y-97375500D01*
X157334110Y-97375500D01*
X157465890Y-97375500D01*
X157465892Y-97375500D01*
X157593186Y-97341392D01*
X157707314Y-97275500D01*
X157800500Y-97182314D01*
X157866392Y-97068186D01*
X157900500Y-96940892D01*
X157900500Y-96809108D01*
X157866392Y-96681814D01*
X157800500Y-96567686D01*
X157707314Y-96474500D01*
X157636487Y-96433608D01*
X157636487Y-96433607D01*
X157636485Y-96433607D01*
X157613825Y-96420524D01*
X157593187Y-96408608D01*
X157516801Y-96388141D01*
X157516799Y-96388140D01*
X157465893Y-96374500D01*
X157465892Y-96374500D01*
X157334108Y-96374500D01*
X157206808Y-96408609D01*
X157206806Y-96408610D01*
X157092696Y-96474493D01*
X157092682Y-96474502D01*
X157092677Y-96474506D01*
X156999506Y-96567677D01*
X156999502Y-96567682D01*
X156999493Y-96567696D01*
X156933607Y-96681810D01*
X156933607Y-96681812D01*
X156927173Y-96705823D01*
X156927151Y-96705910D01*
X156926909Y-96706814D01*
X156899500Y-96809108D01*
X152900500Y-96809108D01*
X152866392Y-96681814D01*
X152800500Y-96567686D01*
X152707314Y-96474500D01*
X152636487Y-96433608D01*
X152636487Y-96433607D01*
X152636485Y-96433607D01*
X152613825Y-96420524D01*
X152593187Y-96408608D01*
X152516801Y-96388141D01*
X152516799Y-96388140D01*
X152465893Y-96374500D01*
X152465892Y-96374500D01*
X152334108Y-96374500D01*
X152206808Y-96408609D01*
X152206806Y-96408610D01*
X152092696Y-96474493D01*
X152092682Y-96474502D01*
X152092677Y-96474506D01*
X151999506Y-96567677D01*
X151999502Y-96567682D01*
X151999493Y-96567696D01*
X151933607Y-96681810D01*
X151933607Y-96681812D01*
X151927173Y-96705823D01*
X151927151Y-96705910D01*
X151926909Y-96706814D01*
X151899500Y-96809108D01*
X147968801Y-96809108D01*
X147941392Y-96706814D01*
X147875500Y-96592686D01*
X147782314Y-96499500D01*
X147725250Y-96466554D01*
X147668187Y-96433608D01*
X147604539Y-96416554D01*
X147540892Y-96399500D01*
X147540891Y-96399500D01*
X147409108Y-96399500D01*
X147281808Y-96433609D01*
X147281806Y-96433610D01*
X147167696Y-96499493D01*
X147167682Y-96499502D01*
X147167677Y-96499506D01*
X147074506Y-96592677D01*
X147074502Y-96592682D01*
X147074493Y-96592696D01*
X147008610Y-96706806D01*
X147008609Y-96706809D01*
X147008608Y-96706811D01*
X147008608Y-96706812D01*
X147008607Y-96706816D01*
X146978642Y-96818646D01*
X146978642Y-96818650D01*
X146974500Y-96834108D01*
X140500500Y-96834108D01*
X140500500Y-94684108D01*
X152024500Y-94684108D01*
X152024500Y-94815891D01*
X152040204Y-94874500D01*
X152058608Y-94943188D01*
X152076683Y-94974493D01*
X152076687Y-94974500D01*
X152124500Y-95057314D01*
X152217686Y-95150500D01*
X152316521Y-95207563D01*
X152326458Y-95213300D01*
X152331814Y-95216392D01*
X152459108Y-95250500D01*
X152459110Y-95250500D01*
X152590890Y-95250500D01*
X152590892Y-95250500D01*
X152718186Y-95216392D01*
X152832314Y-95150500D01*
X152925500Y-95057314D01*
X152991392Y-94943186D01*
X153025500Y-94815892D01*
X153025500Y-94759108D01*
X156274500Y-94759108D01*
X156274500Y-94890891D01*
X156279248Y-94908610D01*
X156308608Y-95018187D01*
X156331200Y-95057316D01*
X156331201Y-95057318D01*
X156374497Y-95132310D01*
X156374499Y-95132313D01*
X156374500Y-95132314D01*
X156467686Y-95225500D01*
X156581814Y-95291392D01*
X156709108Y-95325500D01*
X156709110Y-95325500D01*
X156840890Y-95325500D01*
X156840892Y-95325500D01*
X156902068Y-95309108D01*
X161274500Y-95309108D01*
X161274500Y-95440891D01*
X161291554Y-95504539D01*
X161308608Y-95568188D01*
X161341554Y-95625250D01*
X161374500Y-95682314D01*
X161467686Y-95775500D01*
X161581814Y-95841392D01*
X161709108Y-95875500D01*
X161709110Y-95875500D01*
X161840890Y-95875500D01*
X161840892Y-95875500D01*
X161968186Y-95841392D01*
X162082314Y-95775500D01*
X162175500Y-95682314D01*
X162241392Y-95568186D01*
X162275500Y-95440892D01*
X162275500Y-95309108D01*
X162241392Y-95181814D01*
X162241387Y-95181806D01*
X162212814Y-95132316D01*
X162175500Y-95067686D01*
X162082314Y-94974500D01*
X162025250Y-94941554D01*
X161968187Y-94908608D01*
X161902061Y-94890890D01*
X161840892Y-94874500D01*
X161840891Y-94874500D01*
X161709108Y-94874500D01*
X161581808Y-94908609D01*
X161581806Y-94908610D01*
X161467696Y-94974493D01*
X161467682Y-94974502D01*
X161467677Y-94974506D01*
X161374506Y-95067677D01*
X161374502Y-95067682D01*
X161374493Y-95067696D01*
X161308610Y-95181806D01*
X161308609Y-95181808D01*
X161296903Y-95225497D01*
X161274500Y-95309108D01*
X156902068Y-95309108D01*
X156968186Y-95291392D01*
X157082314Y-95225500D01*
X157175500Y-95132314D01*
X157241392Y-95018186D01*
X157275500Y-94890892D01*
X157275500Y-94759108D01*
X157241392Y-94631814D01*
X157241387Y-94631806D01*
X157232563Y-94616521D01*
X157175500Y-94517686D01*
X157082314Y-94424500D01*
X157025250Y-94391554D01*
X156968187Y-94358608D01*
X156904539Y-94341554D01*
X156840892Y-94324500D01*
X156840891Y-94324500D01*
X156709108Y-94324500D01*
X156581808Y-94358609D01*
X156581806Y-94358610D01*
X156467696Y-94424493D01*
X156467682Y-94424502D01*
X156467677Y-94424506D01*
X156374506Y-94517677D01*
X156374502Y-94517682D01*
X156374493Y-94517696D01*
X156308610Y-94631806D01*
X156308609Y-94631808D01*
X156308608Y-94631812D01*
X156274500Y-94759108D01*
X153025500Y-94759108D01*
X153025500Y-94684108D01*
X152991392Y-94556814D01*
X152991387Y-94556806D01*
X152968801Y-94517686D01*
X152925500Y-94442686D01*
X152832314Y-94349500D01*
X152775250Y-94316554D01*
X152718187Y-94283608D01*
X152654539Y-94266554D01*
X152590892Y-94249500D01*
X152590891Y-94249500D01*
X152459108Y-94249500D01*
X152331808Y-94283609D01*
X152331806Y-94283610D01*
X152217696Y-94349493D01*
X152217682Y-94349502D01*
X152217677Y-94349506D01*
X152124506Y-94442677D01*
X152124502Y-94442682D01*
X152124493Y-94442696D01*
X152058610Y-94556806D01*
X152058609Y-94556808D01*
X152058608Y-94556812D01*
X152024500Y-94684108D01*
X140500500Y-94684108D01*
X140500500Y-93434108D01*
X171499500Y-93434108D01*
X171499500Y-93565891D01*
X171516554Y-93629539D01*
X171533608Y-93693188D01*
X171566554Y-93750250D01*
X171599500Y-93807314D01*
X171692686Y-93900500D01*
X171806814Y-93966392D01*
X171934108Y-94000500D01*
X171934110Y-94000500D01*
X172065890Y-94000500D01*
X172065892Y-94000500D01*
X172193186Y-93966392D01*
X172307314Y-93900500D01*
X172400500Y-93807314D01*
X172466392Y-93693186D01*
X172500500Y-93565892D01*
X172500500Y-93434108D01*
X172466392Y-93306814D01*
X172466387Y-93306806D01*
X172457563Y-93291521D01*
X172400500Y-93192686D01*
X172307314Y-93099500D01*
X172250250Y-93066554D01*
X172193187Y-93033608D01*
X172129539Y-93016554D01*
X172065892Y-92999500D01*
X172065891Y-92999500D01*
X171934108Y-92999500D01*
X171806808Y-93033609D01*
X171806806Y-93033610D01*
X171692696Y-93099493D01*
X171692682Y-93099502D01*
X171692677Y-93099506D01*
X171599506Y-93192677D01*
X171599502Y-93192682D01*
X171599493Y-93192696D01*
X171533610Y-93306806D01*
X171533609Y-93306808D01*
X171533608Y-93306812D01*
X171499500Y-93434108D01*
X140500500Y-93434108D01*
X140500500Y-89907486D01*
X146324500Y-89907486D01*
X146324500Y-89912119D01*
X146324500Y-90092514D01*
X146325607Y-90099504D01*
X146325607Y-90099505D01*
X146353445Y-90275268D01*
X146410610Y-90451208D01*
X146410617Y-90451227D01*
X146410617Y-90451228D01*
X146410618Y-90451231D01*
X146410619Y-90451232D01*
X146410620Y-90451235D01*
X146469201Y-90566205D01*
X146469202Y-90566209D01*
X146494618Y-90616091D01*
X146494622Y-90616096D01*
X146603379Y-90765787D01*
X146734213Y-90896621D01*
X146883904Y-91005378D01*
X146964763Y-91046577D01*
X147048764Y-91089379D01*
X147048767Y-91089380D01*
X147048803Y-91089391D01*
X147048839Y-91089404D01*
X147136749Y-91117967D01*
X147136750Y-91117967D01*
X147224736Y-91146555D01*
X147407486Y-91175500D01*
X147407487Y-91175500D01*
X147592513Y-91175500D01*
X147592514Y-91175500D01*
X147775264Y-91146555D01*
X147951235Y-91089379D01*
X148116096Y-91005378D01*
X148265787Y-90896621D01*
X148396621Y-90765787D01*
X148505378Y-90616096D01*
X148589379Y-90451235D01*
X148646555Y-90275264D01*
X148675500Y-90092514D01*
X148675500Y-89907486D01*
X151324500Y-89907486D01*
X151324500Y-89912119D01*
X151324500Y-90092514D01*
X151325607Y-90099504D01*
X151325607Y-90099505D01*
X151353445Y-90275268D01*
X151410610Y-90451208D01*
X151410617Y-90451227D01*
X151410617Y-90451228D01*
X151410618Y-90451231D01*
X151410619Y-90451232D01*
X151410620Y-90451235D01*
X151469201Y-90566205D01*
X151469202Y-90566209D01*
X151494618Y-90616091D01*
X151494622Y-90616096D01*
X151603379Y-90765787D01*
X151734213Y-90896621D01*
X151883904Y-91005378D01*
X151964763Y-91046577D01*
X152048764Y-91089379D01*
X152048767Y-91089380D01*
X152048803Y-91089391D01*
X152048839Y-91089404D01*
X152136749Y-91117967D01*
X152136750Y-91117967D01*
X152224736Y-91146555D01*
X152407486Y-91175500D01*
X152407487Y-91175500D01*
X152592513Y-91175500D01*
X152592514Y-91175500D01*
X152775264Y-91146555D01*
X152951235Y-91089379D01*
X153116096Y-91005378D01*
X153265787Y-90896621D01*
X153396621Y-90765787D01*
X153505378Y-90616096D01*
X153589379Y-90451235D01*
X153646555Y-90275264D01*
X153675500Y-90092514D01*
X153675500Y-89907486D01*
X156324500Y-89907486D01*
X156324500Y-89912119D01*
X156324500Y-90092514D01*
X156325607Y-90099504D01*
X156325607Y-90099505D01*
X156353445Y-90275268D01*
X156410610Y-90451208D01*
X156410617Y-90451227D01*
X156410617Y-90451228D01*
X156410618Y-90451231D01*
X156410619Y-90451232D01*
X156410620Y-90451235D01*
X156469201Y-90566205D01*
X156469202Y-90566209D01*
X156494618Y-90616091D01*
X156494622Y-90616096D01*
X156603379Y-90765787D01*
X156734213Y-90896621D01*
X156883904Y-91005378D01*
X156964763Y-91046577D01*
X157048764Y-91089379D01*
X157048767Y-91089380D01*
X157048803Y-91089391D01*
X157048839Y-91089404D01*
X157136749Y-91117967D01*
X157136750Y-91117967D01*
X157224736Y-91146555D01*
X157407486Y-91175500D01*
X157407487Y-91175500D01*
X157592513Y-91175500D01*
X157592514Y-91175500D01*
X157775264Y-91146555D01*
X157951235Y-91089379D01*
X158116096Y-91005378D01*
X158265787Y-90896621D01*
X158396621Y-90765787D01*
X158505378Y-90616096D01*
X158589379Y-90451235D01*
X158646555Y-90275264D01*
X158675500Y-90092514D01*
X158675500Y-89907486D01*
X158671766Y-89883909D01*
X165525000Y-89883909D01*
X165525000Y-90116089D01*
X165561151Y-90344343D01*
X165561318Y-90345393D01*
X165633065Y-90566205D01*
X165738465Y-90773064D01*
X165795238Y-90851207D01*
X166282924Y-90363520D01*
X166344245Y-90330037D01*
X166413936Y-90335021D01*
X166469870Y-90376892D01*
X166473691Y-90382292D01*
X166495112Y-90414351D01*
X166495116Y-90414355D01*
X166495116Y-90414356D01*
X166585646Y-90504886D01*
X166617684Y-90526293D01*
X166662489Y-90579906D01*
X166671196Y-90649231D01*
X166641041Y-90712258D01*
X166636474Y-90717076D01*
X166148791Y-91204758D01*
X166148791Y-91204759D01*
X166148791Y-91204760D01*
X166226935Y-91261534D01*
X166433794Y-91366934D01*
X166654606Y-91438681D01*
X166883910Y-91475000D01*
X167116089Y-91475000D01*
X167116090Y-91475000D01*
X167345393Y-91438681D01*
X167566205Y-91366934D01*
X167773071Y-91261530D01*
X167851207Y-91204762D01*
X167851208Y-91204760D01*
X167851207Y-91204758D01*
X167363524Y-90717076D01*
X167330039Y-90655753D01*
X167335023Y-90586062D01*
X167376894Y-90530128D01*
X167382270Y-90526323D01*
X167414351Y-90504888D01*
X167504888Y-90414351D01*
X167526295Y-90382312D01*
X167579903Y-90337510D01*
X167649227Y-90328801D01*
X167712256Y-90358955D01*
X167717076Y-90363524D01*
X168204758Y-90851207D01*
X168204760Y-90851208D01*
X168204762Y-90851207D01*
X168261530Y-90773071D01*
X168366934Y-90566205D01*
X168438681Y-90345393D01*
X168475000Y-90116090D01*
X168475000Y-89907486D01*
X170824500Y-89907486D01*
X170824500Y-89912119D01*
X170824500Y-90092514D01*
X170825607Y-90099504D01*
X170825607Y-90099505D01*
X170853445Y-90275268D01*
X170910610Y-90451208D01*
X170910617Y-90451227D01*
X170910617Y-90451228D01*
X170910618Y-90451231D01*
X170910619Y-90451232D01*
X170910620Y-90451235D01*
X170969201Y-90566205D01*
X170969202Y-90566209D01*
X170994618Y-90616091D01*
X170994622Y-90616096D01*
X171103379Y-90765787D01*
X171234213Y-90896621D01*
X171383904Y-91005378D01*
X171464763Y-91046577D01*
X171548764Y-91089379D01*
X171548767Y-91089380D01*
X171548803Y-91089391D01*
X171548839Y-91089404D01*
X171636749Y-91117967D01*
X171636750Y-91117967D01*
X171724736Y-91146555D01*
X171907486Y-91175500D01*
X171907487Y-91175500D01*
X172092513Y-91175500D01*
X172092514Y-91175500D01*
X172275264Y-91146555D01*
X172451235Y-91089379D01*
X172616096Y-91005378D01*
X172765787Y-90896621D01*
X172896621Y-90765787D01*
X173005378Y-90616096D01*
X173089379Y-90451235D01*
X173094944Y-90434108D01*
X177499500Y-90434108D01*
X177499500Y-90565892D01*
X177512952Y-90616096D01*
X177533608Y-90693187D01*
X177566554Y-90750250D01*
X177599500Y-90807314D01*
X177692686Y-90900500D01*
X177806814Y-90966392D01*
X177934108Y-91000500D01*
X177934110Y-91000500D01*
X178065890Y-91000500D01*
X178065892Y-91000500D01*
X178193186Y-90966392D01*
X178307314Y-90900500D01*
X178400500Y-90807314D01*
X178466392Y-90693186D01*
X178500500Y-90565892D01*
X178500500Y-90434108D01*
X178466392Y-90306814D01*
X178400500Y-90192686D01*
X178307314Y-90099500D01*
X178245859Y-90064019D01*
X178245858Y-90064018D01*
X178245857Y-90064018D01*
X178193187Y-90033608D01*
X178129539Y-90016554D01*
X178065892Y-89999500D01*
X178065891Y-89999500D01*
X177934108Y-89999500D01*
X177806808Y-90033609D01*
X177806806Y-90033610D01*
X177692696Y-90099493D01*
X177692682Y-90099502D01*
X177692679Y-90099505D01*
X177599506Y-90192677D01*
X177599502Y-90192682D01*
X177599493Y-90192696D01*
X177533609Y-90306808D01*
X177533608Y-90306812D01*
X177523271Y-90345393D01*
X177499500Y-90434108D01*
X173094944Y-90434108D01*
X173110035Y-90387663D01*
X173135954Y-90307890D01*
X173146555Y-90275264D01*
X173175500Y-90092514D01*
X173175500Y-89907486D01*
X173146555Y-89724736D01*
X173090877Y-89553377D01*
X173089821Y-89549630D01*
X173005378Y-89383904D01*
X172943327Y-89298499D01*
X172896621Y-89234213D01*
X172765787Y-89103379D01*
X172616096Y-88994622D01*
X172451235Y-88910620D01*
X172451232Y-88910619D01*
X172451231Y-88910618D01*
X172451228Y-88910617D01*
X172451208Y-88910610D01*
X172275267Y-88853445D01*
X172275268Y-88853445D01*
X172183889Y-88838972D01*
X172092519Y-88824500D01*
X172092514Y-88824500D01*
X171907486Y-88824500D01*
X171907483Y-88824500D01*
X171861798Y-88831736D01*
X171846569Y-88834148D01*
X171724730Y-88853445D01*
X171548790Y-88910610D01*
X171548771Y-88910617D01*
X171548770Y-88910617D01*
X171383903Y-88994621D01*
X171302860Y-89053504D01*
X171246081Y-89094755D01*
X171238702Y-89098888D01*
X171098887Y-89238703D01*
X171094754Y-89246084D01*
X171056672Y-89298499D01*
X170994622Y-89383902D01*
X170910617Y-89548770D01*
X170910617Y-89548771D01*
X170910610Y-89548790D01*
X170853446Y-89724728D01*
X170853445Y-89724733D01*
X170853445Y-89724734D01*
X170853445Y-89724736D01*
X170824500Y-89907486D01*
X168475000Y-89907486D01*
X168475000Y-89883909D01*
X168438681Y-89654606D01*
X168366934Y-89433794D01*
X168261534Y-89226935D01*
X168204760Y-89148791D01*
X168204759Y-89148791D01*
X168204758Y-89148791D01*
X167717076Y-89636474D01*
X167655753Y-89669959D01*
X167586061Y-89664975D01*
X167530128Y-89623103D01*
X167526293Y-89617684D01*
X167504886Y-89585646D01*
X167414356Y-89495116D01*
X167414352Y-89495113D01*
X167414351Y-89495112D01*
X167382310Y-89473703D01*
X167337507Y-89420091D01*
X167328800Y-89350766D01*
X167358955Y-89287739D01*
X167363500Y-89282943D01*
X167851207Y-88795238D01*
X167773064Y-88738465D01*
X167566205Y-88633065D01*
X167345393Y-88561318D01*
X167345391Y-88561317D01*
X167345390Y-88561317D01*
X167169244Y-88533418D01*
X167116090Y-88525000D01*
X167116089Y-88525000D01*
X166883905Y-88525000D01*
X166654609Y-88561317D01*
X166433791Y-88633066D01*
X166226926Y-88738469D01*
X166226922Y-88738471D01*
X166148790Y-88795237D01*
X166636475Y-89282922D01*
X166669960Y-89344245D01*
X166664976Y-89413937D01*
X166623104Y-89469870D01*
X166617688Y-89473703D01*
X166585648Y-89495112D01*
X166585643Y-89495116D01*
X166495116Y-89585643D01*
X166495112Y-89585648D01*
X166473703Y-89617688D01*
X166420090Y-89662491D01*
X166350764Y-89671197D01*
X166287738Y-89641040D01*
X166282922Y-89636475D01*
X165795238Y-89148791D01*
X165795237Y-89148791D01*
X165738471Y-89226922D01*
X165738469Y-89226926D01*
X165633066Y-89433791D01*
X165561317Y-89654609D01*
X165525000Y-89883909D01*
X158671766Y-89883909D01*
X158646555Y-89724736D01*
X158590877Y-89553377D01*
X158589821Y-89549630D01*
X158505378Y-89383904D01*
X158443327Y-89298499D01*
X158396621Y-89234213D01*
X158265787Y-89103379D01*
X158190941Y-89049000D01*
X158116094Y-88994620D01*
X158033534Y-88952553D01*
X158033532Y-88952553D01*
X157951235Y-88910620D01*
X157951232Y-88910619D01*
X157951231Y-88910618D01*
X157951228Y-88910617D01*
X157951208Y-88910610D01*
X157775267Y-88853445D01*
X157775268Y-88853445D01*
X157683889Y-88838972D01*
X157592519Y-88824500D01*
X157592514Y-88824500D01*
X157407486Y-88824500D01*
X157407483Y-88824500D01*
X157361798Y-88831736D01*
X157346569Y-88834148D01*
X157224730Y-88853445D01*
X157048790Y-88910610D01*
X157048771Y-88910617D01*
X157048770Y-88910617D01*
X156883903Y-88994621D01*
X156802860Y-89053504D01*
X156746081Y-89094755D01*
X156738702Y-89098888D01*
X156598887Y-89238703D01*
X156594754Y-89246084D01*
X156556672Y-89298499D01*
X156494622Y-89383902D01*
X156410617Y-89548770D01*
X156410617Y-89548771D01*
X156410610Y-89548790D01*
X156353446Y-89724728D01*
X156353445Y-89724733D01*
X156353445Y-89724734D01*
X156353445Y-89724736D01*
X156324500Y-89907486D01*
X153675500Y-89907486D01*
X153646555Y-89724736D01*
X153590877Y-89553377D01*
X153589821Y-89549630D01*
X153505378Y-89383904D01*
X153443327Y-89298499D01*
X153396621Y-89234213D01*
X153265787Y-89103379D01*
X153116096Y-88994622D01*
X152951235Y-88910620D01*
X152951232Y-88910619D01*
X152951231Y-88910618D01*
X152951228Y-88910617D01*
X152951208Y-88910610D01*
X152775267Y-88853445D01*
X152775268Y-88853445D01*
X152683889Y-88838972D01*
X152592519Y-88824500D01*
X152592514Y-88824500D01*
X152407486Y-88824500D01*
X152407483Y-88824500D01*
X152361798Y-88831736D01*
X152346569Y-88834148D01*
X152224730Y-88853445D01*
X152048790Y-88910610D01*
X152048771Y-88910617D01*
X152048770Y-88910617D01*
X151883903Y-88994621D01*
X151802860Y-89053504D01*
X151746081Y-89094755D01*
X151738702Y-89098888D01*
X151598887Y-89238703D01*
X151594754Y-89246084D01*
X151556672Y-89298499D01*
X151494622Y-89383902D01*
X151410617Y-89548770D01*
X151410617Y-89548771D01*
X151410610Y-89548790D01*
X151353446Y-89724728D01*
X151353445Y-89724733D01*
X151353445Y-89724734D01*
X151353445Y-89724736D01*
X151324500Y-89907486D01*
X148675500Y-89907486D01*
X148646555Y-89724736D01*
X148590877Y-89553377D01*
X148589821Y-89549630D01*
X148505378Y-89383904D01*
X148443327Y-89298499D01*
X148396621Y-89234213D01*
X148265787Y-89103379D01*
X148116096Y-88994622D01*
X147951235Y-88910620D01*
X147951232Y-88910619D01*
X147951231Y-88910618D01*
X147951228Y-88910617D01*
X147951208Y-88910610D01*
X147775267Y-88853445D01*
X147775268Y-88853445D01*
X147683889Y-88838972D01*
X147592519Y-88824500D01*
X147592514Y-88824500D01*
X147407486Y-88824500D01*
X147407483Y-88824500D01*
X147361798Y-88831736D01*
X147346569Y-88834148D01*
X147224730Y-88853445D01*
X147048790Y-88910610D01*
X147048771Y-88910617D01*
X147048770Y-88910617D01*
X146883903Y-88994621D01*
X146802860Y-89053504D01*
X146746081Y-89094755D01*
X146738702Y-89098888D01*
X146598887Y-89238703D01*
X146594754Y-89246084D01*
X146556672Y-89298499D01*
X146494622Y-89383902D01*
X146410617Y-89548770D01*
X146410617Y-89548771D01*
X146410610Y-89548790D01*
X146353446Y-89724728D01*
X146353445Y-89724733D01*
X146353445Y-89724734D01*
X146353445Y-89724736D01*
X146324500Y-89907486D01*
X140500500Y-89907486D01*
X140500500Y-89254576D01*
X140500537Y-89251560D01*
X140500611Y-89248518D01*
X140500723Y-89245451D01*
X140513046Y-88994622D01*
X140516903Y-88916097D01*
X140517351Y-88910030D01*
X140517948Y-88903970D01*
X140518690Y-88897959D01*
X140566408Y-88576266D01*
X140567441Y-88570319D01*
X140568628Y-88564349D01*
X140569948Y-88558467D01*
X140648982Y-88242948D01*
X140650584Y-88237161D01*
X140652374Y-88231264D01*
X140654250Y-88225587D01*
X140763822Y-87919355D01*
X140765983Y-87913753D01*
X140768322Y-87908104D01*
X140770757Y-87902608D01*
X140909828Y-87608566D01*
X140912544Y-87603171D01*
X140915429Y-87597774D01*
X140918379Y-87592567D01*
X141085582Y-87313605D01*
X141088822Y-87308488D01*
X141089242Y-87307858D01*
X141092198Y-87303433D01*
X141095680Y-87298487D01*
X141289433Y-87037242D01*
X141293148Y-87032483D01*
X141297031Y-87027752D01*
X141300944Y-87023216D01*
X141519381Y-86782207D01*
X141523549Y-86777831D01*
X141527839Y-86773540D01*
X141532207Y-86769381D01*
X141773216Y-86550944D01*
X141777752Y-86547031D01*
X141782483Y-86543148D01*
X141787242Y-86539433D01*
X142048487Y-86345680D01*
X142053433Y-86342198D01*
X142058488Y-86338822D01*
X142063612Y-86335578D01*
X142063617Y-86335575D01*
X142342567Y-86168379D01*
X142347774Y-86165429D01*
X142353171Y-86162544D01*
X142358566Y-86159828D01*
X142652608Y-86020757D01*
X142658103Y-86018322D01*
X142663759Y-86015980D01*
X142669366Y-86013818D01*
X142975563Y-85904258D01*
X142981296Y-85902363D01*
X142987142Y-85900590D01*
X142992948Y-85898982D01*
X143308467Y-85819948D01*
X143314341Y-85818630D01*
X143320343Y-85817436D01*
X143326278Y-85816406D01*
X143647991Y-85768684D01*
X143653969Y-85767947D01*
X143660057Y-85767348D01*
X143666077Y-85766904D01*
X143995538Y-85750718D01*
X143998489Y-85750610D01*
X144001571Y-85750535D01*
X144004546Y-85750500D01*
X175995454Y-85750500D01*
X175998426Y-85750535D01*
G37*
%TD.AperFunction*%
%TD*%
%TA.AperFunction,Conductor*%
%TO.N,AGND*%
G36*
X155515677Y-101519685D02*
G01*
X155536319Y-101536319D01*
X156862680Y-102862680D01*
X156896165Y-102924003D01*
X156891181Y-102993695D01*
X156849309Y-103049628D01*
X156807093Y-103070135D01*
X156756814Y-103083608D01*
X156756812Y-103083608D01*
X156756812Y-103083609D01*
X156642686Y-103149500D01*
X156642683Y-103149502D01*
X156549502Y-103242683D01*
X156549500Y-103242686D01*
X156483608Y-103356812D01*
X156449500Y-103484108D01*
X156449500Y-103615891D01*
X156483608Y-103743187D01*
X156516554Y-103800250D01*
X156549500Y-103857314D01*
X156642686Y-103950500D01*
X156756814Y-104016392D01*
X156884108Y-104050500D01*
X156884110Y-104050500D01*
X157015890Y-104050500D01*
X157015892Y-104050500D01*
X157143186Y-104016392D01*
X157257314Y-103950500D01*
X157350500Y-103857314D01*
X157416392Y-103743186D01*
X157429864Y-103692905D01*
X157466227Y-103633247D01*
X157529073Y-103602717D01*
X157598449Y-103611011D01*
X157637319Y-103637319D01*
X158000000Y-104000000D01*
X162376000Y-104000000D01*
X162443039Y-104019685D01*
X162488794Y-104072489D01*
X162500000Y-104124000D01*
X162500000Y-107500000D01*
X163448638Y-107500000D01*
X163515677Y-107519685D01*
X163536319Y-107536319D01*
X165000000Y-109000000D01*
X169500000Y-109000000D01*
X169500000Y-106124000D01*
X169519685Y-106056961D01*
X169572489Y-106011206D01*
X169624000Y-106000000D01*
X179375500Y-106000000D01*
X179442539Y-106019685D01*
X179488294Y-106072489D01*
X179499500Y-106124000D01*
X179499500Y-130496948D01*
X179499351Y-130503033D01*
X179482947Y-130836928D01*
X179481754Y-130849037D01*
X179433151Y-131176694D01*
X179430777Y-131188630D01*
X179350292Y-131509944D01*
X179346759Y-131521588D01*
X179235170Y-131833459D01*
X179230514Y-131844702D01*
X179088885Y-132144151D01*
X179083148Y-132154883D01*
X178912862Y-132438988D01*
X178906102Y-132449106D01*
X178708775Y-132715170D01*
X178701055Y-132724576D01*
X178478611Y-132970006D01*
X178470006Y-132978611D01*
X178224576Y-133201055D01*
X178215170Y-133208775D01*
X177949106Y-133406102D01*
X177938988Y-133412862D01*
X177654883Y-133583148D01*
X177644151Y-133588885D01*
X177344702Y-133730514D01*
X177333459Y-133735170D01*
X177021588Y-133846759D01*
X177009944Y-133850292D01*
X176688630Y-133930777D01*
X176676694Y-133933151D01*
X176349037Y-133981754D01*
X176336928Y-133982947D01*
X176021989Y-133998419D01*
X176003031Y-133999351D01*
X175996949Y-133999500D01*
X144003051Y-133999500D01*
X143996968Y-133999351D01*
X143976900Y-133998365D01*
X143663071Y-133982947D01*
X143650962Y-133981754D01*
X143323305Y-133933151D01*
X143311369Y-133930777D01*
X142990055Y-133850292D01*
X142978411Y-133846759D01*
X142666540Y-133735170D01*
X142655301Y-133730515D01*
X142355844Y-133588883D01*
X142345121Y-133583150D01*
X142061011Y-133412862D01*
X142050893Y-133406102D01*
X141784829Y-133208775D01*
X141775423Y-133201055D01*
X141730003Y-133159889D01*
X141724192Y-133154622D01*
X141529986Y-132978604D01*
X141521395Y-132970013D01*
X141298944Y-132724576D01*
X141291224Y-132715170D01*
X141093897Y-132449106D01*
X141087137Y-132438988D01*
X141035930Y-132353554D01*
X140916844Y-132154871D01*
X140911120Y-132144163D01*
X140792685Y-131893753D01*
X143420000Y-131893753D01*
X143420000Y-132106246D01*
X143453242Y-132316127D01*
X143453242Y-132316130D01*
X143518904Y-132518217D01*
X143615375Y-132707550D01*
X143654728Y-132761716D01*
X144287037Y-132129408D01*
X144304075Y-132192993D01*
X144369901Y-132307007D01*
X144462993Y-132400099D01*
X144577007Y-132465925D01*
X144640590Y-132482962D01*
X144008282Y-133115269D01*
X144008282Y-133115270D01*
X144062449Y-133154624D01*
X144251782Y-133251095D01*
X144453870Y-133316757D01*
X144663754Y-133350000D01*
X144876246Y-133350000D01*
X145086127Y-133316757D01*
X145086130Y-133316757D01*
X145288217Y-133251095D01*
X145477554Y-133154622D01*
X145531716Y-133115270D01*
X145531717Y-133115270D01*
X144899408Y-132482962D01*
X144962993Y-132465925D01*
X145077007Y-132400099D01*
X145170099Y-132307007D01*
X145235925Y-132192993D01*
X145252962Y-132129408D01*
X145885270Y-132761717D01*
X145885270Y-132761716D01*
X145924622Y-132707554D01*
X146021095Y-132518217D01*
X146078343Y-132342026D01*
X146117780Y-132284351D01*
X146182139Y-132257152D01*
X146250985Y-132269066D01*
X146302461Y-132316310D01*
X146310835Y-132332891D01*
X146379058Y-132497596D01*
X146494024Y-132669657D01*
X146640342Y-132815975D01*
X146640345Y-132815977D01*
X146812402Y-132930941D01*
X147003580Y-133010130D01*
X147148052Y-133038867D01*
X147206530Y-133050499D01*
X147206534Y-133050500D01*
X147206535Y-133050500D01*
X147413466Y-133050500D01*
X147413467Y-133050499D01*
X147616420Y-133010130D01*
X147807598Y-132930941D01*
X147979655Y-132815977D01*
X148125977Y-132669655D01*
X148240941Y-132497598D01*
X148320130Y-132306420D01*
X148360500Y-132103465D01*
X148360500Y-131896535D01*
X148360499Y-131896530D01*
X148799500Y-131896530D01*
X148799500Y-132103469D01*
X148839868Y-132306412D01*
X148839870Y-132306420D01*
X148919058Y-132497596D01*
X149034024Y-132669657D01*
X149180342Y-132815975D01*
X149180345Y-132815977D01*
X149352402Y-132930941D01*
X149543580Y-133010130D01*
X149688052Y-133038867D01*
X149746530Y-133050499D01*
X149746534Y-133050500D01*
X149746535Y-133050500D01*
X149953466Y-133050500D01*
X149953467Y-133050499D01*
X150156420Y-133010130D01*
X150347598Y-132930941D01*
X150519655Y-132815977D01*
X150665977Y-132669655D01*
X150780941Y-132497598D01*
X150860130Y-132306420D01*
X150900500Y-132103465D01*
X150900500Y-131896535D01*
X150900499Y-131896530D01*
X151339500Y-131896530D01*
X151339500Y-132103469D01*
X151379868Y-132306412D01*
X151379870Y-132306420D01*
X151459058Y-132497596D01*
X151574024Y-132669657D01*
X151720342Y-132815975D01*
X151720345Y-132815977D01*
X151892402Y-132930941D01*
X152083580Y-133010130D01*
X152228052Y-133038867D01*
X152286530Y-133050499D01*
X152286534Y-133050500D01*
X152286535Y-133050500D01*
X152493466Y-133050500D01*
X152493467Y-133050499D01*
X152696420Y-133010130D01*
X152887598Y-132930941D01*
X153059655Y-132815977D01*
X153205977Y-132669655D01*
X153320941Y-132497598D01*
X153400130Y-132306420D01*
X153440500Y-132103465D01*
X153440500Y-131896535D01*
X153440499Y-131896530D01*
X153879500Y-131896530D01*
X153879500Y-132103469D01*
X153919868Y-132306412D01*
X153919870Y-132306420D01*
X153999058Y-132497596D01*
X154114024Y-132669657D01*
X154260342Y-132815975D01*
X154260345Y-132815977D01*
X154432402Y-132930941D01*
X154623580Y-133010130D01*
X154768052Y-133038867D01*
X154826530Y-133050499D01*
X154826534Y-133050500D01*
X154826535Y-133050500D01*
X155033466Y-133050500D01*
X155033467Y-133050499D01*
X155236420Y-133010130D01*
X155427598Y-132930941D01*
X155599655Y-132815977D01*
X155745977Y-132669655D01*
X155860941Y-132497598D01*
X155940130Y-132306420D01*
X155980500Y-132103465D01*
X155980500Y-131896535D01*
X155980499Y-131896530D01*
X156419500Y-131896530D01*
X156419500Y-132103469D01*
X156459868Y-132306412D01*
X156459870Y-132306420D01*
X156539058Y-132497596D01*
X156654024Y-132669657D01*
X156800342Y-132815975D01*
X156800345Y-132815977D01*
X156972402Y-132930941D01*
X157163580Y-133010130D01*
X157308052Y-133038867D01*
X157366530Y-133050499D01*
X157366534Y-133050500D01*
X157366535Y-133050500D01*
X157573466Y-133050500D01*
X157573467Y-133050499D01*
X157776420Y-133010130D01*
X157967598Y-132930941D01*
X158139655Y-132815977D01*
X158285977Y-132669655D01*
X158400941Y-132497598D01*
X158480130Y-132306420D01*
X158520500Y-132103465D01*
X158520500Y-131896535D01*
X158520499Y-131896530D01*
X158959500Y-131896530D01*
X158959500Y-132103469D01*
X158999868Y-132306412D01*
X158999870Y-132306420D01*
X159079058Y-132497596D01*
X159194024Y-132669657D01*
X159340342Y-132815975D01*
X159340345Y-132815977D01*
X159512402Y-132930941D01*
X159703580Y-133010130D01*
X159848052Y-133038867D01*
X159906530Y-133050499D01*
X159906534Y-133050500D01*
X159906535Y-133050500D01*
X160113466Y-133050500D01*
X160113467Y-133050499D01*
X160316420Y-133010130D01*
X160507598Y-132930941D01*
X160679655Y-132815977D01*
X160825977Y-132669655D01*
X160940941Y-132497598D01*
X161020130Y-132306420D01*
X161060500Y-132103465D01*
X161060500Y-131896535D01*
X161060499Y-131896530D01*
X161499500Y-131896530D01*
X161499500Y-132103469D01*
X161539868Y-132306412D01*
X161539870Y-132306420D01*
X161619058Y-132497596D01*
X161734024Y-132669657D01*
X161880342Y-132815975D01*
X161880345Y-132815977D01*
X162052402Y-132930941D01*
X162243580Y-133010130D01*
X162388052Y-133038867D01*
X162446530Y-133050499D01*
X162446534Y-133050500D01*
X162446535Y-133050500D01*
X162653466Y-133050500D01*
X162653467Y-133050499D01*
X162856420Y-133010130D01*
X163047598Y-132930941D01*
X163219655Y-132815977D01*
X163365977Y-132669655D01*
X163480941Y-132497598D01*
X163560130Y-132306420D01*
X163600500Y-132103465D01*
X163600500Y-131896535D01*
X163600499Y-131896530D01*
X164039500Y-131896530D01*
X164039500Y-132103469D01*
X164079868Y-132306412D01*
X164079870Y-132306420D01*
X164159058Y-132497596D01*
X164274024Y-132669657D01*
X164420342Y-132815975D01*
X164420345Y-132815977D01*
X164592402Y-132930941D01*
X164783580Y-133010130D01*
X164928052Y-133038867D01*
X164986530Y-133050499D01*
X164986534Y-133050500D01*
X164986535Y-133050500D01*
X165193466Y-133050500D01*
X165193467Y-133050499D01*
X165396420Y-133010130D01*
X165587598Y-132930941D01*
X165759655Y-132815977D01*
X165905977Y-132669655D01*
X166020941Y-132497598D01*
X166100130Y-132306420D01*
X166140500Y-132103465D01*
X166140500Y-131896535D01*
X166140499Y-131896530D01*
X166579500Y-131896530D01*
X166579500Y-132103469D01*
X166619868Y-132306412D01*
X166619870Y-132306420D01*
X166699058Y-132497596D01*
X166814024Y-132669657D01*
X166960342Y-132815975D01*
X166960345Y-132815977D01*
X167132402Y-132930941D01*
X167323580Y-133010130D01*
X167468052Y-133038867D01*
X167526530Y-133050499D01*
X167526534Y-133050500D01*
X167526535Y-133050500D01*
X167733466Y-133050500D01*
X167733467Y-133050499D01*
X167936420Y-133010130D01*
X168127598Y-132930941D01*
X168299655Y-132815977D01*
X168445977Y-132669655D01*
X168560941Y-132497598D01*
X168640130Y-132306420D01*
X168680500Y-132103465D01*
X168680500Y-131896535D01*
X168680499Y-131896530D01*
X169119500Y-131896530D01*
X169119500Y-132103469D01*
X169159868Y-132306412D01*
X169159870Y-132306420D01*
X169239058Y-132497596D01*
X169354024Y-132669657D01*
X169500342Y-132815975D01*
X169500345Y-132815977D01*
X169672402Y-132930941D01*
X169863580Y-133010130D01*
X170008052Y-133038867D01*
X170066530Y-133050499D01*
X170066534Y-133050500D01*
X170066535Y-133050500D01*
X170273466Y-133050500D01*
X170273467Y-133050499D01*
X170476420Y-133010130D01*
X170667598Y-132930941D01*
X170839655Y-132815977D01*
X170985977Y-132669655D01*
X171100941Y-132497598D01*
X171180130Y-132306420D01*
X171220500Y-132103465D01*
X171220500Y-131896535D01*
X171220499Y-131896530D01*
X171659500Y-131896530D01*
X171659500Y-132103469D01*
X171699868Y-132306412D01*
X171699870Y-132306420D01*
X171779058Y-132497596D01*
X171894024Y-132669657D01*
X172040342Y-132815975D01*
X172040345Y-132815977D01*
X172212402Y-132930941D01*
X172403580Y-133010130D01*
X172548052Y-133038867D01*
X172606530Y-133050499D01*
X172606534Y-133050500D01*
X172606535Y-133050500D01*
X172813466Y-133050500D01*
X172813467Y-133050499D01*
X173016420Y-133010130D01*
X173207598Y-132930941D01*
X173379655Y-132815977D01*
X173525977Y-132669655D01*
X173640941Y-132497598D01*
X173720130Y-132306420D01*
X173760500Y-132103465D01*
X173760500Y-131896535D01*
X173720130Y-131693580D01*
X173640941Y-131502402D01*
X173525977Y-131330345D01*
X173525975Y-131330342D01*
X173379657Y-131184024D01*
X173299173Y-131130247D01*
X174199500Y-131130247D01*
X174199500Y-132869752D01*
X174211131Y-132928229D01*
X174211132Y-132928230D01*
X174255447Y-132994552D01*
X174321769Y-133038867D01*
X174321770Y-133038868D01*
X174380247Y-133050499D01*
X174380250Y-133050500D01*
X174380252Y-133050500D01*
X176119750Y-133050500D01*
X176119751Y-133050499D01*
X176134568Y-133047552D01*
X176178229Y-133038868D01*
X176178229Y-133038867D01*
X176178231Y-133038867D01*
X176244552Y-132994552D01*
X176288867Y-132928231D01*
X176288867Y-132928229D01*
X176288868Y-132928229D01*
X176300499Y-132869752D01*
X176300500Y-132869750D01*
X176300500Y-131130249D01*
X176300499Y-131130247D01*
X176288868Y-131071770D01*
X176288867Y-131071769D01*
X176244552Y-131005447D01*
X176178230Y-130961132D01*
X176178229Y-130961131D01*
X176119752Y-130949500D01*
X176119748Y-130949500D01*
X174380252Y-130949500D01*
X174380247Y-130949500D01*
X174321770Y-130961131D01*
X174321769Y-130961132D01*
X174255447Y-131005447D01*
X174211132Y-131071769D01*
X174211131Y-131071770D01*
X174199500Y-131130247D01*
X173299173Y-131130247D01*
X173211655Y-131071770D01*
X173207598Y-131069059D01*
X173016420Y-130989870D01*
X173016412Y-130989868D01*
X172813469Y-130949500D01*
X172813465Y-130949500D01*
X172606535Y-130949500D01*
X172606530Y-130949500D01*
X172403587Y-130989868D01*
X172403579Y-130989870D01*
X172212403Y-131069058D01*
X172040342Y-131184024D01*
X171894024Y-131330342D01*
X171779058Y-131502403D01*
X171699870Y-131693579D01*
X171699868Y-131693587D01*
X171659500Y-131896530D01*
X171220499Y-131896530D01*
X171180130Y-131693580D01*
X171100941Y-131502402D01*
X170985977Y-131330345D01*
X170985975Y-131330342D01*
X170839657Y-131184024D01*
X170671655Y-131071770D01*
X170667598Y-131069059D01*
X170476420Y-130989870D01*
X170476412Y-130989868D01*
X170273469Y-130949500D01*
X170273465Y-130949500D01*
X170066535Y-130949500D01*
X170066530Y-130949500D01*
X169863587Y-130989868D01*
X169863579Y-130989870D01*
X169672403Y-131069058D01*
X169500342Y-131184024D01*
X169354024Y-131330342D01*
X169239058Y-131502403D01*
X169159870Y-131693579D01*
X169159868Y-131693587D01*
X169119500Y-131896530D01*
X168680499Y-131896530D01*
X168640130Y-131693580D01*
X168560941Y-131502402D01*
X168445977Y-131330345D01*
X168445975Y-131330342D01*
X168299657Y-131184024D01*
X168131655Y-131071770D01*
X168127598Y-131069059D01*
X167936420Y-130989870D01*
X167936412Y-130989868D01*
X167733469Y-130949500D01*
X167733465Y-130949500D01*
X167526535Y-130949500D01*
X167526530Y-130949500D01*
X167323587Y-130989868D01*
X167323579Y-130989870D01*
X167132403Y-131069058D01*
X166960342Y-131184024D01*
X166814024Y-131330342D01*
X166699058Y-131502403D01*
X166619870Y-131693579D01*
X166619868Y-131693587D01*
X166579500Y-131896530D01*
X166140499Y-131896530D01*
X166100130Y-131693580D01*
X166020941Y-131502402D01*
X165905977Y-131330345D01*
X165905975Y-131330342D01*
X165759657Y-131184024D01*
X165591655Y-131071770D01*
X165587598Y-131069059D01*
X165396420Y-130989870D01*
X165396412Y-130989868D01*
X165193469Y-130949500D01*
X165193465Y-130949500D01*
X164986535Y-130949500D01*
X164986530Y-130949500D01*
X164783587Y-130989868D01*
X164783579Y-130989870D01*
X164592403Y-131069058D01*
X164420342Y-131184024D01*
X164274024Y-131330342D01*
X164159058Y-131502403D01*
X164079870Y-131693579D01*
X164079868Y-131693587D01*
X164039500Y-131896530D01*
X163600499Y-131896530D01*
X163560130Y-131693580D01*
X163480941Y-131502402D01*
X163365977Y-131330345D01*
X163365975Y-131330342D01*
X163219657Y-131184024D01*
X163051655Y-131071770D01*
X163047598Y-131069059D01*
X162856420Y-130989870D01*
X162856412Y-130989868D01*
X162653469Y-130949500D01*
X162653465Y-130949500D01*
X162446535Y-130949500D01*
X162446530Y-130949500D01*
X162243587Y-130989868D01*
X162243579Y-130989870D01*
X162052403Y-131069058D01*
X161880342Y-131184024D01*
X161734024Y-131330342D01*
X161619058Y-131502403D01*
X161539870Y-131693579D01*
X161539868Y-131693587D01*
X161499500Y-131896530D01*
X161060499Y-131896530D01*
X161020130Y-131693580D01*
X160940941Y-131502402D01*
X160825977Y-131330345D01*
X160825975Y-131330342D01*
X160679657Y-131184024D01*
X160511655Y-131071770D01*
X160507598Y-131069059D01*
X160316420Y-130989870D01*
X160316412Y-130989868D01*
X160113469Y-130949500D01*
X160113465Y-130949500D01*
X159906535Y-130949500D01*
X159906530Y-130949500D01*
X159703587Y-130989868D01*
X159703579Y-130989870D01*
X159512403Y-131069058D01*
X159340342Y-131184024D01*
X159194024Y-131330342D01*
X159079058Y-131502403D01*
X158999870Y-131693579D01*
X158999868Y-131693587D01*
X158959500Y-131896530D01*
X158520499Y-131896530D01*
X158480130Y-131693580D01*
X158400941Y-131502402D01*
X158285977Y-131330345D01*
X158285975Y-131330342D01*
X158139657Y-131184024D01*
X157971655Y-131071770D01*
X157967598Y-131069059D01*
X157776420Y-130989870D01*
X157776412Y-130989868D01*
X157573469Y-130949500D01*
X157573465Y-130949500D01*
X157366535Y-130949500D01*
X157366530Y-130949500D01*
X157163587Y-130989868D01*
X157163579Y-130989870D01*
X156972403Y-131069058D01*
X156800342Y-131184024D01*
X156654024Y-131330342D01*
X156539058Y-131502403D01*
X156459870Y-131693579D01*
X156459868Y-131693587D01*
X156419500Y-131896530D01*
X155980499Y-131896530D01*
X155940130Y-131693580D01*
X155860941Y-131502402D01*
X155745977Y-131330345D01*
X155745975Y-131330342D01*
X155599657Y-131184024D01*
X155431655Y-131071770D01*
X155427598Y-131069059D01*
X155236420Y-130989870D01*
X155236412Y-130989868D01*
X155033469Y-130949500D01*
X155033465Y-130949500D01*
X154826535Y-130949500D01*
X154826530Y-130949500D01*
X154623587Y-130989868D01*
X154623579Y-130989870D01*
X154432403Y-131069058D01*
X154260342Y-131184024D01*
X154114024Y-131330342D01*
X153999058Y-131502403D01*
X153919870Y-131693579D01*
X153919868Y-131693587D01*
X153879500Y-131896530D01*
X153440499Y-131896530D01*
X153400130Y-131693580D01*
X153320941Y-131502402D01*
X153205977Y-131330345D01*
X153205975Y-131330342D01*
X153059657Y-131184024D01*
X152891655Y-131071770D01*
X152887598Y-131069059D01*
X152696420Y-130989870D01*
X152696412Y-130989868D01*
X152493469Y-130949500D01*
X152493465Y-130949500D01*
X152286535Y-130949500D01*
X152286530Y-130949500D01*
X152083587Y-130989868D01*
X152083579Y-130989870D01*
X151892403Y-131069058D01*
X151720342Y-131184024D01*
X151574024Y-131330342D01*
X151459058Y-131502403D01*
X151379870Y-131693579D01*
X151379868Y-131693587D01*
X151339500Y-131896530D01*
X150900499Y-131896530D01*
X150860130Y-131693580D01*
X150780941Y-131502402D01*
X150665977Y-131330345D01*
X150665975Y-131330342D01*
X150519657Y-131184024D01*
X150351655Y-131071770D01*
X150347598Y-131069059D01*
X150156420Y-130989870D01*
X150156412Y-130989868D01*
X149953469Y-130949500D01*
X149953465Y-130949500D01*
X149746535Y-130949500D01*
X149746530Y-130949500D01*
X149543587Y-130989868D01*
X149543579Y-130989870D01*
X149352403Y-131069058D01*
X149180342Y-131184024D01*
X149034024Y-131330342D01*
X148919058Y-131502403D01*
X148839870Y-131693579D01*
X148839868Y-131693587D01*
X148799500Y-131896530D01*
X148360499Y-131896530D01*
X148320130Y-131693580D01*
X148240941Y-131502402D01*
X148125977Y-131330345D01*
X148125975Y-131330342D01*
X147979657Y-131184024D01*
X147811655Y-131071770D01*
X147807598Y-131069059D01*
X147616420Y-130989870D01*
X147616412Y-130989868D01*
X147413469Y-130949500D01*
X147413465Y-130949500D01*
X147206535Y-130949500D01*
X147206530Y-130949500D01*
X147003587Y-130989868D01*
X147003579Y-130989870D01*
X146812403Y-131069058D01*
X146640342Y-131184024D01*
X146494024Y-131330342D01*
X146379057Y-131502403D01*
X146310835Y-131667108D01*
X146266994Y-131721511D01*
X146200700Y-131743576D01*
X146133000Y-131726297D01*
X146085390Y-131675159D01*
X146078343Y-131657973D01*
X146021095Y-131481782D01*
X145924624Y-131292449D01*
X145885270Y-131238282D01*
X145885269Y-131238282D01*
X145252962Y-131870590D01*
X145235925Y-131807007D01*
X145170099Y-131692993D01*
X145077007Y-131599901D01*
X144962993Y-131534075D01*
X144899409Y-131517037D01*
X145531716Y-130884728D01*
X145477550Y-130845375D01*
X145288217Y-130748904D01*
X145086129Y-130683242D01*
X144876246Y-130650000D01*
X144663754Y-130650000D01*
X144453872Y-130683242D01*
X144453869Y-130683242D01*
X144251782Y-130748904D01*
X144062439Y-130845380D01*
X144008282Y-130884727D01*
X144008282Y-130884728D01*
X144640591Y-131517037D01*
X144577007Y-131534075D01*
X144462993Y-131599901D01*
X144369901Y-131692993D01*
X144304075Y-131807007D01*
X144287037Y-131870591D01*
X143654728Y-131238282D01*
X143654727Y-131238282D01*
X143615380Y-131292439D01*
X143518904Y-131481782D01*
X143453242Y-131683869D01*
X143453242Y-131683872D01*
X143420000Y-131893753D01*
X140792685Y-131893753D01*
X140769479Y-131844688D01*
X140764829Y-131833459D01*
X140755364Y-131807007D01*
X140653240Y-131521588D01*
X140649707Y-131509944D01*
X140647818Y-131502402D01*
X140569219Y-131188617D01*
X140566848Y-131176695D01*
X140559958Y-131130249D01*
X140518245Y-130849037D01*
X140517052Y-130836927D01*
X140500649Y-130503032D01*
X140500500Y-130496948D01*
X140500500Y-119678543D01*
X171499499Y-119678543D01*
X171537947Y-119871829D01*
X171537950Y-119871839D01*
X171613364Y-120053907D01*
X171613371Y-120053920D01*
X171722860Y-120217781D01*
X171722863Y-120217785D01*
X171862214Y-120357136D01*
X171862218Y-120357139D01*
X172026079Y-120466628D01*
X172026092Y-120466635D01*
X172208160Y-120542049D01*
X172208165Y-120542051D01*
X172208169Y-120542051D01*
X172208170Y-120542052D01*
X172401456Y-120580500D01*
X172401459Y-120580500D01*
X172598543Y-120580500D01*
X172728582Y-120554632D01*
X172791835Y-120542051D01*
X172973914Y-120466632D01*
X173137782Y-120357139D01*
X173277139Y-120217782D01*
X173386632Y-120053914D01*
X173462051Y-119871835D01*
X173500500Y-119678541D01*
X173500500Y-119481459D01*
X173500500Y-119481456D01*
X173462052Y-119288170D01*
X173462051Y-119288169D01*
X173462051Y-119288165D01*
X173462049Y-119288160D01*
X173386635Y-119106092D01*
X173386628Y-119106079D01*
X173277139Y-118942218D01*
X173277136Y-118942214D01*
X173137785Y-118802863D01*
X173137781Y-118802860D01*
X172973920Y-118693371D01*
X172973907Y-118693364D01*
X172791839Y-118617950D01*
X172791829Y-118617947D01*
X172598543Y-118579500D01*
X172598541Y-118579500D01*
X172401459Y-118579500D01*
X172401457Y-118579500D01*
X172208170Y-118617947D01*
X172208160Y-118617950D01*
X172026092Y-118693364D01*
X172026079Y-118693371D01*
X171862218Y-118802860D01*
X171862214Y-118802863D01*
X171722863Y-118942214D01*
X171722860Y-118942218D01*
X171613371Y-119106079D01*
X171613364Y-119106092D01*
X171537950Y-119288160D01*
X171537947Y-119288170D01*
X171499500Y-119481456D01*
X171499500Y-119481459D01*
X171499500Y-119678541D01*
X171499500Y-119678543D01*
X171499499Y-119678543D01*
X140500500Y-119678543D01*
X140500500Y-118234108D01*
X164699500Y-118234108D01*
X164699500Y-118365891D01*
X164733608Y-118493187D01*
X164766554Y-118550250D01*
X164799500Y-118607314D01*
X164892686Y-118700500D01*
X165006814Y-118766392D01*
X165134108Y-118800500D01*
X165134110Y-118800500D01*
X165265890Y-118800500D01*
X165265892Y-118800500D01*
X165393186Y-118766392D01*
X165507314Y-118700500D01*
X165600500Y-118607314D01*
X165666392Y-118493186D01*
X165700500Y-118365892D01*
X165700500Y-118234108D01*
X165666392Y-118106814D01*
X165600500Y-117992686D01*
X165507314Y-117899500D01*
X165450250Y-117866554D01*
X165393187Y-117833608D01*
X165329539Y-117816554D01*
X165265892Y-117799500D01*
X165134108Y-117799500D01*
X165006812Y-117833608D01*
X164892686Y-117899500D01*
X164892683Y-117899502D01*
X164799502Y-117992683D01*
X164799500Y-117992686D01*
X164733608Y-118106812D01*
X164699500Y-118234108D01*
X140500500Y-118234108D01*
X140500500Y-115434108D01*
X149599500Y-115434108D01*
X149599500Y-115565891D01*
X149633608Y-115693187D01*
X149666554Y-115750250D01*
X149699500Y-115807314D01*
X149792686Y-115900500D01*
X149906814Y-115966392D01*
X150034108Y-116000500D01*
X150034110Y-116000500D01*
X150165890Y-116000500D01*
X150165892Y-116000500D01*
X150293186Y-115966392D01*
X150407314Y-115900500D01*
X150500500Y-115807314D01*
X150566392Y-115693186D01*
X150600500Y-115565892D01*
X150600500Y-115434108D01*
X150566392Y-115306814D01*
X150500500Y-115192686D01*
X150407314Y-115099500D01*
X150350250Y-115066554D01*
X150294053Y-115034108D01*
X155099500Y-115034108D01*
X155099500Y-115165892D01*
X155116554Y-115229539D01*
X155133608Y-115293187D01*
X155141475Y-115306812D01*
X155199500Y-115407314D01*
X155292686Y-115500500D01*
X155391521Y-115557563D01*
X155405944Y-115565890D01*
X155406814Y-115566392D01*
X155534108Y-115600500D01*
X155534110Y-115600500D01*
X155665890Y-115600500D01*
X155665892Y-115600500D01*
X155793186Y-115566392D01*
X155907314Y-115500500D01*
X156000500Y-115407314D01*
X156066392Y-115293186D01*
X156100500Y-115165892D01*
X156100500Y-115034108D01*
X156066392Y-114906814D01*
X156000500Y-114792686D01*
X155907314Y-114699500D01*
X155850250Y-114666554D01*
X155793187Y-114633608D01*
X155729539Y-114616554D01*
X155665892Y-114599500D01*
X155534108Y-114599500D01*
X155406812Y-114633608D01*
X155292686Y-114699500D01*
X155292683Y-114699502D01*
X155199502Y-114792683D01*
X155199500Y-114792686D01*
X155133608Y-114906812D01*
X155108773Y-114999500D01*
X155099500Y-115034108D01*
X150294053Y-115034108D01*
X150293187Y-115033608D01*
X150229539Y-115016554D01*
X150165892Y-114999500D01*
X150034108Y-114999500D01*
X149906812Y-115033608D01*
X149792686Y-115099500D01*
X149792683Y-115099502D01*
X149699502Y-115192683D01*
X149699500Y-115192686D01*
X149633608Y-115306812D01*
X149599500Y-115434108D01*
X140500500Y-115434108D01*
X140500500Y-112334108D01*
X154349500Y-112334108D01*
X154349500Y-112465891D01*
X154383608Y-112593187D01*
X154416554Y-112650250D01*
X154449500Y-112707314D01*
X154542686Y-112800500D01*
X154656814Y-112866392D01*
X154784108Y-112900500D01*
X154784110Y-112900500D01*
X154915890Y-112900500D01*
X154915892Y-112900500D01*
X155043186Y-112866392D01*
X155157314Y-112800500D01*
X155250500Y-112707314D01*
X155316392Y-112593186D01*
X155350500Y-112465892D01*
X155350500Y-112334108D01*
X155316392Y-112206814D01*
X155250500Y-112092686D01*
X155157314Y-111999500D01*
X155100250Y-111966554D01*
X155043187Y-111933608D01*
X154979539Y-111916554D01*
X154915892Y-111899500D01*
X154784108Y-111899500D01*
X154656812Y-111933608D01*
X154542686Y-111999500D01*
X154542683Y-111999502D01*
X154449502Y-112092683D01*
X154449500Y-112092686D01*
X154383608Y-112206812D01*
X154349500Y-112334108D01*
X140500500Y-112334108D01*
X140500500Y-109518543D01*
X171499499Y-109518543D01*
X171537947Y-109711829D01*
X171537950Y-109711839D01*
X171613364Y-109893907D01*
X171613371Y-109893920D01*
X171722860Y-110057781D01*
X171722863Y-110057785D01*
X171862214Y-110197136D01*
X171862218Y-110197139D01*
X172026079Y-110306628D01*
X172026092Y-110306635D01*
X172208160Y-110382049D01*
X172208165Y-110382051D01*
X172208169Y-110382051D01*
X172208170Y-110382052D01*
X172401456Y-110420500D01*
X172401459Y-110420500D01*
X172598543Y-110420500D01*
X172728582Y-110394632D01*
X172791835Y-110382051D01*
X172973914Y-110306632D01*
X173137782Y-110197139D01*
X173277139Y-110057782D01*
X173386632Y-109893914D01*
X173462051Y-109711835D01*
X173500500Y-109518541D01*
X173500500Y-109321459D01*
X173500500Y-109321456D01*
X173462052Y-109128170D01*
X173462051Y-109128169D01*
X173462051Y-109128165D01*
X173408964Y-109000000D01*
X173386635Y-108946092D01*
X173386628Y-108946079D01*
X173277139Y-108782218D01*
X173277136Y-108782214D01*
X173137785Y-108642863D01*
X173137781Y-108642860D01*
X172973920Y-108533371D01*
X172973907Y-108533364D01*
X172791839Y-108457950D01*
X172791829Y-108457947D01*
X172598543Y-108419500D01*
X172598541Y-108419500D01*
X172401459Y-108419500D01*
X172401457Y-108419500D01*
X172208170Y-108457947D01*
X172208160Y-108457950D01*
X172026092Y-108533364D01*
X172026079Y-108533371D01*
X171862218Y-108642860D01*
X171862214Y-108642863D01*
X171722863Y-108782214D01*
X171722860Y-108782218D01*
X171613371Y-108946079D01*
X171613364Y-108946092D01*
X171537950Y-109128160D01*
X171537947Y-109128170D01*
X171499500Y-109321456D01*
X171499500Y-109321459D01*
X171499500Y-109518541D01*
X171499500Y-109518543D01*
X171499499Y-109518543D01*
X140500500Y-109518543D01*
X140500500Y-107584108D01*
X155749500Y-107584108D01*
X155749500Y-107715891D01*
X155783608Y-107843187D01*
X155816554Y-107900250D01*
X155849500Y-107957314D01*
X155942686Y-108050500D01*
X156056814Y-108116392D01*
X156184108Y-108150500D01*
X156184110Y-108150500D01*
X156315890Y-108150500D01*
X156315892Y-108150500D01*
X156443186Y-108116392D01*
X156557314Y-108050500D01*
X156650500Y-107957314D01*
X156716392Y-107843186D01*
X156750500Y-107715892D01*
X156750500Y-107584108D01*
X156716392Y-107456814D01*
X156650500Y-107342686D01*
X156557314Y-107249500D01*
X156500250Y-107216554D01*
X156443187Y-107183608D01*
X156379539Y-107166554D01*
X156315892Y-107149500D01*
X156184108Y-107149500D01*
X156056812Y-107183608D01*
X155942686Y-107249500D01*
X155942683Y-107249502D01*
X155849502Y-107342683D01*
X155849500Y-107342686D01*
X155783608Y-107456812D01*
X155749500Y-107584108D01*
X140500500Y-107584108D01*
X140500500Y-106434108D01*
X152399500Y-106434108D01*
X152399500Y-106565891D01*
X152433608Y-106693187D01*
X152466554Y-106750250D01*
X152499500Y-106807314D01*
X152592686Y-106900500D01*
X152706814Y-106966392D01*
X152834108Y-107000500D01*
X152834110Y-107000500D01*
X152965890Y-107000500D01*
X152965892Y-107000500D01*
X153093186Y-106966392D01*
X153207314Y-106900500D01*
X153300500Y-106807314D01*
X153366392Y-106693186D01*
X153400500Y-106565892D01*
X153400500Y-106434108D01*
X153366392Y-106306814D01*
X153300500Y-106192686D01*
X153207314Y-106099500D01*
X153150250Y-106066554D01*
X153093187Y-106033608D01*
X153029539Y-106016554D01*
X152965892Y-105999500D01*
X152834108Y-105999500D01*
X152706812Y-106033608D01*
X152592686Y-106099500D01*
X152592683Y-106099502D01*
X152499502Y-106192683D01*
X152499500Y-106192686D01*
X152433608Y-106306812D01*
X152399500Y-106434108D01*
X140500500Y-106434108D01*
X140500500Y-101624000D01*
X140520185Y-101556961D01*
X140572989Y-101511206D01*
X140624500Y-101500000D01*
X155448638Y-101500000D01*
X155515677Y-101519685D01*
G37*
%TD.AperFunction*%
%TD*%
%TA.AperFunction,Conductor*%
%TO.N,PGND*%
G36*
X158349502Y-101592682D02*
G01*
X158349493Y-101592696D01*
X158283607Y-101706810D01*
X158283607Y-101706812D01*
X158276909Y-101731812D01*
X158276909Y-101731814D01*
X158249500Y-101834108D01*
X158249500Y-101965894D01*
X158256198Y-101990889D01*
X158256198Y-101990892D01*
X158256199Y-101990892D01*
X158283608Y-102093188D01*
X158298042Y-102118187D01*
X158349497Y-102207310D01*
X158349499Y-102207312D01*
X158349500Y-102207314D01*
X158442686Y-102300500D01*
X158556814Y-102366392D01*
X158684108Y-102400500D01*
X158684110Y-102400500D01*
X158815890Y-102400500D01*
X158815892Y-102400500D01*
X158943186Y-102366392D01*
X159057314Y-102300500D01*
X159150500Y-102207314D01*
X159216392Y-102093186D01*
X159250500Y-101965892D01*
X159250500Y-101834108D01*
X159216392Y-101706814D01*
X159150500Y-101592686D01*
X159057814Y-101500000D01*
X160035121Y-101500000D01*
X159992685Y-101524500D01*
X159992677Y-101524506D01*
X159899506Y-101617677D01*
X159899502Y-101617682D01*
X159899493Y-101617696D01*
X159833610Y-101731806D01*
X159833609Y-101731808D01*
X159833608Y-101731812D01*
X159799500Y-101859108D01*
X159799500Y-101990891D01*
X159833608Y-102118187D01*
X159866554Y-102175250D01*
X159899500Y-102232314D01*
X159992686Y-102325500D01*
X160106814Y-102391392D01*
X160234108Y-102425500D01*
X160234110Y-102425500D01*
X160365890Y-102425500D01*
X160365892Y-102425500D01*
X160493186Y-102391392D01*
X160607314Y-102325500D01*
X160700500Y-102232314D01*
X160766392Y-102118186D01*
X160800500Y-101990892D01*
X160800500Y-101859108D01*
X160766392Y-101731814D01*
X160766387Y-101731806D01*
X160751956Y-101706810D01*
X160700500Y-101617686D01*
X160607314Y-101524500D01*
X160564879Y-101500000D01*
X161535121Y-101500000D01*
X161492685Y-101524500D01*
X161492677Y-101524506D01*
X161399506Y-101617677D01*
X161399502Y-101617682D01*
X161399493Y-101617696D01*
X161333610Y-101731806D01*
X161333609Y-101731808D01*
X161333608Y-101731812D01*
X161299500Y-101859108D01*
X161299500Y-101990891D01*
X161333608Y-102118187D01*
X161366554Y-102175250D01*
X161399500Y-102232314D01*
X161492686Y-102325500D01*
X161606814Y-102391392D01*
X161734108Y-102425500D01*
X161734110Y-102425500D01*
X161865890Y-102425500D01*
X161865892Y-102425500D01*
X161993186Y-102391392D01*
X162107314Y-102325500D01*
X162200500Y-102232314D01*
X162266392Y-102118186D01*
X162300500Y-101990892D01*
X162300500Y-101859108D01*
X162266392Y-101731814D01*
X162266387Y-101731806D01*
X162251956Y-101706810D01*
X162200500Y-101617686D01*
X162107314Y-101524500D01*
X162064879Y-101500000D01*
X163500000Y-101500000D01*
X163500000Y-104000000D01*
X162677184Y-104000000D01*
X162644100Y-103937915D01*
X162598345Y-103885111D01*
X162598339Y-103885104D01*
X162580757Y-103867160D01*
X162580756Y-103867159D01*
X162580754Y-103867157D01*
X162580752Y-103867156D01*
X162580750Y-103867154D01*
X162500940Y-103822511D01*
X162500935Y-103822509D01*
X162433903Y-103802826D01*
X162433899Y-103802825D01*
X162433898Y-103802825D01*
X162376000Y-103794500D01*
X162375996Y-103794500D01*
X158136482Y-103794500D01*
X158069443Y-103774815D01*
X158048801Y-103758181D01*
X157782634Y-103492014D01*
X157782629Y-103492009D01*
X157752503Y-103467134D01*
X157713633Y-103440826D01*
X157713630Y-103440824D01*
X157713596Y-103440801D01*
X157708963Y-103437756D01*
X157708955Y-103437752D01*
X157622846Y-103406965D01*
X157622845Y-103406964D01*
X157622843Y-103406964D01*
X157622841Y-103406963D01*
X157622831Y-103406961D01*
X157553486Y-103398672D01*
X157553477Y-103398671D01*
X157553467Y-103398670D01*
X157528371Y-103397218D01*
X157528370Y-103397218D01*
X157522387Y-103397728D01*
X157453919Y-103383804D01*
X157404476Y-103336175D01*
X157350500Y-103242686D01*
X157257314Y-103149500D01*
X157191421Y-103111456D01*
X157191420Y-103111455D01*
X157160075Y-103093358D01*
X157111859Y-103042792D01*
X157098391Y-102977128D01*
X157101142Y-102938662D01*
X157101398Y-102913527D01*
X157076528Y-102825517D01*
X157043043Y-102764194D01*
X157007990Y-102717370D01*
X155790620Y-101500000D01*
X158442185Y-101500000D01*
X158349502Y-101592682D01*
G37*
%TD.AperFunction*%
%TD*%
M02*
